<svg xmlns="http://www.w3.org/2000/svg" xmlns:xlink="http://www.w3.org/1999/xlink" width="1400" zoomAndPan="magnify" viewBox="0 0 1050 1274.999945" height="1700" preserveAspectRatio="xMidYMid meet" version="1.0"><defs><clipPath id="id1"><path d="M 367 235.21875 L 683 235.21875 L 683 1005 L 367 1005 Z M 367 235.21875 " clip-rule="nonzero"/></clipPath><clipPath id="id2"><path d="M 822 655 L 1050 655 L 1050 1039.96875 L 822 1039.96875 Z M 822 655 " clip-rule="nonzero"/></clipPath><clipPath id="id3"><path d="M 0 655 L 228 655 L 228 1039.96875 L 0 1039.96875 Z M 0 655 " clip-rule="nonzero"/></clipPath></defs><path fill="#1c2b4a" d="M 507.507812 1004.980469 L 507.507812 917.507812 L 455.039062 917.507812 L 455.039062 1004.980469 L 507.507812 1004.980469 " fill-opacity="1" fill-rule="nonzero"/><path fill="#1c2b4a" d="M 297.625 410.164062 L 262.644531 410.164062 L 262.644531 357.679688 L 297.625 357.679688 Z M 297.625 497.636719 L 262.644531 497.636719 L 262.644531 445.152344 L 297.625 445.152344 Z M 297.625 585.109375 L 262.644531 585.109375 L 262.644531 532.625 L 297.625 532.625 Z M 297.625 672.582031 L 262.644531 672.582031 L 262.644531 620.097656 L 297.625 620.097656 Z M 297.625 760.054688 L 262.644531 760.054688 L 262.644531 707.570312 L 297.625 707.570312 Z M 297.625 847.527344 L 262.644531 847.527344 L 262.644531 795.042969 L 297.625 795.042969 Z M 297.625 935 L 262.644531 935 L 262.644531 882.519531 L 297.625 882.519531 Z M 332.605469 305.195312 L 227.660156 305.195312 L 227.660156 1004.980469 L 332.605469 1004.980469 L 332.605469 305.195312 " fill-opacity="1" fill-rule="nonzero"/><path fill="#1c2b4a" d="M 594.960938 1004.980469 L 594.960938 917.507812 L 542.492188 917.507812 L 542.492188 1004.980469 L 594.960938 1004.980469 " fill-opacity="1" fill-rule="nonzero"/><g clip-path="url(#id1)"><path fill="#1c2b4a" d="M 612.453125 847.527344 L 612.453125 795.042969 L 647.433594 795.042969 L 647.433594 847.527344 Z M 612.453125 707.570312 L 647.433594 707.570312 L 647.433594 760.054688 L 612.453125 760.054688 Z M 612.453125 620.097656 L 647.433594 620.097656 L 647.433594 672.582031 L 612.453125 672.582031 Z M 612.453125 532.625 L 647.433594 532.625 L 647.433594 585.109375 L 612.453125 585.109375 Z M 612.453125 445.152344 L 647.433594 445.152344 L 647.433594 497.636719 L 612.453125 497.636719 Z M 612.453125 357.679688 L 647.433594 357.679688 L 647.433594 410.164062 L 612.453125 410.164062 Z M 612.453125 270.207031 L 647.433594 270.207031 L 647.433594 322.691406 L 612.453125 322.691406 Z M 577.472656 322.691406 L 542.492188 322.691406 L 542.492188 270.207031 L 577.472656 270.207031 Z M 577.472656 410.164062 L 542.492188 410.164062 L 542.492188 357.679688 L 577.472656 357.679688 Z M 577.472656 497.636719 L 542.492188 497.636719 L 542.492188 445.152344 L 577.472656 445.152344 Z M 577.472656 585.109375 L 542.492188 585.109375 L 542.492188 532.625 L 577.472656 532.625 Z M 577.472656 672.582031 L 542.492188 672.582031 L 542.492188 620.097656 L 577.472656 620.097656 Z M 577.472656 760.054688 L 542.492188 760.054688 L 542.492188 707.570312 L 577.472656 707.570312 Z M 577.472656 847.527344 L 542.492188 847.527344 L 542.492188 795.042969 L 577.472656 795.042969 Z M 507.507812 322.691406 L 472.527344 322.691406 L 472.527344 270.207031 L 507.507812 270.207031 Z M 507.507812 410.164062 L 472.527344 410.164062 L 472.527344 357.679688 L 507.507812 357.679688 Z M 507.507812 497.636719 L 472.527344 497.636719 L 472.527344 445.152344 L 507.507812 445.152344 Z M 507.507812 585.109375 L 472.527344 585.109375 L 472.527344 532.625 L 507.507812 532.625 Z M 507.507812 672.582031 L 472.527344 672.582031 L 472.527344 620.097656 L 507.507812 620.097656 Z M 507.507812 760.054688 L 472.527344 760.054688 L 472.527344 707.570312 L 507.507812 707.570312 Z M 507.507812 847.527344 L 472.527344 847.527344 L 472.527344 795.042969 L 507.507812 795.042969 Z M 437.546875 322.691406 L 402.566406 322.691406 L 402.566406 270.207031 L 437.546875 270.207031 Z M 437.546875 410.164062 L 402.566406 410.164062 L 402.566406 357.679688 L 437.546875 357.679688 Z M 437.546875 497.636719 L 402.566406 497.636719 L 402.566406 445.152344 L 437.546875 445.152344 Z M 437.546875 585.109375 L 402.566406 585.109375 L 402.566406 532.625 L 437.546875 532.625 Z M 437.546875 672.582031 L 402.566406 672.582031 L 402.566406 620.097656 L 437.546875 620.097656 Z M 437.546875 760.054688 L 402.566406 760.054688 L 402.566406 707.570312 L 437.546875 707.570312 Z M 437.546875 847.527344 L 402.566406 847.527344 L 402.566406 795.042969 L 437.546875 795.042969 Z M 682.414062 1004.980469 L 682.414062 235.21875 L 367.585938 235.21875 L 367.585938 1004.980469 L 420.058594 1004.980469 L 420.058594 900.011719 C 420.058594 890.375 427.914062 882.519531 437.546875 882.519531 L 612.453125 882.519531 C 622.085938 882.519531 629.941406 890.375 629.941406 900.011719 L 629.941406 1004.980469 L 682.414062 1004.980469 " fill-opacity="1" fill-rule="nonzero"/></g><path fill="#1c2b4a" d="M 787.355469 410.164062 L 752.375 410.164062 L 752.375 357.679688 L 787.355469 357.679688 Z M 787.355469 497.636719 L 752.375 497.636719 L 752.375 445.152344 L 787.355469 445.152344 Z M 787.355469 585.109375 L 752.375 585.109375 L 752.375 532.625 L 787.355469 532.625 Z M 787.355469 672.582031 L 752.375 672.582031 L 752.375 620.097656 L 787.355469 620.097656 Z M 787.355469 760.054688 L 752.375 760.054688 L 752.375 707.570312 L 787.355469 707.570312 Z M 787.355469 847.527344 L 752.375 847.527344 L 752.375 795.042969 L 787.355469 795.042969 Z M 787.355469 935 L 752.375 935 L 752.375 882.519531 L 787.355469 882.519531 Z M 717.394531 305.195312 L 717.394531 1004.980469 L 822.339844 1004.980469 L 822.339844 305.195312 L 717.394531 305.195312 " fill-opacity="1" fill-rule="nonzero"/><g clip-path="url(#id2)"><path fill="#1c2b4a" d="M 979.753906 1004.980469 L 979.753906 777.550781 L 1021.769531 809.054688 L 1042.675781 781.035156 L 991.367188 742.5625 L 1042.675781 704.085938 L 1021.769531 676.066406 L 979.753906 707.570312 L 979.753906 655.089844 L 944.773438 655.089844 L 944.773438 707.570312 L 902.753906 676.066406 L 881.847656 704.085938 L 933.15625 742.5625 L 881.847656 781.035156 L 902.753906 809.054688 L 944.773438 777.550781 L 944.773438 1004.980469 L 822.339844 1004.980469 L 822.339844 1039.96875 L 1049.714844 1039.96875 L 1049.714844 1004.980469 L 979.753906 1004.980469 " fill-opacity="1" fill-rule="nonzero"/></g><g clip-path="url(#id3)"><path fill="#1c2b4a" d="M 227.660156 1004.980469 L 105.226562 1004.980469 L 105.226562 777.550781 L 147.246094 809.054688 L 168.152344 781.035156 L 116.910156 742.5625 L 168.152344 704.085938 L 147.246094 676.066406 L 105.226562 707.570312 L 105.226562 655.089844 L 70.246094 655.089844 L 70.246094 707.570312 L 28.296875 676.066406 L 7.253906 704.085938 L 58.5625 742.5625 L 7.253906 781.035156 L 28.296875 809.054688 L 70.246094 777.550781 L 70.246094 1004.980469 L 0.285156 1004.980469 L 0.285156 1039.96875 L 227.660156 1039.96875 L 227.660156 1004.980469 " fill-opacity="1" fill-rule="nonzero"/></g></svg>