<svg xmlns="http://www.w3.org/2000/svg" xmlns:xlink="http://www.w3.org/1999/xlink" width="1400" zoomAndPan="magnify" viewBox="0 0 1050 1274.999945" height="1700" preserveAspectRatio="xMidYMid meet" version="1.0"><defs><clipPath id="id1"><path d="M 0.382812 468 L 841.8125 468 L 841.8125 1262.441406 L 0.382812 1262.441406 Z M 0.382812 468 " clip-rule="nonzero"/></clipPath><clipPath id="id2"><path d="M 7 451.550781 L 752 451.550781 L 752 1270 L 7 1270 Z M 7 451.550781 " clip-rule="nonzero"/></clipPath><clipPath id="id3"><path d="M 19 560 L 655 560 L 655 1274.636719 L 19 1274.636719 Z M 19 560 " clip-rule="nonzero"/></clipPath></defs><g clip-path="url(#id1)"><path fill="#040484" d="M 107.058594 1058.34375 C 111.003906 1058.34375 114.199219 1055.144531 114.199219 1051.199219 C 114.199219 1047.253906 111.003906 1044.0625 107.058594 1044.0625 C 103.117188 1044.0625 99.917969 1047.253906 99.917969 1051.199219 C 99.917969 1055.144531 103.117188 1058.34375 107.058594 1058.34375 Z M 24.75 1057.085938 C 24.75 1054.132812 22.355469 1051.738281 19.402344 1051.738281 C 16.453125 1051.738281 14.058594 1054.132812 14.058594 1057.085938 C 14.058594 1060.039062 16.453125 1062.433594 19.402344 1062.433594 C 22.355469 1062.433594 24.75 1060.039062 24.75 1057.085938 Z M 361.417969 1038.800781 C 361.417969 1035.925781 359.089844 1033.601562 356.21875 1033.601562 C 353.347656 1033.601562 351.019531 1035.925781 351.019531 1038.800781 C 351.019531 1041.675781 353.347656 1044.003906 356.21875 1044.003906 C 359.089844 1044.003906 361.417969 1041.675781 361.417969 1038.800781 Z M 181.066406 1107.71875 C 181.066406 1103.78125 177.875 1100.589844 173.9375 1100.589844 C 170.003906 1100.589844 166.8125 1103.78125 166.8125 1107.71875 C 166.8125 1111.65625 170.003906 1114.851562 173.9375 1114.851562 C 177.875 1114.851562 181.066406 1111.65625 181.066406 1107.71875 Z M 570.574219 1101.933594 C 574.753906 1101.933594 578.140625 1098.546875 578.140625 1094.371094 C 578.140625 1090.183594 574.753906 1086.800781 570.574219 1086.800781 C 566.398438 1086.800781 563.007812 1090.183594 563.007812 1094.371094 C 563.007812 1098.546875 566.398438 1101.933594 570.574219 1101.933594 Z M 32.003906 1104.367188 C 32.003906 1100.300781 28.703125 1097.003906 24.636719 1097.003906 C 20.574219 1097.003906 17.277344 1100.300781 17.277344 1104.367188 C 17.277344 1108.4375 20.574219 1111.730469 24.636719 1111.730469 C 28.703125 1111.730469 32.003906 1108.4375 32.003906 1104.367188 Z M 157.050781 1065.40625 C 157.050781 1061.597656 153.960938 1058.496094 150.148438 1058.496094 C 146.332031 1058.496094 143.242188 1061.597656 143.242188 1065.40625 C 143.242188 1069.226562 146.332031 1072.320312 150.148438 1072.320312 C 153.960938 1072.320312 157.050781 1069.226562 157.050781 1065.40625 Z M 55.3125 984.382812 C 55.3125 980.328125 52.027344 977.039062 47.964844 977.039062 C 43.917969 977.039062 40.625 980.328125 40.625 984.382812 C 40.625 988.441406 43.917969 991.734375 47.964844 991.734375 C 52.027344 991.734375 55.3125 988.441406 55.3125 984.382812 Z M 13.09375 971.726562 C 13.09375 968.214844 10.25 965.367188 6.738281 965.367188 C 3.226562 965.367188 0.382812 968.214844 0.382812 971.726562 C 0.382812 975.238281 3.226562 978.085938 6.738281 978.085938 C 10.25 978.085938 13.09375 975.238281 13.09375 971.726562 Z M 138.5625 946.894531 C 138.5625 944.980469 137.011719 943.421875 135.089844 943.421875 C 133.175781 943.421875 131.625 944.980469 131.625 946.894531 C 131.625 948.8125 133.175781 950.367188 135.089844 950.367188 C 137.011719 950.367188 138.5625 948.8125 138.5625 946.894531 Z M 380.640625 927.066406 C 380.640625 923.960938 378.121094 921.4375 375.015625 921.4375 C 371.910156 921.4375 369.390625 923.960938 369.390625 927.066406 C 369.390625 930.167969 371.910156 932.6875 375.015625 932.6875 C 378.121094 932.6875 380.640625 930.167969 380.640625 927.066406 Z M 134 1011.503906 C 134 1008.957031 131.933594 1006.894531 129.386719 1006.894531 C 126.839844 1006.894531 124.777344 1008.957031 124.777344 1011.503906 C 124.777344 1014.050781 126.839844 1016.117188 129.386719 1016.117188 C 131.933594 1016.117188 134 1014.050781 134 1011.503906 Z M 137.125 985.78125 C 137.125 981.941406 134.011719 978.835938 130.175781 978.835938 C 126.347656 978.835938 123.234375 981.941406 123.234375 985.78125 C 123.234375 989.617188 126.347656 992.730469 130.175781 992.730469 C 134.011719 992.730469 137.125 989.617188 137.125 985.78125 Z M 284.800781 1011.589844 C 287.945312 1011.589844 290.488281 1009.042969 290.488281 1005.902344 C 290.488281 1002.757812 287.945312 1000.207031 284.800781 1000.207031 C 281.652344 1000.207031 279.109375 1002.757812 279.109375 1005.902344 C 279.109375 1009.042969 281.652344 1011.589844 284.800781 1011.589844 Z M 57.519531 1122.566406 C 57.519531 1120.496094 55.84375 1118.820312 53.777344 1118.820312 C 51.710938 1118.820312 50.035156 1120.496094 50.035156 1122.566406 C 50.035156 1124.632812 51.710938 1126.308594 53.777344 1126.308594 C 55.84375 1126.308594 57.519531 1124.632812 57.519531 1122.566406 Z M 21.949219 928.230469 C 21.949219 926.328125 20.40625 924.792969 18.511719 924.792969 C 16.609375 924.792969 15.0625 926.328125 15.0625 928.230469 C 15.0625 930.140625 16.609375 931.683594 18.511719 931.683594 C 20.40625 931.683594 21.949219 930.140625 21.949219 928.230469 Z M 112.75 1229.445312 C 112.75 1225.511719 109.558594 1222.328125 105.628906 1222.328125 C 101.699219 1222.328125 98.515625 1225.511719 98.515625 1229.445312 C 98.515625 1233.375 101.699219 1236.566406 105.628906 1236.566406 C 109.558594 1236.566406 112.75 1233.375 112.75 1229.445312 Z M 155.714844 1204.859375 C 155.714844 1200.636719 152.296875 1197.21875 148.082031 1197.21875 C 143.859375 1197.21875 140.441406 1200.636719 140.441406 1204.859375 C 140.441406 1209.078125 143.859375 1212.496094 148.082031 1212.496094 C 152.296875 1212.496094 155.714844 1209.078125 155.714844 1204.859375 Z M 460.941406 1220.417969 C 464.9375 1220.417969 468.175781 1217.179688 468.175781 1213.179688 C 468.175781 1209.183594 464.9375 1205.945312 460.941406 1205.945312 C 456.945312 1205.945312 453.707031 1209.183594 453.707031 1213.179688 C 453.707031 1217.179688 456.945312 1220.417969 460.941406 1220.417969 Z M 91.742188 1195.386719 C 91.742188 1192.867188 89.691406 1190.824219 87.171875 1190.824219 C 84.652344 1190.824219 82.613281 1192.867188 82.613281 1195.386719 C 82.613281 1197.914062 84.652344 1199.957031 87.171875 1199.957031 C 89.691406 1199.957031 91.742188 1197.914062 91.742188 1195.386719 Z M 406.191406 1256.484375 C 406.191406 1253.324219 403.628906 1250.761719 400.464844 1250.761719 C 397.308594 1250.761719 394.75 1253.324219 394.75 1256.484375 C 394.75 1259.644531 397.308594 1262.203125 400.464844 1262.203125 C 403.628906 1262.203125 406.191406 1259.644531 406.191406 1256.484375 Z M 331.738281 1248.339844 C 331.738281 1245.878906 329.742188 1243.890625 327.285156 1243.890625 C 324.824219 1243.890625 322.835938 1245.878906 322.835938 1248.339844 C 322.835938 1250.804688 324.824219 1252.796875 327.285156 1252.796875 C 329.742188 1252.796875 331.738281 1250.804688 331.738281 1248.339844 Z M 430.121094 1253.796875 C 434.394531 1253.796875 437.851562 1250.332031 437.851562 1246.058594 C 437.851562 1241.785156 434.394531 1238.324219 430.121094 1238.324219 C 425.851562 1238.324219 422.386719 1241.785156 422.386719 1246.058594 C 422.386719 1250.332031 425.851562 1253.796875 430.121094 1253.796875 Z M 735.871094 1241.089844 C 737.800781 1241.089844 739.363281 1239.523438 739.363281 1237.59375 C 739.363281 1235.664062 737.800781 1234.09375 735.871094 1234.09375 C 733.9375 1234.09375 732.375 1235.664062 732.375 1237.59375 C 732.375 1239.523438 733.9375 1241.089844 735.871094 1241.089844 Z M 67.859375 1224.65625 C 67.859375 1220.816406 64.753906 1217.710938 60.917969 1217.710938 C 57.082031 1217.710938 53.976562 1220.816406 53.976562 1224.65625 C 53.976562 1228.492188 57.082031 1231.597656 60.917969 1231.597656 C 64.753906 1231.597656 67.859375 1228.492188 67.859375 1224.65625 Z M 229.050781 1148.09375 C 230.898438 1148.09375 232.402344 1146.589844 232.402344 1144.742188 C 232.402344 1142.894531 230.898438 1141.390625 229.050781 1141.390625 C 227.203125 1141.390625 225.699219 1142.894531 225.699219 1144.742188 C 225.699219 1146.589844 227.203125 1148.09375 229.050781 1148.09375 Z M 356.199219 1137.019531 C 356.199219 1133.792969 353.585938 1131.1875 350.367188 1131.1875 C 347.144531 1131.1875 344.53125 1133.792969 344.53125 1137.019531 C 344.53125 1140.246094 347.144531 1142.859375 350.367188 1142.859375 C 353.585938 1142.859375 356.199219 1140.246094 356.199219 1137.019531 Z M 66.460938 1151.46875 C 66.460938 1147.796875 63.492188 1144.816406 59.8125 1144.816406 C 56.144531 1144.816406 53.164062 1147.796875 53.164062 1151.46875 C 53.164062 1155.140625 56.144531 1158.117188 59.8125 1158.117188 C 63.492188 1158.117188 66.460938 1155.140625 66.460938 1151.46875 Z M 358.832031 1164.363281 C 358.832031 1160.738281 355.898438 1157.804688 352.28125 1157.804688 C 348.660156 1157.804688 345.726562 1160.738281 345.726562 1164.363281 C 345.726562 1167.984375 348.660156 1170.921875 352.28125 1170.921875 C 355.898438 1170.921875 358.832031 1167.984375 358.832031 1164.363281 Z M 478.261719 1172.378906 C 478.261719 1168.621094 475.210938 1165.574219 471.453125 1165.574219 C 467.699219 1165.574219 464.652344 1168.621094 464.652344 1172.378906 C 464.652344 1176.136719 467.699219 1179.183594 471.453125 1179.183594 C 475.210938 1179.183594 478.261719 1176.136719 478.261719 1172.378906 Z M 127.359375 1162.480469 C 127.359375 1159.726562 125.125 1157.492188 122.371094 1157.492188 C 119.625 1157.492188 117.398438 1159.726562 117.398438 1162.480469 C 117.398438 1165.230469 119.625 1167.464844 122.371094 1167.464844 C 125.125 1167.464844 127.359375 1165.230469 127.359375 1162.480469 Z M 160.886719 1173.738281 C 160.886719 1171.726562 159.257812 1170.097656 157.25 1170.097656 C 155.242188 1170.097656 153.613281 1171.726562 153.613281 1173.738281 C 153.613281 1175.753906 155.242188 1177.375 157.25 1177.375 C 159.257812 1177.375 160.886719 1175.753906 160.886719 1173.738281 Z M 252.867188 1197.65625 C 255.253906 1197.65625 257.1875 1195.71875 257.1875 1193.332031 C 257.1875 1190.945312 255.253906 1189.007812 252.867188 1189.007812 C 250.476562 1189.007812 248.535156 1190.945312 248.535156 1193.332031 C 248.535156 1195.71875 250.476562 1197.65625 252.867188 1197.65625 Z M 475.21875 985.859375 C 475.21875 981.761719 471.894531 978.445312 467.796875 978.445312 C 463.703125 978.445312 460.378906 981.761719 460.378906 985.859375 C 460.378906 989.964844 463.703125 993.285156 467.796875 993.285156 C 471.894531 993.285156 475.21875 989.964844 475.21875 985.859375 Z M 613.097656 1114.542969 C 613.097656 1118.164062 616.023438 1121.089844 619.632812 1121.089844 C 623.25 1121.089844 626.175781 1118.164062 626.175781 1114.542969 C 626.175781 1110.933594 623.25 1108.003906 619.632812 1108.003906 C 616.023438 1108.003906 613.097656 1110.933594 613.097656 1114.542969 Z M 284.671875 1199.871094 C 281.921875 1199.871094 279.6875 1202.105469 279.6875 1204.867188 C 279.6875 1207.621094 281.921875 1209.855469 284.671875 1209.855469 C 287.425781 1209.855469 289.660156 1207.621094 289.660156 1204.867188 C 289.660156 1202.105469 287.425781 1199.871094 284.671875 1199.871094 Z M 328.046875 907.917969 C 328.046875 904.675781 325.421875 902.050781 322.183594 902.050781 C 318.945312 902.050781 316.320312 904.675781 316.320312 907.917969 C 316.320312 911.15625 318.945312 913.785156 322.183594 913.785156 C 325.421875 913.785156 328.046875 911.15625 328.046875 907.917969 Z M 471.695312 1060.339844 C 471.695312 1064.058594 474.707031 1067.070312 478.414062 1067.070312 C 482.132812 1067.070312 485.136719 1064.058594 485.136719 1060.339844 C 485.136719 1056.628906 482.132812 1053.613281 478.414062 1053.613281 C 474.707031 1053.613281 471.695312 1056.628906 471.695312 1060.339844 Z M 512.0625 1197.042969 C 512.0625 1201.246094 515.46875 1204.652344 519.671875 1204.652344 C 523.871094 1204.652344 527.277344 1201.246094 527.277344 1197.042969 C 527.277344 1192.839844 523.871094 1189.429688 519.671875 1189.429688 C 515.46875 1189.429688 512.0625 1192.839844 512.0625 1197.042969 Z M 145.90625 770.339844 C 145.90625 772.589844 147.730469 774.40625 149.96875 774.40625 C 152.210938 774.40625 154.03125 772.589844 154.03125 770.339844 C 154.03125 768.097656 152.210938 766.28125 149.96875 766.28125 C 147.730469 766.28125 145.90625 768.097656 145.90625 770.339844 Z M 65.992188 650.105469 C 65.992188 652.300781 67.773438 654.082031 69.972656 654.082031 C 72.175781 654.082031 73.957031 652.300781 73.957031 650.105469 C 73.957031 647.902344 72.175781 646.121094 69.972656 646.121094 C 67.773438 646.121094 65.992188 647.902344 65.992188 650.105469 Z M 277.878906 845.835938 C 277.878906 847.839844 279.5 849.460938 281.5 849.460938 C 283.503906 849.460938 285.125 847.839844 285.125 845.835938 C 285.125 843.835938 283.503906 842.210938 281.5 842.210938 C 279.5 842.210938 277.878906 843.835938 277.878906 845.835938 Z M 230.757812 842.949219 C 228.246094 842.949219 226.203125 844.992188 226.203125 847.507812 C 226.203125 850.019531 228.246094 852.0625 230.757812 852.0625 C 233.273438 852.0625 235.3125 850.019531 235.3125 847.507812 C 235.3125 844.992188 233.273438 842.949219 230.757812 842.949219 Z M 179.96875 1224.78125 C 177.496094 1224.78125 175.496094 1226.789062 175.496094 1229.257812 C 175.496094 1231.734375 177.496094 1233.734375 179.96875 1233.734375 C 182.441406 1233.734375 184.445312 1231.734375 184.445312 1229.257812 C 184.445312 1226.789062 182.441406 1224.78125 179.96875 1224.78125 Z M 685.460938 1249.859375 C 685.460938 1253.96875 688.792969 1257.292969 692.894531 1257.292969 C 697.003906 1257.292969 700.328125 1253.96875 700.328125 1249.859375 C 700.328125 1245.753906 697.003906 1242.421875 692.894531 1242.421875 C 688.792969 1242.421875 685.460938 1245.753906 685.460938 1249.859375 Z M 834.011719 1251.675781 C 834.011719 1253.828125 835.761719 1255.578125 837.917969 1255.578125 C 840.070312 1255.578125 841.820312 1253.828125 841.820312 1251.675781 C 841.820312 1249.519531 840.070312 1247.777344 837.917969 1247.777344 C 835.761719 1247.777344 834.011719 1249.519531 834.011719 1251.675781 Z M 385.109375 1225.757812 C 385.109375 1222.691406 382.628906 1220.210938 379.570312 1220.210938 C 376.503906 1220.210938 374.023438 1222.691406 374.023438 1225.757812 C 374.023438 1228.820312 376.503906 1231.300781 379.570312 1231.300781 C 382.628906 1231.300781 385.109375 1228.820312 385.109375 1225.757812 Z M 586.941406 1217.710938 C 586.941406 1220.558594 589.25 1222.871094 592.09375 1222.871094 C 594.941406 1222.871094 597.246094 1220.558594 597.246094 1217.710938 C 597.246094 1214.871094 594.941406 1212.554688 592.09375 1212.554688 C 589.25 1212.554688 586.941406 1214.871094 586.941406 1217.710938 Z M 654.863281 1196.101562 C 654.863281 1198.734375 657 1200.863281 659.625 1200.863281 C 662.257812 1200.863281 664.390625 1198.734375 664.390625 1196.101562 C 664.390625 1193.464844 662.257812 1191.332031 659.625 1191.332031 C 657 1191.332031 654.863281 1193.464844 654.863281 1196.101562 Z M 606.636719 1221.363281 C 606.636719 1223.949219 608.730469 1226.039062 611.308594 1226.039062 C 613.890625 1226.039062 615.984375 1223.949219 615.984375 1221.363281 C 615.984375 1218.773438 613.890625 1216.6875 611.308594 1216.6875 C 608.730469 1216.6875 606.636719 1218.773438 606.636719 1221.363281 Z M 203.292969 1099.730469 C 200.234375 1099.730469 197.753906 1102.210938 197.753906 1105.269531 C 197.753906 1108.332031 200.234375 1110.820312 203.292969 1110.820312 C 206.351562 1110.820312 208.832031 1108.332031 208.832031 1105.269531 C 208.832031 1102.210938 206.351562 1099.730469 203.292969 1099.730469 Z M 193.035156 853.59375 C 193.035156 851.808594 191.589844 850.367188 189.808594 850.367188 C 188.035156 850.367188 186.585938 851.808594 186.585938 853.59375 C 186.585938 855.367188 188.035156 856.8125 189.808594 856.8125 C 191.589844 856.8125 193.035156 855.367188 193.035156 853.59375 Z M 77.605469 474.875 C 77.605469 471.5 74.875 468.773438 71.507812 468.773438 C 68.136719 468.773438 65.414062 471.5 65.414062 474.875 C 65.414062 478.238281 68.136719 480.972656 71.507812 480.972656 C 74.875 480.972656 77.605469 478.238281 77.605469 474.875 Z M 72.199219 831.574219 C 72.199219 828.589844 69.773438 826.160156 66.789062 826.160156 C 63.796875 826.160156 61.375 828.589844 61.375 831.574219 C 61.375 834.570312 63.796875 836.988281 66.789062 836.988281 C 69.773438 836.988281 72.199219 834.570312 72.199219 831.574219 Z M 159.304688 815.585938 C 159.304688 813.542969 157.644531 811.878906 155.601562 811.878906 C 153.554688 811.878906 151.890625 813.542969 151.890625 815.585938 C 151.890625 817.632812 153.554688 819.289062 155.601562 819.289062 C 157.644531 819.289062 159.304688 817.632812 159.304688 815.585938 Z M 125.796875 848.761719 C 125.796875 844.972656 122.71875 841.890625 118.925781 841.890625 C 115.136719 841.890625 112.066406 844.972656 112.066406 848.761719 C 112.066406 852.554688 115.136719 855.628906 118.925781 855.628906 C 122.71875 855.628906 125.796875 852.554688 125.796875 848.761719 Z M 22.828125 907.164062 C 22.828125 904.390625 20.582031 902.136719 17.800781 902.136719 C 15.023438 902.136719 12.773438 904.390625 12.773438 907.164062 C 12.773438 909.945312 15.023438 912.199219 17.800781 912.199219 C 20.582031 912.199219 22.828125 909.945312 22.828125 907.164062 Z M 78.332031 876.917969 C 78.332031 873.472656 75.542969 870.695312 72.109375 870.695312 C 68.671875 870.695312 65.882812 873.472656 65.882812 876.917969 C 65.882812 880.351562 68.671875 883.144531 72.109375 883.144531 C 75.542969 883.144531 78.332031 880.351562 78.332031 876.917969 Z M 187.570312 887.933594 C 187.570312 884.316406 184.644531 881.394531 181.03125 881.394531 C 177.429688 881.394531 174.496094 884.316406 174.496094 887.933594 C 174.496094 891.539062 177.429688 894.46875 181.03125 894.46875 C 184.644531 894.46875 187.570312 891.539062 187.570312 887.933594 Z M 121.984375 771.304688 C 121.984375 767.914062 119.238281 765.164062 115.855469 765.164062 C 112.464844 765.164062 109.726562 767.914062 109.726562 771.304688 C 109.726562 774.691406 112.464844 777.4375 115.855469 777.4375 C 119.238281 777.4375 121.984375 774.691406 121.984375 771.304688 Z M 128.992188 537.644531 C 128.992188 533.363281 125.523438 529.890625 121.242188 529.890625 C 116.960938 529.890625 113.488281 533.363281 113.488281 537.644531 C 113.488281 541.929688 116.960938 545.402344 121.242188 545.402344 C 125.523438 545.402344 128.992188 541.929688 128.992188 537.644531 Z M 52.394531 589.269531 C 52.394531 585.617188 49.433594 582.65625 45.785156 582.65625 C 42.136719 582.65625 39.175781 585.617188 39.175781 589.269531 C 39.175781 592.925781 42.136719 595.886719 45.785156 595.886719 C 49.433594 595.886719 52.394531 592.925781 52.394531 589.269531 Z M 25.605469 650.53125 C 25.605469 647.410156 23.082031 644.890625 19.96875 644.890625 C 16.851562 644.890625 14.332031 647.410156 14.332031 650.53125 C 14.332031 653.644531 16.851562 656.164062 19.96875 656.164062 C 23.082031 656.164062 25.605469 653.644531 25.605469 650.53125 Z M 120.597656 694.117188 C 120.597656 691.472656 118.449219 689.324219 115.800781 689.324219 C 113.148438 689.324219 111.003906 691.472656 111.003906 694.117188 C 111.003906 696.773438 113.148438 698.921875 115.800781 698.921875 C 118.449219 698.921875 120.597656 696.773438 120.597656 694.117188 Z M 192.15625 796.886719 C 192.15625 792.691406 188.757812 789.289062 184.5625 789.289062 C 180.367188 789.289062 176.96875 792.691406 176.96875 796.886719 C 176.96875 801.078125 180.367188 804.484375 184.5625 804.484375 C 188.757812 804.484375 192.15625 801.078125 192.15625 796.886719 Z M 251.855469 907.144531 C 251.855469 904.023438 249.328125 901.496094 246.210938 901.496094 C 243.089844 901.496094 240.566406 904.023438 240.566406 907.144531 C 240.566406 910.265625 243.089844 912.792969 246.210938 912.792969 C 249.328125 912.792969 251.855469 910.265625 251.855469 907.144531 Z M 33.484375 743.429688 C 30.027344 743.429688 27.222656 740.621094 27.222656 737.15625 C 27.222656 733.695312 30.027344 730.890625 33.484375 730.890625 C 36.949219 730.890625 39.753906 733.695312 39.753906 737.15625 C 39.753906 740.621094 36.949219 743.429688 33.484375 743.429688 " fill-opacity="1" fill-rule="nonzero"/></g><path fill="#c2baaf" d="M 225.351562 1057.804688 C 225.351562 1054.511719 222.6875 1051.839844 219.394531 1051.839844 C 216.105469 1051.839844 213.433594 1054.511719 213.433594 1057.804688 C 213.433594 1061.097656 216.105469 1063.765625 219.394531 1063.765625 C 222.6875 1063.765625 225.351562 1061.097656 225.351562 1057.804688 Z M 228.191406 1053.195312 C 230.527344 1053.195312 232.421875 1051.304688 232.421875 1048.972656 C 232.421875 1046.636719 230.527344 1044.746094 228.191406 1044.746094 C 225.859375 1044.746094 223.96875 1046.636719 223.96875 1048.972656 C 223.96875 1051.304688 225.859375 1053.195312 228.191406 1053.195312 Z M 167.417969 1033.242188 C 167.417969 1029.035156 164.003906 1025.625 159.804688 1025.625 C 155.601562 1025.625 152.199219 1029.035156 152.199219 1033.242188 C 152.199219 1037.4375 155.601562 1040.851562 159.804688 1040.851562 C 164.003906 1040.851562 167.417969 1037.4375 167.417969 1033.242188 Z M 390.730469 1090.703125 C 390.730469 1093.171875 392.734375 1095.175781 395.199219 1095.175781 C 397.667969 1095.175781 399.660156 1093.171875 399.660156 1090.703125 C 399.660156 1088.238281 397.667969 1086.242188 395.199219 1086.242188 C 392.734375 1086.242188 390.730469 1088.238281 390.730469 1090.703125 Z M 264.566406 1046.464844 C 266.65625 1046.464844 268.34375 1044.773438 268.34375 1042.6875 C 268.34375 1040.605469 266.65625 1038.90625 264.566406 1038.90625 C 262.484375 1038.90625 260.796875 1040.605469 260.796875 1042.6875 C 260.796875 1044.773438 262.484375 1046.464844 264.566406 1046.464844 Z M 303.734375 1115.433594 C 303.734375 1112.640625 301.472656 1110.375 298.679688 1110.375 C 295.890625 1110.375 293.621094 1112.640625 293.621094 1115.433594 C 293.621094 1118.230469 295.890625 1120.496094 298.679688 1120.496094 C 301.472656 1120.496094 303.734375 1118.230469 303.734375 1115.433594 Z M 409.296875 1117.171875 C 409.296875 1114.152344 406.847656 1111.710938 403.832031 1111.710938 C 400.8125 1111.710938 398.363281 1114.152344 398.363281 1117.171875 C 398.363281 1120.191406 400.8125 1122.640625 403.832031 1122.640625 C 406.847656 1122.640625 409.296875 1120.191406 409.296875 1117.171875 Z M 364.332031 1113.445312 C 366.824219 1113.445312 368.851562 1111.417969 368.851562 1108.917969 C 368.851562 1106.414062 366.824219 1104.394531 364.332031 1104.394531 C 361.824219 1104.394531 359.800781 1106.414062 359.800781 1108.917969 C 359.800781 1111.417969 361.824219 1113.445312 364.332031 1113.445312 Z M 324.9375 1100.542969 C 324.9375 1097.953125 322.84375 1095.859375 320.257812 1095.859375 C 317.671875 1095.859375 315.570312 1097.953125 315.570312 1100.542969 C 315.570312 1103.128906 317.671875 1105.230469 320.257812 1105.230469 C 322.84375 1105.230469 324.9375 1103.128906 324.9375 1100.542969 Z M 311.425781 1091.058594 C 311.425781 1088.496094 309.347656 1086.414062 306.78125 1086.414062 C 304.214844 1086.414062 302.136719 1088.496094 302.136719 1091.058594 C 302.136719 1093.625 304.214844 1095.707031 306.78125 1095.707031 C 309.347656 1095.707031 311.425781 1093.625 311.425781 1091.058594 Z M 166.167969 957.027344 C 166.167969 952.734375 162.683594 949.25 158.394531 949.25 C 154.097656 949.25 150.621094 952.734375 150.621094 957.027344 C 150.621094 961.324219 154.097656 964.800781 158.394531 964.800781 C 162.683594 964.800781 166.167969 961.324219 166.167969 957.027344 Z M 227.9375 906.261719 C 227.9375 902.476562 224.875 899.414062 221.097656 899.414062 C 217.320312 899.414062 214.257812 902.476562 214.257812 906.261719 C 214.257812 910.039062 217.320312 913.105469 221.097656 913.105469 C 224.875 913.105469 227.9375 910.039062 227.9375 906.261719 Z M 203 1032.527344 C 206.816406 1032.527344 209.90625 1029.4375 209.90625 1025.625 C 209.90625 1021.8125 206.816406 1018.71875 203 1018.71875 C 199.191406 1018.71875 196.097656 1021.8125 196.097656 1025.625 C 196.097656 1029.4375 199.191406 1032.527344 203 1032.527344 Z M 283.828125 978.402344 C 283.828125 981.703125 286.507812 984.382812 289.804688 984.382812 C 293.109375 984.382812 295.789062 981.703125 295.789062 978.402344 C 295.789062 975.097656 293.109375 972.417969 289.804688 972.417969 C 286.507812 972.417969 283.828125 975.097656 283.828125 978.402344 Z M 226.980469 941.6875 C 226.980469 937.496094 223.585938 934.097656 219.394531 934.097656 C 215.207031 934.097656 211.808594 937.496094 211.808594 941.6875 C 211.808594 945.878906 215.207031 949.277344 219.394531 949.277344 C 223.585938 949.277344 226.980469 945.878906 226.980469 941.6875 Z M 178.957031 1010.066406 C 178.957031 1005.960938 175.628906 1002.628906 171.523438 1002.628906 C 167.417969 1002.628906 164.09375 1005.960938 164.09375 1010.066406 C 164.09375 1014.175781 167.417969 1017.503906 171.523438 1017.503906 C 175.628906 1017.503906 178.957031 1014.175781 178.957031 1010.066406 Z M 190.5 985.761719 C 190.5 982.175781 187.59375 979.277344 184.011719 979.277344 C 180.433594 979.277344 177.535156 982.175781 177.535156 985.761719 C 177.535156 989.339844 180.433594 992.238281 184.011719 992.238281 C 187.59375 992.238281 190.5 989.339844 190.5 985.761719 Z M 79.695312 1003.632812 C 79.695312 1001.324219 77.824219 999.457031 75.523438 999.457031 C 73.21875 999.457031 71.347656 1001.324219 71.347656 1003.632812 C 71.347656 1005.933594 73.21875 1007.804688 75.523438 1007.804688 C 77.824219 1007.804688 79.695312 1005.933594 79.695312 1003.632812 Z M 249.925781 982.859375 C 252.386719 982.859375 254.382812 980.867188 254.382812 978.402344 C 254.382812 975.9375 252.386719 973.941406 249.925781 973.941406 C 247.464844 973.941406 245.472656 975.9375 245.472656 978.402344 C 245.472656 980.867188 247.464844 982.859375 249.925781 982.859375 Z M 638.089844 1241.402344 C 638.089844 1238.628906 635.835938 1236.375 633.058594 1236.375 C 630.277344 1236.375 628.023438 1238.628906 628.023438 1241.402344 C 628.023438 1244.183594 630.277344 1246.4375 633.058594 1246.4375 C 635.835938 1246.4375 638.089844 1244.183594 638.089844 1241.402344 Z M 712.050781 1220.390625 C 712.050781 1217.058594 709.351562 1214.359375 706.019531 1214.359375 C 702.6875 1214.359375 699.988281 1217.058594 699.988281 1220.390625 C 699.988281 1223.722656 702.6875 1226.425781 706.019531 1226.425781 C 709.351562 1226.425781 712.050781 1223.722656 712.050781 1220.390625 Z M 521.597656 1219.660156 C 523.433594 1219.660156 524.929688 1218.167969 524.929688 1216.328125 C 524.929688 1214.492188 523.433594 1213 521.597656 1213 C 519.757812 1213 518.265625 1214.492188 518.265625 1216.328125 C 518.265625 1218.167969 519.757812 1219.660156 521.597656 1219.660156 Z M 347.839844 1220.210938 C 347.839844 1218.382812 346.359375 1216.90625 344.53125 1216.90625 C 342.703125 1216.90625 341.21875 1218.382812 341.21875 1220.210938 C 341.21875 1222.042969 342.703125 1223.523438 344.53125 1223.523438 C 346.359375 1223.523438 347.839844 1222.042969 347.839844 1220.210938 Z M 81.726562 905.109375 C 81.726562 901.238281 78.589844 898.097656 74.71875 898.097656 C 70.851562 898.097656 67.707031 901.238281 67.707031 905.109375 C 67.707031 908.980469 70.851562 912.121094 74.71875 912.121094 C 78.589844 912.121094 81.726562 908.980469 81.726562 905.109375 Z M 760.285156 1260.402344 C 760.285156 1257.375 757.832031 1254.921875 754.808594 1254.921875 C 751.78125 1254.921875 749.328125 1257.375 749.328125 1260.402344 C 749.328125 1263.425781 751.78125 1265.882812 754.808594 1265.882812 C 757.832031 1265.882812 760.285156 1263.425781 760.285156 1260.402344 Z M 515.195312 1260.28125 C 518.78125 1260.28125 521.679688 1257.375 521.679688 1253.796875 C 521.679688 1250.21875 518.78125 1247.3125 515.195312 1247.3125 C 511.617188 1247.3125 508.71875 1250.21875 508.71875 1253.796875 C 508.71875 1257.375 511.617188 1260.28125 515.195312 1260.28125 Z M 550.738281 1218.089844 C 553.824219 1218.089844 556.316406 1215.589844 556.316406 1212.507812 C 556.316406 1209.421875 553.824219 1206.929688 550.738281 1206.929688 C 547.660156 1206.929688 545.160156 1209.421875 545.160156 1212.507812 C 545.160156 1215.589844 547.660156 1218.089844 550.738281 1218.089844 Z M 142.3125 1255.4375 C 142.3125 1252.351562 139.8125 1249.851562 136.726562 1249.851562 C 133.640625 1249.851562 131.148438 1252.351562 131.148438 1255.4375 C 131.148438 1258.527344 133.640625 1261.027344 136.726562 1261.027344 C 139.8125 1261.027344 142.3125 1258.527344 142.3125 1255.4375 Z M 399.640625 1146.078125 C 399.640625 1143.984375 397.941406 1142.289062 395.84375 1142.289062 C 393.75 1142.289062 392.046875 1143.984375 392.046875 1146.078125 C 392.046875 1148.179688 393.75 1149.878906 395.84375 1149.878906 C 397.941406 1149.878906 399.640625 1148.179688 399.640625 1146.078125 Z M 249.488281 1163.179688 C 249.488281 1159.835938 246.773438 1157.121094 243.429688 1157.121094 C 240.085938 1157.121094 237.378906 1159.835938 237.378906 1163.179688 C 237.378906 1166.527344 240.085938 1169.242188 243.429688 1169.242188 C 246.773438 1169.242188 249.488281 1166.527344 249.488281 1163.179688 Z M 390.777344 1160.964844 C 390.777344 1163.765625 393.046875 1166.035156 395.84375 1166.035156 C 398.644531 1166.035156 400.917969 1163.765625 400.917969 1160.964844 C 400.917969 1158.164062 398.644531 1155.898438 395.84375 1155.898438 C 393.046875 1155.898438 390.777344 1158.164062 390.777344 1160.964844 Z M 243.558594 1139.941406 C 243.558594 1136.160156 240.492188 1133.089844 236.707031 1133.089844 C 232.933594 1133.089844 229.867188 1136.160156 229.867188 1139.941406 C 229.867188 1143.722656 232.933594 1146.789062 236.707031 1146.789062 C 240.492188 1146.789062 243.558594 1143.722656 243.558594 1139.941406 Z M 375.128906 1191.410156 C 375.128906 1187.511719 371.96875 1184.351562 368.074219 1184.351562 C 364.175781 1184.351562 361.011719 1187.511719 361.011719 1191.410156 C 361.011719 1195.316406 364.175781 1198.472656 368.074219 1198.472656 C 371.96875 1198.472656 375.128906 1195.316406 375.128906 1191.410156 Z M 367.960938 1168.867188 C 367.960938 1165.867188 365.535156 1163.433594 362.535156 1163.433594 C 359.535156 1163.433594 357.109375 1165.867188 357.109375 1168.867188 C 357.109375 1171.867188 359.535156 1174.296875 362.535156 1174.296875 C 365.535156 1174.296875 367.960938 1171.867188 367.960938 1168.867188 Z M 338.148438 1184.984375 C 338.148438 1181.433594 335.261719 1178.550781 331.71875 1178.550781 C 328.167969 1178.550781 325.289062 1181.433594 325.289062 1184.984375 C 325.289062 1188.535156 328.167969 1191.410156 331.71875 1191.410156 C 335.261719 1191.410156 338.148438 1188.535156 338.148438 1184.984375 Z M 486.460938 1194.621094 C 486.460938 1190.3125 482.96875 1186.8125 478.65625 1186.8125 C 474.347656 1186.8125 470.847656 1190.3125 470.847656 1194.621094 C 470.847656 1198.933594 474.347656 1202.433594 478.65625 1202.433594 C 482.96875 1202.433594 486.460938 1198.933594 486.460938 1194.621094 Z M 438.175781 1170.921875 C 438.175781 1167.695312 435.5625 1165.082031 432.347656 1165.082031 C 429.121094 1165.082031 426.507812 1167.695312 426.507812 1170.921875 C 426.507812 1174.140625 429.121094 1176.757812 432.347656 1176.757812 C 435.5625 1176.757812 438.175781 1174.140625 438.175781 1170.921875 Z M 451.820312 1185.296875 C 451.820312 1189.601562 455.3125 1193.09375 459.621094 1193.09375 C 463.921875 1193.09375 467.410156 1189.601562 467.410156 1185.296875 C 467.410156 1180.988281 463.921875 1177.496094 459.621094 1177.496094 C 455.3125 1177.496094 451.820312 1180.988281 451.820312 1185.296875 Z M 414.15625 1096.496094 C 414.15625 1098.9375 416.128906 1100.921875 418.578125 1100.921875 C 421.011719 1100.921875 422.992188 1098.9375 422.992188 1096.496094 C 422.992188 1094.054688 421.011719 1092.082031 418.578125 1092.082031 C 416.128906 1092.082031 414.15625 1094.054688 414.15625 1096.496094 Z M 267.824219 1020.488281 C 267.824219 1024.082031 270.730469 1026.988281 274.3125 1026.988281 C 277.898438 1026.988281 280.804688 1024.082031 280.804688 1020.488281 C 280.804688 1016.910156 277.898438 1014.003906 274.3125 1014.003906 C 270.730469 1014.003906 267.824219 1016.910156 267.824219 1020.488281 Z M 232.753906 1023.375 C 229.925781 1023.375 227.632812 1025.664062 227.632812 1028.492188 C 227.632812 1031.324219 229.925781 1033.613281 232.753906 1033.613281 C 235.578125 1033.613281 237.871094 1031.324219 237.871094 1028.492188 C 237.871094 1025.664062 235.578125 1023.375 232.753906 1023.375 Z M 21.53125 522.910156 C 21.53125 520.023438 19.191406 517.683594 16.3125 517.683594 C 13.417969 517.683594 11.085938 520.023438 11.085938 522.910156 C 11.085938 525.800781 13.417969 528.140625 16.3125 528.140625 C 19.191406 528.140625 21.53125 525.800781 21.53125 522.910156 Z M 292.363281 1038.988281 C 292.363281 1042.910156 295.542969 1046.089844 299.472656 1046.089844 C 303.394531 1046.089844 306.578125 1042.910156 306.578125 1038.988281 C 306.578125 1035.054688 303.394531 1031.875 299.472656 1031.875 C 295.542969 1031.875 292.363281 1035.054688 292.363281 1038.988281 Z M 287.570312 1054.519531 C 287.570312 1057.519531 290.011719 1059.960938 293.011719 1059.960938 C 296.023438 1059.960938 298.457031 1057.519531 298.457031 1054.519531 C 298.457031 1051.511719 296.023438 1049.070312 293.011719 1049.070312 C 290.011719 1049.070312 287.570312 1051.511719 287.570312 1054.519531 Z M 113.300781 496.113281 C 113.300781 493.898438 111.5 492.09375 109.285156 492.09375 C 107.066406 492.09375 105.269531 493.898438 105.269531 496.113281 C 105.269531 498.335938 107.066406 500.136719 109.285156 500.136719 C 111.5 500.136719 113.300781 498.335938 113.300781 496.113281 Z M 148.367188 877.066406 C 148.367188 879.007812 149.945312 880.589844 151.890625 880.589844 C 153.839844 880.589844 155.414062 879.007812 155.414062 877.066406 C 155.414062 875.117188 153.839844 873.535156 151.890625 873.535156 C 149.945312 873.535156 148.367188 875.117188 148.367188 877.066406 Z M 176.378906 957.796875 C 176.378906 960.738281 178.765625 963.125 181.703125 963.125 C 184.644531 963.125 187.03125 960.738281 187.03125 957.796875 C 187.03125 954.851562 184.644531 952.46875 181.703125 952.46875 C 178.765625 952.46875 176.378906 954.851562 176.378906 957.796875 Z M 178.984375 1027.820312 C 175.679688 1027.820312 173.007812 1030.5 173.007812 1033.800781 C 173.007812 1037.105469 175.679688 1039.777344 178.984375 1039.777344 C 182.289062 1039.777344 184.960938 1037.105469 184.960938 1033.800781 C 184.960938 1030.5 182.289062 1027.820312 178.984375 1027.820312 Z M 706.113281 1255.101562 C 706.113281 1258.085938 708.53125 1260.515625 711.519531 1260.515625 C 714.511719 1260.515625 716.929688 1258.085938 716.929688 1255.101562 C 716.929688 1252.113281 714.511719 1249.683594 711.519531 1249.683594 C 708.53125 1249.683594 706.113281 1252.113281 706.113281 1255.101562 Z M 805.117188 1260.28125 C 805.117188 1262.75 807.121094 1264.746094 809.585938 1264.746094 C 812.054688 1264.746094 814.054688 1262.75 814.054688 1260.28125 C 814.054688 1257.808594 812.054688 1255.8125 809.585938 1255.8125 C 807.121094 1255.8125 805.117188 1257.808594 805.117188 1260.28125 Z M 550.738281 1251.675781 C 548.324219 1251.675781 546.363281 1253.636719 546.363281 1256.050781 C 546.363281 1258.464844 548.324219 1260.429688 550.738281 1260.429688 C 553.152344 1260.429688 555.113281 1258.464844 555.113281 1256.050781 C 555.113281 1253.636719 553.152344 1251.675781 550.738281 1251.675781 Z M 171.785156 911.347656 C 175.160156 911.347656 177.894531 908.613281 177.894531 905.242188 C 177.894531 901.863281 175.160156 899.128906 171.785156 899.128906 C 168.414062 899.128906 165.679688 901.863281 165.679688 905.242188 C 165.679688 908.613281 168.414062 911.347656 171.785156 911.347656 Z M 756.03125 1212.507812 C 756.03125 1214.898438 757.964844 1216.832031 760.351562 1216.832031 C 762.738281 1216.832031 764.675781 1214.898438 764.675781 1212.507812 C 764.675781 1210.121094 762.738281 1208.1875 760.351562 1208.1875 C 757.964844 1208.1875 756.03125 1210.121094 756.03125 1212.507812 Z M 347.921875 1097.195312 C 345.820312 1097.195312 344.117188 1098.898438 344.117188 1101 C 344.117188 1103.109375 345.820312 1104.8125 347.921875 1104.8125 C 350.027344 1104.8125 351.730469 1103.109375 351.730469 1101 C 351.730469 1098.898438 350.027344 1097.195312 347.921875 1097.195312 Z M 81.773438 840.167969 C 81.773438 836.5625 78.847656 833.644531 75.253906 833.644531 C 71.648438 833.644531 68.730469 836.5625 68.730469 840.167969 C 68.730469 843.769531 71.648438 846.6875 75.253906 846.6875 C 78.847656 846.6875 81.773438 843.769531 81.773438 840.167969 Z M 102.121094 822.164062 C 102.121094 819.589844 100.03125 817.5 97.464844 817.5 C 94.890625 817.5 92.804688 819.589844 92.804688 822.164062 C 92.804688 824.738281 94.890625 826.828125 97.464844 826.828125 C 100.03125 826.828125 102.121094 824.738281 102.121094 822.164062 Z M 44.496094 839.117188 C 44.496094 837.355469 43.074219 835.933594 41.3125 835.933594 C 39.554688 835.933594 38.132812 837.355469 38.132812 839.117188 C 38.132812 840.875 39.554688 842.296875 41.3125 842.296875 C 43.074219 842.296875 44.496094 840.875 44.496094 839.117188 Z M 78.097656 865.253906 C 80.757812 865.253906 82.925781 863.089844 82.925781 860.421875 C 82.925781 857.757812 80.757812 855.59375 78.097656 855.59375 C 75.425781 855.59375 73.265625 857.757812 73.265625 860.421875 C 73.265625 863.089844 75.425781 865.253906 78.097656 865.253906 Z M 127.65625 904.304688 C 130.714844 904.304688 133.195312 901.824219 133.195312 898.765625 C 133.195312 895.710938 130.714844 893.230469 127.65625 893.230469 C 124.605469 893.230469 122.125 895.710938 122.125 898.765625 C 122.125 901.824219 124.605469 904.304688 127.65625 904.304688 Z M 38.996094 866.222656 C 38.996094 863.511719 36.789062 861.300781 34.078125 861.300781 C 31.359375 861.300781 29.15625 863.511719 29.15625 866.222656 C 29.15625 868.945312 31.359375 871.144531 34.078125 871.144531 C 36.789062 871.144531 38.996094 868.945312 38.996094 866.222656 Z M 28.882812 796.5625 C 28.882812 794.214844 26.984375 792.3125 24.636719 792.3125 C 22.296875 792.3125 20.394531 794.214844 20.394531 796.5625 C 20.394531 798.902344 22.296875 800.804688 24.636719 800.804688 C 26.984375 800.804688 28.882812 798.902344 28.882812 796.5625 Z M 37.652344 550.761719 C 39.628906 550.761719 41.230469 549.160156 41.230469 547.183594 C 41.230469 545.207031 39.628906 543.605469 37.652344 543.605469 C 35.679688 543.605469 34.078125 545.207031 34.078125 547.183594 C 34.078125 549.160156 35.679688 550.761719 37.652344 550.761719 Z M 123.972656 876.78125 C 123.972656 874.390625 122.039062 872.464844 119.660156 872.464844 C 117.277344 872.464844 115.34375 874.390625 115.34375 876.78125 C 115.34375 879.160156 117.277344 881.097656 119.660156 881.097656 C 122.039062 881.097656 123.972656 879.160156 123.972656 876.78125 Z M 176.671875 888.367188 C 176.671875 886.585938 175.230469 885.148438 173.453125 885.148438 C 171.679688 885.148438 170.234375 886.585938 170.234375 888.367188 C 170.234375 890.144531 171.679688 891.585938 173.453125 891.585938 C 175.230469 891.585938 176.671875 890.144531 176.671875 888.367188 Z M 72.039062 620.503906 C 74.421875 620.503906 76.355469 618.570312 76.355469 616.179688 C 76.355469 613.792969 74.421875 611.859375 72.039062 611.859375 C 69.652344 611.859375 67.71875 613.792969 67.71875 616.179688 C 67.71875 618.570312 69.652344 620.503906 72.039062 620.503906 Z M 24.164062 552.710938 C 24.164062 548.941406 21.113281 545.894531 17.347656 545.894531 C 13.585938 545.894531 10.535156 548.941406 10.535156 552.710938 C 10.535156 556.46875 13.585938 559.523438 17.347656 559.523438 C 21.113281 559.523438 24.164062 556.46875 24.164062 552.710938 Z M 44.640625 620.503906 C 44.640625 618.664062 43.152344 617.171875 41.3125 617.171875 C 39.476562 617.171875 37.980469 618.664062 37.980469 620.503906 C 37.980469 622.347656 39.476562 623.835938 41.3125 623.835938 C 43.152344 623.835938 44.640625 622.347656 44.640625 620.503906 Z M 92.238281 694.039062 C 95.164062 694.039062 97.53125 691.671875 97.53125 688.746094 C 97.53125 685.824219 95.164062 683.457031 92.238281 683.457031 C 89.320312 683.457031 86.953125 685.824219 86.953125 688.746094 C 86.953125 691.671875 89.320312 694.039062 92.238281 694.039062 Z M 66.402344 673.585938 C 66.402344 671.542969 64.742188 669.886719 62.699219 669.886719 C 60.660156 669.886719 59.003906 671.542969 59.003906 673.585938 C 59.003906 675.628906 60.660156 677.285156 62.699219 677.285156 C 64.742188 677.285156 66.402344 675.628906 66.402344 673.585938 Z M 55.890625 780.296875 C 55.890625 777.058594 53.273438 774.4375 50.035156 774.4375 C 46.796875 774.4375 44.175781 777.058594 44.175781 780.296875 C 44.175781 783.539062 46.796875 786.15625 50.035156 786.15625 C 53.273438 786.15625 55.890625 783.539062 55.890625 780.296875 Z M 21.230469 732.460938 C 21.230469 730.417969 19.582031 728.761719 17.542969 728.761719 C 15.5 728.761719 13.851562 730.417969 13.851562 732.460938 C 13.851562 734.5 15.5 736.152344 17.542969 736.152344 C 19.582031 736.152344 21.230469 734.5 21.230469 732.460938 Z M 34.078125 700.191406 C 30.671875 700.191406 27.921875 697.4375 27.921875 694.039062 C 27.921875 690.632812 30.671875 687.878906 34.078125 687.878906 C 37.472656 687.878906 40.234375 690.632812 40.234375 694.039062 C 40.234375 697.4375 37.472656 700.191406 34.078125 700.191406 " fill-opacity="1" fill-rule="nonzero"/><g clip-path="url(#id2)"><path fill="#c2baaf" d="M 22.347656 906.554688 C 22.347656 904.675781 20.832031 903.160156 18.957031 903.160156 C 17.082031 903.160156 15.566406 904.675781 15.566406 906.554688 C 15.566406 908.429688 17.082031 909.945312 18.957031 909.945312 C 20.832031 909.945312 22.347656 908.429688 22.347656 906.554688 Z M 15.785156 928.21875 C 15.785156 925.988281 13.984375 924.191406 11.765625 924.191406 C 9.542969 924.191406 7.742188 925.988281 7.742188 928.21875 C 7.742188 930.433594 9.542969 932.242188 11.765625 932.242188 C 13.984375 932.242188 15.785156 930.433594 15.785156 928.21875 Z M 44.058594 952.449219 C 44.058594 949.929688 42.007812 947.878906 39.480469 947.878906 C 36.957031 947.878906 34.90625 949.929688 34.90625 952.449219 C 34.90625 954.976562 36.957031 957.027344 39.480469 957.027344 C 42.007812 957.027344 44.058594 954.976562 44.058594 952.449219 Z M 96.6875 973.0625 C 96.6875 969.023438 93.417969 965.753906 89.378906 965.753906 C 85.34375 965.753906 82.074219 969.023438 82.074219 973.0625 C 82.074219 977.101562 85.34375 980.375 89.378906 980.375 C 93.417969 980.375 96.6875 977.101562 96.6875 973.0625 Z M 147.683594 985.761719 C 147.683594 983.84375 146.132812 982.296875 144.226562 982.296875 C 142.316406 982.296875 140.769531 983.84375 140.769531 985.761719 C 140.769531 987.671875 142.316406 989.21875 144.226562 989.21875 C 146.132812 989.21875 147.683594 987.671875 147.683594 985.761719 Z M 53.675781 1029.457031 C 53.675781 1026.304688 51.125 1023.75 47.964844 1023.75 C 44.820312 1023.75 42.261719 1026.304688 42.261719 1029.457031 C 42.261719 1032.609375 44.820312 1035.167969 47.964844 1035.167969 C 51.125 1035.167969 53.675781 1032.609375 53.675781 1029.457031 Z M 181.097656 1051.199219 C 181.097656 1049.164062 179.449219 1047.507812 177.410156 1047.507812 C 175.375 1047.507812 173.71875 1049.164062 173.71875 1051.199219 C 173.71875 1053.242188 175.375 1054.890625 177.410156 1054.890625 C 179.449219 1054.890625 181.097656 1053.242188 181.097656 1051.199219 Z M 48.027344 1080.804688 C 48.027344 1078.011719 45.757812 1075.738281 42.960938 1075.738281 C 40.167969 1075.738281 37.898438 1078.011719 37.898438 1080.804688 C 37.898438 1083.605469 40.167969 1085.875 42.960938 1085.875 C 45.757812 1085.875 48.027344 1083.605469 48.027344 1080.804688 Z M 93.847656 1098.328125 C 93.847656 1095.671875 91.695312 1093.519531 89.035156 1093.519531 C 86.375 1093.519531 84.222656 1095.671875 84.222656 1098.328125 C 84.222656 1100.996094 86.375 1103.144531 89.035156 1103.144531 C 91.695312 1103.144531 93.847656 1100.996094 93.847656 1098.328125 Z M 25.488281 1139.914062 C 25.488281 1136.699219 22.886719 1134.105469 19.683594 1134.105469 C 16.476562 1134.105469 13.878906 1136.699219 13.878906 1139.914062 C 13.878906 1143.121094 16.476562 1145.71875 19.683594 1145.71875 C 22.886719 1145.71875 25.488281 1143.121094 25.488281 1139.914062 Z M 70.644531 1118.410156 C 70.644531 1114.65625 67.601562 1111.609375 63.851562 1111.609375 C 60.09375 1111.609375 57.054688 1114.65625 57.054688 1118.410156 C 57.054688 1122.160156 60.09375 1125.207031 63.851562 1125.207031 C 67.601562 1125.207031 70.644531 1122.160156 70.644531 1118.410156 Z M 127.226562 1196.617188 C 127.226562 1192.980469 124.273438 1190.035156 120.636719 1190.035156 C 117 1190.035156 114.054688 1192.980469 114.054688 1196.617188 C 114.054688 1200.257812 117 1203.210938 120.636719 1203.210938 C 124.273438 1203.210938 127.226562 1200.257812 127.226562 1196.617188 Z M 114.539062 1121.300781 C 114.539062 1117.804688 111.707031 1114.960938 108.210938 1114.960938 C 104.710938 1114.960938 101.878906 1117.804688 101.878906 1121.300781 C 101.878906 1124.800781 104.710938 1127.632812 108.210938 1127.632812 C 111.707031 1127.632812 114.539062 1124.800781 114.539062 1121.300781 Z M 145.695312 1100.921875 C 145.695312 1097.109375 142.609375 1094.023438 138.800781 1094.023438 C 134.992188 1094.023438 131.90625 1097.109375 131.90625 1100.921875 C 131.90625 1104.734375 134.992188 1107.820312 138.800781 1107.820312 C 142.609375 1107.820312 145.695312 1104.734375 145.695312 1100.921875 Z M 144.789062 1168.03125 C 144.789062 1165.800781 142.988281 1163.992188 140.753906 1163.992188 C 138.535156 1163.992188 136.726562 1165.800781 136.726562 1168.03125 C 136.726562 1170.25 138.535156 1172.0625 140.753906 1172.0625 C 142.988281 1172.0625 144.789062 1170.25 144.789062 1168.03125 Z M 188.652344 1099.617188 C 191.53125 1099.617188 193.871094 1097.28125 193.871094 1094.394531 C 193.871094 1091.507812 191.53125 1089.175781 188.652344 1089.175781 C 185.765625 1089.175781 183.425781 1091.507812 183.425781 1094.394531 C 183.425781 1097.28125 185.765625 1099.617188 188.652344 1099.617188 Z M 212.027344 1118.242188 C 214.941406 1118.242188 217.300781 1115.878906 217.300781 1112.96875 C 217.300781 1110.054688 214.941406 1107.6875 212.027344 1107.6875 C 209.109375 1107.6875 206.75 1110.054688 206.75 1112.96875 C 206.75 1115.878906 209.109375 1118.242188 212.027344 1118.242188 Z M 218.539062 1202.492188 C 218.539062 1199.636719 216.222656 1197.324219 213.371094 1197.324219 C 210.519531 1197.324219 208.207031 1199.636719 208.207031 1202.492188 C 208.207031 1205.351562 210.519531 1207.660156 213.371094 1207.660156 C 216.222656 1207.660156 218.539062 1205.351562 218.539062 1202.492188 Z M 253.644531 1182.023438 C 253.644531 1178.898438 251.109375 1176.363281 247.992188 1176.363281 C 244.867188 1176.363281 242.339844 1178.898438 242.339844 1182.023438 C 242.339844 1185.144531 244.867188 1187.679688 247.992188 1187.679688 C 251.109375 1187.679688 253.644531 1185.144531 253.644531 1182.023438 Z M 264.347656 1226.429688 C 264.347656 1222.621094 261.257812 1219.527344 257.445312 1219.527344 C 253.636719 1219.527344 250.550781 1222.621094 250.550781 1226.429688 C 250.550781 1230.242188 253.636719 1233.328125 257.445312 1233.328125 C 261.257812 1233.328125 264.347656 1230.242188 264.347656 1226.429688 Z M 316.605469 1149.824219 C 316.605469 1145.773438 313.320312 1142.492188 309.273438 1142.492188 C 305.222656 1142.492188 301.945312 1145.773438 301.945312 1149.824219 C 301.945312 1153.875 305.222656 1157.160156 309.273438 1157.160156 C 313.320312 1157.160156 316.605469 1153.875 316.605469 1149.824219 Z M 329.898438 1151.621094 C 329.898438 1149.863281 328.480469 1148.445312 326.726562 1148.445312 C 324.976562 1148.445312 323.554688 1149.863281 323.554688 1151.621094 C 323.554688 1153.371094 324.976562 1154.792969 326.726562 1154.792969 C 328.480469 1154.792969 329.898438 1153.371094 329.898438 1151.621094 Z M 269.734375 1252.796875 C 269.734375 1248.855469 266.542969 1245.660156 262.605469 1245.660156 C 258.664062 1245.660156 255.472656 1248.855469 255.472656 1252.796875 C 255.472656 1256.734375 258.664062 1259.929688 262.605469 1259.929688 C 266.542969 1259.929688 269.734375 1256.734375 269.734375 1252.796875 Z M 379.003906 1168.34375 C 379.003906 1164.824219 376.152344 1161.96875 372.628906 1161.96875 C 369.109375 1161.96875 366.257812 1164.824219 366.257812 1168.34375 C 366.257812 1171.867188 369.109375 1174.722656 372.628906 1174.722656 C 376.152344 1174.722656 379.003906 1171.867188 379.003906 1168.34375 Z M 386.039062 1129.683594 C 386.039062 1127.886719 384.574219 1126.421875 382.78125 1126.421875 C 380.984375 1126.421875 379.53125 1127.886719 379.53125 1129.683594 C 379.53125 1131.480469 380.984375 1132.933594 382.78125 1132.933594 C 384.574219 1132.933594 386.039062 1131.480469 386.039062 1129.683594 Z M 402.554688 1211.964844 C 402.554688 1209.953125 400.929688 1208.324219 398.921875 1208.324219 C 396.914062 1208.324219 395.285156 1209.953125 395.285156 1211.964844 C 395.285156 1213.964844 396.914062 1215.59375 398.921875 1215.59375 C 400.929688 1215.59375 402.554688 1213.964844 402.554688 1211.964844 Z M 418.644531 1237.171875 C 418.644531 1234.046875 416.109375 1231.511719 412.984375 1231.511719 C 409.859375 1231.511719 407.328125 1234.046875 407.328125 1237.171875 C 407.328125 1240.300781 409.859375 1242.835938 412.984375 1242.835938 C 416.109375 1242.835938 418.644531 1240.300781 418.644531 1237.171875 Z M 737.050781 1160.898438 C 737.050781 1164.777344 740.195312 1167.917969 744.0625 1167.917969 C 747.941406 1167.917969 751.078125 1164.777344 751.078125 1160.898438 C 751.078125 1157.019531 747.941406 1153.882812 744.0625 1153.882812 C 740.195312 1153.882812 737.050781 1157.019531 737.050781 1160.898438 Z M 621.695312 1182.222656 C 621.695312 1184.699219 623.703125 1186.707031 626.175781 1186.707031 C 628.648438 1186.707031 630.65625 1184.699219 630.65625 1182.222656 C 630.65625 1179.75 628.648438 1177.742188 626.175781 1177.742188 C 623.703125 1177.742188 621.695312 1179.75 621.695312 1182.222656 Z M 664.058594 1228.140625 C 664.058594 1230.875 666.28125 1233.097656 669.011719 1233.097656 C 671.753906 1233.097656 673.964844 1230.875 673.964844 1228.140625 C 673.964844 1225.398438 671.753906 1223.179688 669.011719 1223.179688 C 666.28125 1223.179688 664.058594 1225.398438 664.058594 1228.140625 Z M 637.058594 1246.074219 C 634.707031 1246.074219 632.796875 1247.984375 632.796875 1250.332031 C 632.796875 1252.683594 634.707031 1254.59375 637.058594 1254.59375 C 639.40625 1254.59375 641.316406 1252.683594 641.316406 1250.332031 C 641.316406 1247.984375 639.40625 1246.074219 637.058594 1246.074219 Z M 621.347656 1238.675781 C 621.347656 1235.964844 619.148438 1233.761719 616.433594 1233.761719 C 613.722656 1233.761719 611.523438 1235.964844 611.523438 1238.675781 C 611.523438 1241.390625 613.722656 1243.59375 616.433594 1243.59375 C 619.148438 1243.59375 621.347656 1241.390625 621.347656 1238.675781 Z M 666.992188 1143.105469 C 666.992188 1146.125 669.445312 1148.582031 672.464844 1148.582031 C 675.480469 1148.582031 677.929688 1146.125 677.929688 1143.105469 C 677.929688 1140.085938 675.480469 1137.636719 672.464844 1137.636719 C 669.445312 1137.636719 666.992188 1140.085938 666.992188 1143.105469 Z M 570.574219 1161.722656 C 566.628906 1161.722656 563.433594 1164.921875 563.433594 1168.867188 C 563.433594 1172.8125 566.628906 1176.003906 570.574219 1176.003906 C 574.515625 1176.003906 577.714844 1172.8125 577.714844 1168.867188 C 577.714844 1164.921875 574.515625 1161.722656 570.574219 1161.722656 Z M 494.238281 1225.886719 C 490.257812 1225.886719 487.03125 1229.117188 487.03125 1233.097656 C 487.03125 1237.082031 490.257812 1240.300781 494.238281 1240.300781 C 498.222656 1240.300781 501.445312 1237.082031 501.445312 1233.097656 C 501.445312 1229.117188 498.222656 1225.886719 494.238281 1225.886719 Z M 479.445312 1261.671875 C 479.445312 1257.433594 476.015625 1253.996094 471.773438 1253.996094 C 467.539062 1253.996094 464.101562 1257.433594 464.101562 1261.671875 C 464.101562 1265.910156 467.539062 1269.347656 471.773438 1269.347656 C 476.015625 1269.347656 479.445312 1265.910156 479.445312 1261.671875 Z M 508.234375 1144.574219 C 505.023438 1144.574219 502.417969 1147.191406 502.417969 1150.402344 C 502.417969 1153.621094 505.023438 1156.230469 508.234375 1156.230469 C 511.453125 1156.230469 514.058594 1153.621094 514.058594 1150.402344 C 514.058594 1147.191406 511.453125 1144.574219 508.234375 1144.574219 Z M 460.644531 1141.570312 C 460.644531 1145.839844 464.101562 1149.296875 468.363281 1149.296875 C 472.628906 1149.296875 476.089844 1145.839844 476.089844 1141.570312 C 476.089844 1137.304688 472.628906 1133.847656 468.363281 1133.847656 C 464.101562 1133.847656 460.644531 1137.304688 460.644531 1141.570312 Z M 453.929688 1166.015625 C 456.753906 1166.015625 459.039062 1163.71875 459.039062 1160.898438 C 459.039062 1158.070312 456.753906 1155.785156 453.929688 1155.785156 C 451.109375 1155.785156 448.816406 1158.070312 448.816406 1160.898438 C 448.816406 1163.71875 451.109375 1166.015625 453.929688 1166.015625 Z M 412.445312 1173.378906 C 410.558594 1173.378906 409.023438 1174.90625 409.023438 1176.796875 C 409.023438 1178.691406 410.558594 1180.222656 412.445312 1180.222656 C 414.335938 1180.222656 415.871094 1178.691406 415.871094 1176.796875 C 415.871094 1174.90625 414.335938 1173.378906 412.445312 1173.378906 Z M 411.164062 1135.667969 C 408.757812 1135.667969 406.800781 1137.617188 406.800781 1140.027344 C 406.800781 1142.433594 408.757812 1144.390625 411.164062 1144.390625 C 413.570312 1144.390625 415.523438 1142.433594 415.523438 1140.027344 C 415.523438 1137.617188 413.570312 1135.667969 411.164062 1135.667969 Z M 350.601562 1111.484375 C 350.601562 1113.925781 352.582031 1115.914062 355.027344 1115.914062 C 357.476562 1115.914062 359.457031 1113.925781 359.457031 1111.484375 C 359.457031 1109.035156 357.476562 1107.046875 355.027344 1107.046875 C 352.582031 1107.046875 350.601562 1109.035156 350.601562 1111.484375 Z M 281.015625 1079.761719 C 281.015625 1075.785156 277.792969 1072.550781 273.816406 1072.550781 C 269.832031 1072.550781 266.609375 1075.785156 266.609375 1079.761719 C 266.609375 1083.746094 269.832031 1086.972656 273.816406 1086.972656 C 277.792969 1086.972656 281.015625 1083.746094 281.015625 1079.761719 Z M 356.21875 1012.167969 C 356.21875 1010.144531 354.578125 1008.503906 352.550781 1008.503906 C 350.519531 1008.503906 348.878906 1010.144531 348.878906 1012.167969 C 348.878906 1014.195312 350.519531 1015.839844 352.550781 1015.839844 C 354.578125 1015.839844 356.21875 1014.195312 356.21875 1012.167969 Z M 350.367188 992.113281 C 350.367188 989.519531 348.261719 987.410156 345.667969 987.410156 C 343.066406 987.410156 340.960938 989.519531 340.960938 992.113281 C 340.960938 994.714844 343.066406 996.824219 345.667969 996.824219 C 348.261719 996.824219 350.367188 994.714844 350.367188 992.113281 Z M 270.472656 1042.132812 C 270.472656 1038.949219 267.890625 1036.367188 264.699219 1036.367188 C 261.515625 1036.367188 258.933594 1038.949219 258.933594 1042.132812 C 258.933594 1045.328125 261.515625 1047.90625 264.699219 1047.90625 C 267.890625 1047.90625 270.472656 1045.328125 270.472656 1042.132812 Z M 245.34375 1039.726562 C 245.34375 1036.308594 242.574219 1033.53125 239.15625 1033.53125 C 235.738281 1033.53125 232.964844 1036.308594 232.964844 1039.726562 C 232.964844 1043.152344 235.738281 1045.925781 239.15625 1045.925781 C 242.574219 1045.925781 245.34375 1043.152344 245.34375 1039.726562 Z M 300.6875 950.199219 C 303.734375 950.199219 306.199219 947.734375 306.199219 944.6875 C 306.199219 941.640625 303.734375 939.171875 300.6875 939.171875 C 297.644531 939.171875 295.175781 941.640625 295.175781 944.6875 C 295.175781 947.734375 297.644531 950.199219 300.6875 950.199219 Z M 278.554688 929.433594 C 282.351562 929.433594 285.425781 926.363281 285.425781 922.5625 C 285.425781 918.773438 282.351562 915.691406 278.554688 915.691406 C 274.765625 915.691406 271.6875 918.773438 271.6875 922.5625 C 271.6875 926.363281 274.765625 929.433594 278.554688 929.433594 Z M 250.765625 909.085938 C 253.246094 909.085938 255.257812 907.078125 255.257812 904.589844 C 255.257812 902.109375 253.246094 900.101562 250.765625 900.101562 C 248.285156 900.101562 246.269531 902.109375 246.269531 904.589844 C 246.269531 907.078125 248.285156 909.085938 250.765625 909.085938 Z M 188.160156 925.390625 C 190.046875 925.390625 191.578125 923.859375 191.578125 921.972656 C 191.578125 920.082031 190.046875 918.558594 188.160156 918.558594 C 186.273438 918.558594 184.742188 920.082031 184.742188 921.972656 C 184.742188 923.859375 186.273438 925.390625 188.160156 925.390625 Z M 142 931.644531 C 144.863281 931.644531 147.191406 929.316406 147.191406 926.449219 C 147.191406 923.574219 144.863281 921.246094 142 921.246094 C 139.125 921.246094 136.800781 923.574219 136.800781 926.449219 C 136.800781 929.316406 139.125 931.644531 142 931.644531 Z M 105.78125 927.964844 C 105.78125 925.457031 103.753906 923.421875 101.242188 923.421875 C 98.742188 923.421875 96.707031 925.457031 96.707031 927.964844 C 96.707031 930.472656 98.742188 932.507812 101.242188 932.507812 C 103.753906 932.507812 105.78125 930.472656 105.78125 927.964844 Z M 110.714844 882.714844 C 110.714844 878.464844 107.273438 875.015625 103.023438 875.015625 C 98.773438 875.015625 95.332031 878.464844 95.332031 882.714844 C 95.332031 886.964844 98.773438 890.410156 103.023438 890.410156 C 107.273438 890.410156 110.714844 886.964844 110.714844 882.714844 Z M 135.820312 838.992188 C 139.523438 838.992188 142.53125 835.992188 142.53125 832.289062 C 142.53125 828.582031 139.523438 825.574219 135.820312 825.574219 C 132.117188 825.574219 129.113281 828.582031 129.113281 832.289062 C 129.113281 835.992188 132.117188 838.992188 135.820312 838.992188 Z M 145.070312 808.652344 C 145.070312 806.503906 143.328125 804.769531 141.179688 804.769531 C 139.039062 804.769531 137.296875 806.503906 137.296875 808.652344 C 137.296875 810.800781 139.039062 812.539062 141.179688 812.539062 C 143.328125 812.539062 145.070312 810.800781 145.070312 808.652344 Z M 112.484375 798.199219 C 112.484375 795.996094 110.695312 794.207031 108.488281 794.207031 C 106.289062 794.207031 104.5 795.996094 104.5 798.199219 C 104.5 800.40625 106.289062 802.195312 108.488281 802.195312 C 110.695312 802.195312 112.484375 800.40625 112.484375 798.199219 Z M 131.925781 763.257812 C 131.925781 760.988281 130.089844 759.144531 127.816406 759.144531 C 125.550781 759.144531 123.707031 760.988281 123.707031 763.257812 C 123.707031 765.523438 125.550781 767.367188 127.816406 767.367188 C 130.089844 767.367188 131.925781 765.523438 131.925781 763.257812 Z M 107.019531 748.648438 C 107.019531 745.714844 104.644531 743.339844 101.714844 743.339844 C 98.78125 743.339844 96.410156 745.714844 96.410156 748.648438 C 96.410156 751.582031 98.78125 753.957031 101.714844 753.957031 C 104.644531 753.957031 107.019531 751.582031 107.019531 748.648438 Z M 96.367188 731.128906 C 96.367188 728.273438 94.0625 725.96875 91.210938 725.96875 C 88.363281 725.96875 86.054688 728.273438 86.054688 731.128906 C 86.054688 733.976562 88.363281 736.285156 91.210938 736.285156 C 94.0625 736.285156 96.367188 733.976562 96.367188 731.128906 Z M 64.5625 695.535156 C 64.5625 692.683594 62.242188 690.367188 59.386719 690.367188 C 56.535156 690.367188 54.222656 692.683594 54.222656 695.535156 C 54.222656 698.390625 56.535156 700.703125 59.386719 700.703125 C 62.242188 700.703125 64.5625 698.390625 64.5625 695.535156 Z M 67.414062 666.660156 C 67.414062 664.039062 65.292969 661.917969 62.671875 661.917969 C 60.058594 661.917969 57.9375 664.039062 57.9375 666.660156 C 57.9375 669.273438 60.058594 671.398438 62.671875 671.398438 C 65.292969 671.398438 67.414062 669.273438 67.414062 666.660156 Z M 58.097656 545.699219 C 58.097656 541.824219 54.953125 538.683594 51.085938 538.683594 C 47.214844 538.683594 44.078125 541.824219 44.078125 545.699219 C 44.078125 549.570312 47.214844 552.710938 51.085938 552.710938 C 54.953125 552.710938 58.097656 549.570312 58.097656 545.699219 Z M 19.941406 841.890625 C 19.941406 838.800781 17.429688 836.285156 14.332031 836.285156 C 11.230469 836.285156 8.726562 838.800781 8.726562 841.890625 C 8.726562 844.992188 11.230469 847.507812 14.332031 847.507812 C 17.429688 847.507812 19.941406 844.992188 19.941406 841.890625 Z M 20.8125 465.523438 C 17.050781 465.523438 14.003906 462.46875 14.003906 458.710938 C 14.003906 454.945312 17.050781 451.898438 20.8125 451.898438 C 24.570312 451.898438 27.621094 454.945312 27.621094 458.710938 C 27.621094 462.46875 24.570312 465.523438 20.8125 465.523438 " fill-opacity="1" fill-rule="nonzero"/></g><g clip-path="url(#id3)"><path fill="#c2baaf" d="M 81.65625 953.320312 C 81.65625 950.519531 79.386719 948.253906 76.589844 948.253906 C 73.796875 948.253906 71.527344 950.519531 71.527344 953.320312 C 71.527344 956.113281 73.796875 958.382812 76.589844 958.382812 C 79.386719 958.382812 81.65625 956.113281 81.65625 953.320312 Z M 116.453125 914.074219 C 118.875 914.074219 120.828125 912.113281 120.828125 909.699219 C 120.828125 907.285156 118.875 905.324219 116.453125 905.324219 C 114.039062 905.324219 112.078125 907.285156 112.078125 909.699219 C 112.078125 912.113281 114.039062 914.074219 116.453125 914.074219 Z M 107.257812 950.367188 C 107.257812 951.996094 108.589844 953.320312 110.21875 953.320312 C 111.851562 953.320312 113.167969 951.996094 113.167969 950.367188 C 113.167969 948.730469 111.851562 947.40625 110.21875 947.40625 C 108.589844 947.40625 107.257812 948.730469 107.257812 950.367188 Z M 51.800781 918.558594 C 51.800781 915.234375 49.109375 912.53125 45.785156 912.53125 C 42.460938 912.53125 39.761719 915.234375 39.761719 918.558594 C 39.761719 921.886719 42.460938 924.578125 45.785156 924.578125 C 49.109375 924.578125 51.800781 921.886719 51.800781 918.558594 Z M 118.097656 978.363281 C 118.097656 975.671875 115.910156 973.496094 113.222656 973.496094 C 110.53125 973.496094 108.347656 975.671875 108.347656 978.363281 C 108.347656 981.058594 110.53125 983.234375 113.222656 983.234375 C 115.910156 983.234375 118.097656 981.058594 118.097656 978.363281 Z M 32.808594 1007.804688 C 32.808594 1004.066406 29.773438 1001.03125 26.046875 1001.03125 C 22.300781 1001.03125 19.277344 1004.066406 19.277344 1007.804688 C 19.277344 1011.542969 22.300781 1014.570312 26.046875 1014.570312 C 29.773438 1014.570312 32.808594 1011.542969 32.808594 1007.804688 Z M 94.425781 1028.492188 C 94.425781 1025.539062 92.035156 1023.144531 89.082031 1023.144531 C 86.128906 1023.144531 83.734375 1025.539062 83.734375 1028.492188 C 83.734375 1031.445312 86.128906 1033.839844 89.082031 1033.839844 C 92.035156 1033.839844 94.425781 1031.445312 94.425781 1028.492188 Z M 141.9375 1044.46875 C 141.9375 1040.910156 139.054688 1038.023438 135.496094 1038.023438 C 131.9375 1038.023438 129.054688 1040.910156 129.054688 1044.46875 C 129.054688 1048.027344 131.9375 1050.914062 135.496094 1050.914062 C 139.054688 1050.914062 141.9375 1048.027344 141.9375 1044.46875 Z M 82.285156 1063.976562 C 82.285156 1061.398438 80.191406 1059.300781 77.613281 1059.300781 C 75.03125 1059.300781 72.9375 1061.398438 72.9375 1063.976562 C 72.9375 1066.558594 75.03125 1068.652344 77.613281 1068.652344 C 80.191406 1068.652344 82.285156 1066.558594 82.285156 1063.976562 Z M 161.90625 1083.273438 C 161.90625 1081.339844 160.328125 1079.761719 158.394531 1079.761719 C 156.453125 1079.761719 154.882812 1081.339844 154.882812 1083.273438 C 154.882812 1085.214844 156.453125 1086.792969 158.394531 1086.792969 C 160.328125 1086.792969 161.90625 1085.214844 161.90625 1083.273438 Z M 87.214844 1100.089844 C 87.214844 1096.238281 84.09375 1093.117188 80.246094 1093.117188 C 76.394531 1093.117188 73.277344 1096.238281 73.277344 1100.089844 C 73.277344 1103.933594 76.394531 1107.0625 80.246094 1107.0625 C 84.09375 1107.0625 87.214844 1103.933594 87.214844 1100.089844 Z M 32.699219 1215.59375 C 32.699219 1211.917969 29.722656 1208.9375 26.046875 1208.9375 C 22.363281 1208.9375 19.382812 1211.917969 19.382812 1215.59375 C 19.382812 1219.273438 22.363281 1222.261719 26.046875 1222.261719 C 29.722656 1222.261719 32.699219 1219.273438 32.699219 1215.59375 Z M 113.507812 1136.382812 C 114.039062 1136.546875 114.59375 1136.667969 115.183594 1136.667969 C 118.195312 1136.667969 120.636719 1134.21875 120.636719 1131.210938 C 120.636719 1128.191406 118.195312 1125.75 115.183594 1125.75 C 112.164062 1125.75 109.726562 1128.191406 109.726562 1131.210938 C 109.726562 1131.253906 109.738281 1131.300781 109.738281 1131.347656 C 109.59375 1131.324219 109.441406 1131.300781 109.285156 1131.300781 C 106.90625 1131.300781 104.980469 1133.226562 104.980469 1135.601562 C 104.980469 1137.984375 106.90625 1139.914062 109.285156 1139.914062 C 111.394531 1139.914062 113.144531 1138.390625 113.507812 1136.382812 Z M 176.058594 1141.554688 C 176.058594 1138.921875 173.933594 1136.792969 171.300781 1136.792969 C 168.667969 1136.792969 166.539062 1138.921875 166.539062 1141.554688 C 166.539062 1144.191406 168.667969 1146.320312 171.300781 1146.320312 C 173.933594 1146.320312 176.058594 1144.191406 176.058594 1141.554688 Z M 206.3125 1167.464844 C 206.3125 1163.5 203.101562 1160.28125 199.128906 1160.28125 C 195.175781 1160.28125 191.957031 1163.5 191.957031 1167.464844 C 191.957031 1171.429688 195.175781 1174.640625 199.128906 1174.640625 C 203.101562 1174.640625 206.3125 1171.429688 206.3125 1167.464844 Z M 176.464844 1132.164062 C 178.792969 1132.164062 180.695312 1130.421875 180.988281 1128.171875 C 181.425781 1127.601562 181.699219 1126.894531 181.699219 1126.117188 C 181.699219 1124.253906 180.183594 1122.746094 178.320312 1122.746094 C 177.828125 1122.746094 177.363281 1122.859375 176.9375 1123.050781 C 176.777344 1123.03125 176.625 1122.996094 176.464844 1122.996094 C 173.933594 1122.996094 171.878906 1125.054688 171.878906 1127.585938 C 171.878906 1130.113281 173.933594 1132.164062 176.464844 1132.164062 Z M 95.921875 1158.117188 C 95.921875 1156.082031 94.273438 1154.433594 92.238281 1154.433594 C 90.210938 1154.433594 88.5625 1156.082031 88.5625 1158.117188 C 88.5625 1160.148438 90.210938 1161.796875 92.238281 1161.796875 C 94.273438 1161.796875 95.921875 1160.148438 95.921875 1158.117188 Z M 152.449219 1129.582031 C 150.125 1129.582031 148.242188 1131.472656 148.242188 1133.792969 C 148.242188 1136.121094 150.125 1138.011719 152.449219 1138.011719 C 154.777344 1138.011719 156.664062 1136.121094 156.664062 1133.792969 C 156.664062 1131.472656 154.777344 1129.582031 152.449219 1129.582031 Z M 199.503906 1250.835938 C 199.503906 1248.289062 197.441406 1246.226562 194.902344 1246.226562 C 192.355469 1246.226562 190.292969 1248.289062 190.292969 1250.835938 C 190.292969 1253.378906 192.355469 1255.4375 194.902344 1255.4375 C 197.441406 1255.4375 199.503906 1253.378906 199.503906 1250.835938 Z M 208.207031 1005.429688 C 211.78125 1005.429688 214.6875 1002.523438 214.6875 998.9375 C 214.6875 995.359375 211.78125 992.453125 208.207031 992.453125 C 204.621094 992.453125 201.722656 995.359375 201.722656 998.9375 C 201.722656 1002.523438 204.621094 1005.429688 208.207031 1005.429688 Z M 218.398438 1142.375 C 218.398438 1138.636719 215.375 1135.609375 211.636719 1135.609375 C 207.898438 1135.609375 204.875 1138.636719 204.875 1142.375 C 204.875 1146.113281 207.898438 1149.140625 211.636719 1149.140625 C 215.375 1149.140625 218.398438 1146.113281 218.398438 1142.375 Z M 235.625 1142.3125 C 235.625 1144.328125 237.253906 1145.960938 239.269531 1145.960938 C 241.285156 1145.960938 242.914062 1144.328125 242.914062 1142.3125 C 242.914062 1140.300781 241.285156 1138.667969 239.269531 1138.667969 C 237.253906 1138.667969 235.625 1140.300781 235.625 1142.3125 Z M 275.511719 1112.253906 C 275.511719 1109.222656 273.058594 1106.761719 270.019531 1106.761719 C 266.988281 1106.761719 264.535156 1109.222656 264.535156 1112.253906 C 264.535156 1115.296875 266.988281 1117.75 270.019531 1117.75 C 273.058594 1117.75 275.511719 1115.296875 275.511719 1112.253906 Z M 289.09375 1151.0625 C 286.480469 1151.0625 284.367188 1153.175781 284.367188 1155.789062 C 284.367188 1158.40625 286.480469 1160.527344 289.09375 1160.527344 C 291.714844 1160.527344 293.828125 1158.40625 293.828125 1155.789062 C 293.828125 1153.175781 291.714844 1151.0625 289.09375 1151.0625 Z M 297.597656 1165.507812 C 297.597656 1167.21875 298.980469 1168.613281 300.695312 1168.613281 C 302.410156 1168.613281 303.800781 1167.21875 303.800781 1165.507812 C 303.800781 1163.792969 302.410156 1162.402344 300.695312 1162.402344 C 298.980469 1162.402344 297.597656 1163.792969 297.597656 1165.507812 Z M 319.957031 1229.9375 C 319.957031 1226.257812 316.980469 1223.277344 313.300781 1223.277344 C 309.632812 1223.277344 306.652344 1226.257812 306.652344 1229.9375 C 306.652344 1233.613281 309.632812 1236.59375 313.300781 1236.59375 C 316.980469 1236.59375 319.957031 1233.613281 319.957031 1229.9375 Z M 269.042969 1148.015625 C 269.042969 1144.457031 266.15625 1141.570312 262.605469 1141.570312 C 259.046875 1141.570312 256.164062 1144.457031 256.164062 1148.015625 C 256.164062 1151.574219 259.046875 1154.453125 262.605469 1154.453125 C 266.15625 1154.453125 269.042969 1151.574219 269.042969 1148.015625 Z M 257.945312 1208.417969 C 257.945312 1210.222656 259.402344 1211.679688 261.195312 1211.679688 C 262.992188 1211.679688 264.449219 1210.222656 264.449219 1208.417969 C 264.449219 1206.621094 262.992188 1205.164062 261.195312 1205.164062 C 259.402344 1205.164062 257.945312 1206.621094 257.945312 1208.417969 Z M 284.066406 1224.894531 C 284.066406 1222.488281 282.113281 1220.53125 279.707031 1220.53125 C 277.300781 1220.53125 275.34375 1222.488281 275.34375 1224.894531 C 275.34375 1227.300781 277.300781 1229.257812 279.707031 1229.257812 C 282.113281 1229.257812 284.066406 1227.300781 284.066406 1224.894531 Z M 313.820312 1200.683594 C 316.59375 1200.683594 318.832031 1198.433594 318.832031 1195.660156 C 318.832031 1192.886719 316.59375 1190.636719 313.820312 1190.636719 C 311.046875 1190.636719 308.800781 1192.886719 308.800781 1195.660156 C 308.800781 1198.433594 311.046875 1200.683594 313.820312 1200.683594 Z M 244.875 1211.207031 C 244.875 1213.414062 246.660156 1215.203125 248.871094 1215.203125 C 251.078125 1215.203125 252.867188 1213.414062 252.867188 1211.207031 C 252.867188 1208.996094 251.078125 1207.207031 248.871094 1207.207031 C 246.660156 1207.207031 244.875 1208.996094 244.875 1211.207031 Z M 236.03125 1203.617188 C 236.03125 1199.75 232.898438 1196.617188 229.035156 1196.617188 C 225.171875 1196.617188 222.042969 1199.75 222.042969 1203.617188 C 222.042969 1207.480469 225.171875 1210.613281 229.035156 1210.613281 C 232.898438 1210.613281 236.03125 1207.480469 236.03125 1203.617188 Z M 270.332031 1135.695312 C 270.332031 1137.617188 271.894531 1139.175781 273.816406 1139.175781 C 275.730469 1139.175781 277.292969 1137.617188 277.292969 1135.695312 C 277.292969 1133.78125 275.730469 1132.21875 273.816406 1132.21875 C 271.894531 1132.21875 270.332031 1133.78125 270.332031 1135.695312 Z M 191.152344 1190.40625 C 191.152344 1188.191406 189.355469 1186.394531 187.136719 1186.394531 C 184.921875 1186.394531 183.128906 1188.191406 183.128906 1190.40625 C 183.128906 1192.621094 184.921875 1194.421875 187.136719 1194.421875 C 189.355469 1194.421875 191.152344 1192.621094 191.152344 1190.40625 Z M 184.265625 1136.601562 C 184.265625 1139.535156 186.644531 1141.921875 189.582031 1141.921875 C 192.515625 1141.921875 194.902344 1139.535156 194.902344 1136.601562 C 194.902344 1133.660156 192.515625 1131.277344 189.582031 1131.277344 C 186.644531 1131.277344 184.265625 1133.660156 184.265625 1136.601562 Z M 255.011719 1005.429688 C 255.011719 1002.960938 253.011719 1000.960938 250.550781 1000.960938 C 248.085938 1000.960938 246.082031 1002.960938 246.082031 1005.429688 C 246.082031 1007.890625 248.085938 1009.894531 250.550781 1009.894531 C 253.011719 1009.894531 255.011719 1007.890625 255.011719 1005.429688 Z M 238.464844 1079.761719 C 238.464844 1083.308594 241.328125 1086.175781 244.875 1086.175781 C 248.410156 1086.175781 251.28125 1083.308594 251.28125 1079.761719 C 251.28125 1076.222656 248.410156 1073.351562 244.875 1073.351562 C 241.328125 1073.351562 238.464844 1076.222656 238.464844 1079.761719 Z M 110.515625 1077.207031 C 110.515625 1075.300781 108.96875 1073.75 107.058594 1073.75 C 105.152344 1073.75 103.601562 1075.300781 103.601562 1077.207031 C 103.601562 1079.117188 105.152344 1080.667969 107.058594 1080.667969 C 108.96875 1080.667969 110.515625 1079.117188 110.515625 1077.207031 Z M 602.890625 1260.515625 C 602.890625 1257.003906 600.046875 1254.15625 596.535156 1254.15625 C 593.03125 1254.15625 590.179688 1257.003906 590.179688 1260.515625 C 590.179688 1264.027344 593.03125 1266.875 596.535156 1266.875 C 600.046875 1266.875 602.890625 1264.027344 602.890625 1260.515625 Z M 654.917969 1271.136719 C 654.917969 1269.207031 653.347656 1267.636719 651.421875 1267.636719 C 649.484375 1267.636719 647.921875 1269.207031 647.921875 1271.136719 C 647.921875 1273.066406 649.484375 1274.636719 651.421875 1274.636719 C 653.347656 1274.636719 654.917969 1273.066406 654.917969 1271.136719 Z M 542.003906 1042.6875 C 542.003906 1045.007812 543.886719 1046.882812 546.199219 1046.882812 C 548.519531 1046.882812 550.394531 1045.007812 550.394531 1042.6875 C 550.394531 1040.371094 548.519531 1038.488281 546.199219 1038.488281 C 543.886719 1038.488281 542.003906 1040.371094 542.003906 1042.6875 Z M 565.132812 1247.742188 C 567.859375 1247.742188 570.074219 1245.535156 570.074219 1242.808594 C 570.074219 1240.074219 567.859375 1237.867188 565.132812 1237.867188 C 562.40625 1237.867188 560.195312 1240.074219 560.195312 1242.808594 C 560.195312 1245.535156 562.40625 1247.742188 565.132812 1247.742188 Z M 567.300781 1204.707031 C 567.300781 1207.546875 569.601562 1209.84375 572.441406 1209.84375 C 575.273438 1209.84375 577.574219 1207.546875 577.574219 1204.707031 C 577.574219 1201.875 575.273438 1199.570312 572.441406 1199.570312 C 569.601562 1199.570312 567.300781 1201.875 567.300781 1204.707031 Z M 562.894531 1182.019531 C 562.894531 1180.328125 561.515625 1178.957031 559.828125 1178.957031 C 558.132812 1178.957031 556.761719 1180.328125 556.761719 1182.019531 C 556.761719 1183.714844 558.132812 1185.085938 559.828125 1185.085938 C 561.515625 1185.085938 562.894531 1183.714844 562.894531 1182.019531 Z M 525.40625 1177.117188 C 525.40625 1174.296875 523.121094 1172.015625 520.300781 1172.015625 C 517.484375 1172.015625 515.195312 1174.296875 515.195312 1177.117188 C 515.195312 1179.9375 517.484375 1182.222656 520.300781 1182.222656 C 523.121094 1182.222656 525.40625 1179.9375 525.40625 1177.117188 Z M 451.992188 1208.152344 C 449.460938 1208.152344 447.40625 1210.207031 447.40625 1212.742188 C 447.40625 1215.277344 449.460938 1217.332031 451.992188 1217.332031 C 454.527344 1217.332031 456.574219 1215.277344 456.574219 1212.742188 C 456.574219 1210.207031 454.527344 1208.152344 451.992188 1208.152344 Z M 431.679688 1213.960938 C 435.5625 1213.960938 438.710938 1210.8125 438.710938 1206.929688 C 438.710938 1203.039062 435.5625 1199.890625 431.679688 1199.890625 C 427.796875 1199.890625 424.648438 1203.039062 424.648438 1206.929688 C 424.648438 1210.8125 427.796875 1213.960938 431.679688 1213.960938 Z M 429.613281 1150.34375 C 429.613281 1152.4375 431.316406 1154.140625 433.410156 1154.140625 C 435.503906 1154.140625 437.207031 1152.4375 437.207031 1150.34375 C 437.207031 1148.246094 435.503906 1146.542969 433.410156 1146.542969 C 431.316406 1146.542969 429.613281 1148.246094 429.613281 1150.34375 Z M 459.640625 1100.15625 C 459.640625 1096.703125 456.832031 1093.902344 453.382812 1093.902344 C 449.933594 1093.902344 447.132812 1096.703125 447.132812 1100.15625 C 447.132812 1103.613281 449.933594 1106.414062 453.382812 1106.414062 C 456.832031 1106.414062 459.640625 1103.613281 459.640625 1100.15625 Z M 345.46875 1067.070312 C 345.46875 1063.964844 342.949219 1061.449219 339.851562 1061.449219 C 336.75 1061.449219 334.238281 1063.964844 334.238281 1067.070312 C 334.238281 1070.171875 336.75 1072.683594 339.851562 1072.683594 C 342.949219 1072.683594 345.46875 1070.171875 345.46875 1067.070312 Z M 411.820312 982.859375 C 411.820312 979.296875 408.9375 976.410156 405.371094 976.410156 C 401.808594 976.410156 398.929688 979.296875 398.929688 982.859375 C 398.929688 986.417969 401.808594 989.304688 405.371094 989.304688 C 408.9375 989.304688 411.820312 986.417969 411.820312 982.859375 Z M 303.535156 1026.414062 C 306.652344 1026.414062 309.179688 1023.882812 309.179688 1020.761719 C 309.179688 1017.640625 306.652344 1015.113281 303.535156 1015.113281 C 300.417969 1015.113281 297.890625 1017.640625 297.890625 1020.761719 C 297.890625 1023.882812 300.417969 1026.414062 303.535156 1026.414062 Z M 271.875 941.339844 C 271.875 937.542969 268.800781 934.46875 265.003906 934.46875 C 261.214844 934.46875 258.144531 937.542969 258.144531 941.339844 C 258.144531 945.132812 261.214844 948.207031 265.003906 948.207031 C 268.800781 948.207031 271.875 945.132812 271.875 941.339844 Z M 354.390625 869.171875 C 354.390625 870.785156 355.699219 872.097656 357.316406 872.097656 C 358.933594 872.097656 360.242188 870.785156 360.242188 869.171875 C 360.242188 867.554688 358.933594 866.242188 357.316406 866.242188 C 355.699219 866.242188 354.390625 867.554688 354.390625 869.171875 Z M 331.8125 866.222656 C 331.8125 863.53125 329.625 861.339844 326.925781 861.339844 C 324.230469 861.339844 322.050781 863.53125 322.050781 866.222656 C 322.050781 868.925781 324.230469 871.113281 326.925781 871.113281 C 329.625 871.113281 331.8125 868.925781 331.8125 866.222656 Z M 312.066406 789.066406 C 312.066406 785.917969 309.519531 783.371094 306.375 783.371094 C 303.230469 783.371094 300.683594 785.917969 300.683594 789.066406 C 300.683594 792.210938 303.230469 794.757812 306.375 794.757812 C 309.519531 794.757812 312.066406 792.210938 312.066406 789.066406 Z M 181.484375 726.492188 C 184.609375 726.492188 187.136719 723.964844 187.136719 720.839844 C 187.136719 717.71875 184.609375 715.183594 181.484375 715.183594 C 178.359375 715.183594 175.832031 717.71875 175.832031 720.839844 C 175.832031 723.964844 178.359375 726.492188 181.484375 726.492188 Z M 175.640625 694.144531 C 175.640625 692.148438 174.019531 690.527344 172.015625 690.527344 C 170.023438 690.527344 168.398438 692.148438 168.398438 694.144531 C 168.398438 696.148438 170.023438 697.769531 172.015625 697.769531 C 174.019531 697.769531 175.640625 696.148438 175.640625 694.144531 Z M 193.121094 611.644531 C 193.121094 609.128906 191.078125 607.089844 188.566406 607.089844 C 186.050781 607.089844 184.011719 609.128906 184.011719 611.644531 C 184.011719 614.160156 186.050781 616.195312 188.566406 616.195312 C 191.078125 616.195312 193.121094 614.160156 193.121094 611.644531 Z M 172.808594 598.347656 C 172.808594 596.71875 171.492188 595.402344 169.863281 595.402344 C 168.234375 595.402344 166.910156 596.71875 166.910156 598.347656 C 166.910156 599.976562 168.234375 601.300781 169.863281 601.300781 C 171.492188 601.300781 172.808594 599.976562 172.808594 598.347656 Z M 113.410156 611.199219 C 113.410156 608.570312 111.273438 606.4375 108.640625 606.4375 C 106.007812 606.4375 103.875 608.570312 103.875 611.199219 C 103.875 613.832031 106.007812 615.96875 108.640625 615.96875 C 111.273438 615.96875 113.410156 613.832031 113.410156 611.199219 Z M 124.238281 564.226562 C 124.238281 562.070312 122.492188 560.320312 120.332031 560.320312 C 118.175781 560.320312 116.425781 562.070312 116.425781 564.226562 C 116.425781 566.386719 118.175781 568.136719 120.332031 568.136719 C 122.492188 568.136719 124.238281 566.386719 124.238281 564.226562 Z M 178.785156 569.660156 C 178.785156 567.046875 176.671875 564.929688 174.066406 564.929688 C 171.453125 564.929688 169.335938 567.046875 169.335938 569.660156 C 169.335938 572.265625 171.453125 574.382812 174.066406 574.382812 C 176.671875 574.382812 178.785156 572.265625 178.785156 569.660156 Z M 109.167969 656.890625 C 109.167969 654.316406 107.078125 652.234375 104.511719 652.234375 C 101.941406 652.234375 99.859375 654.316406 99.859375 656.890625 C 99.859375 659.464844 101.941406 661.546875 104.511719 661.546875 C 107.078125 661.546875 109.167969 659.464844 109.167969 656.890625 Z M 109.785156 725.222656 C 109.785156 721.46875 106.746094 718.429688 103.003906 718.429688 C 99.253906 718.429688 96.214844 721.46875 96.214844 725.222656 C 96.214844 728.96875 99.253906 732.007812 103.003906 732.007812 C 106.746094 732.007812 109.785156 728.96875 109.785156 725.222656 Z M 230.757812 685.226562 C 230.757812 681.746094 227.9375 678.925781 224.460938 678.925781 C 220.984375 678.925781 218.164062 681.746094 218.164062 685.226562 C 218.164062 688.703125 220.984375 691.523438 224.460938 691.523438 C 227.9375 691.523438 230.757812 688.703125 230.757812 685.226562 Z M 144.253906 761.433594 C 144.253906 758.269531 141.6875 755.707031 138.519531 755.707031 C 135.355469 755.707031 132.789062 758.269531 132.789062 761.433594 C 132.789062 764.601562 135.355469 767.167969 138.519531 767.167969 C 141.6875 767.167969 144.253906 764.601562 144.253906 761.433594 Z M 205.773438 766.734375 C 203.636719 766.734375 201.910156 768.464844 201.910156 770.601562 C 201.910156 772.726562 203.636719 774.457031 205.773438 774.457031 C 207.898438 774.457031 209.628906 772.726562 209.628906 770.601562 C 209.628906 768.464844 207.898438 766.734375 205.773438 766.734375 Z M 182.414062 840.023438 C 182.414062 836.171875 179.304688 833.050781 175.453125 833.050781 C 171.605469 833.050781 168.488281 836.171875 168.488281 840.023438 C 168.488281 843.867188 171.605469 846.988281 175.453125 846.988281 C 179.304688 846.988281 182.414062 843.867188 182.414062 840.023438 Z M 263.449219 819.742188 C 263.449219 818.085938 262.105469 816.75 260.453125 816.75 C 258.800781 816.75 257.460938 818.085938 257.460938 819.742188 C 257.460938 821.398438 258.800781 822.742188 260.453125 822.742188 C 262.105469 822.742188 263.449219 821.398438 263.449219 819.742188 Z M 284.726562 825.640625 C 284.726562 823.761719 283.203125 822.230469 281.316406 822.230469 C 279.433594 822.230469 277.902344 823.761719 277.902344 825.640625 C 277.902344 827.523438 279.433594 829.054688 281.316406 829.054688 C 283.203125 829.054688 284.726562 827.523438 284.726562 825.640625 Z M 222.195312 889.851562 C 222.195312 887.589844 220.367188 885.761719 218.105469 885.761719 C 215.84375 885.761719 214.015625 887.589844 214.015625 889.851562 C 214.015625 892.113281 215.84375 893.941406 218.105469 893.941406 C 220.367188 893.941406 222.195312 892.113281 222.195312 889.851562 Z M 254.746094 895.476562 C 254.746094 893.523438 253.15625 891.933594 251.203125 891.933594 C 249.25 891.933594 247.660156 893.523438 247.660156 895.476562 C 247.660156 897.433594 249.25 899.023438 251.203125 899.023438 C 253.15625 899.023438 254.746094 897.433594 254.746094 895.476562 Z M 342.015625 871.726562 C 342.015625 869.628906 340.316406 867.933594 338.226562 867.933594 C 336.132812 867.933594 334.429688 869.628906 334.429688 871.726562 C 334.429688 873.820312 336.132812 875.515625 338.226562 875.515625 C 340.316406 875.515625 342.015625 873.820312 342.015625 871.726562 Z M 244.117188 961.796875 C 244.117188 960.058594 242.710938 958.65625 240.976562 958.65625 C 239.25 958.65625 237.839844 960.058594 237.839844 961.796875 C 237.839844 963.523438 239.25 964.929688 240.976562 964.929688 C 242.710938 964.929688 244.117188 963.523438 244.117188 961.796875 Z M 367.6875 920.734375 C 367.6875 922.828125 369.382812 924.527344 371.476562 924.527344 C 373.566406 924.527344 375.261719 922.828125 375.261719 920.734375 C 375.261719 918.644531 373.566406 916.949219 371.476562 916.949219 C 369.382812 916.949219 367.6875 918.644531 367.6875 920.734375 Z M 331.511719 976.488281 C 334.976562 976.488281 337.789062 973.679688 337.789062 970.214844 C 337.789062 966.742188 334.976562 963.9375 331.511719 963.9375 C 328.046875 963.9375 325.242188 966.742188 325.242188 970.214844 C 325.242188 973.679688 328.046875 976.488281 331.511719 976.488281 Z M 324.683594 997.203125 C 321.261719 997.203125 318.480469 999.980469 318.480469 1003.40625 C 318.480469 1006.832031 321.261719 1009.613281 324.683594 1009.613281 C 328.109375 1009.613281 330.886719 1006.832031 330.886719 1003.40625 C 330.886719 999.980469 328.109375 997.203125 324.683594 997.203125 Z M 320.867188 1044.480469 C 324.757812 1044.480469 327.910156 1041.328125 327.910156 1037.4375 C 327.910156 1033.539062 324.757812 1030.386719 320.867188 1030.386719 C 316.972656 1030.386719 313.820312 1033.539062 313.820312 1037.4375 C 313.820312 1041.328125 316.972656 1044.480469 320.867188 1044.480469 Z M 388.683594 1028.351562 C 388.683594 1025.417969 386.304688 1023.035156 383.371094 1023.035156 C 380.433594 1023.035156 378.054688 1025.417969 378.054688 1028.351562 C 378.054688 1031.292969 380.433594 1033.671875 383.371094 1033.671875 C 386.304688 1033.671875 388.683594 1031.292969 388.683594 1028.351562 Z M 431.679688 1023.304688 C 433.34375 1023.304688 434.695312 1021.953125 434.695312 1020.28125 C 434.695312 1018.621094 433.34375 1017.269531 431.679688 1017.269531 C 430.011719 1017.269531 428.664062 1018.621094 428.664062 1020.28125 C 428.664062 1021.953125 430.011719 1023.304688 431.679688 1023.304688 Z M 417.066406 1047.820312 C 417.066406 1044.828125 414.648438 1042.40625 411.664062 1042.40625 C 408.671875 1042.40625 406.25 1044.828125 406.25 1047.820312 C 406.25 1050.8125 408.671875 1053.234375 411.664062 1053.234375 C 414.648438 1053.234375 417.066406 1050.8125 417.066406 1047.820312 Z M 400.851562 1072.160156 C 396.976562 1072.160156 393.832031 1075.300781 393.832031 1079.183594 C 393.832031 1083.0625 396.976562 1086.207031 400.851562 1086.207031 C 404.726562 1086.207031 407.871094 1083.0625 407.871094 1079.183594 C 407.871094 1075.300781 404.726562 1072.160156 400.851562 1072.160156 Z M 378.113281 1066.757812 C 381.359375 1066.757812 383.992188 1064.125 383.992188 1060.878906 C 383.992188 1057.632812 381.359375 1055.003906 378.113281 1055.003906 C 374.867188 1055.003906 372.242188 1057.632812 372.242188 1060.878906 C 372.242188 1064.125 374.867188 1066.757812 378.113281 1066.757812 Z M 389.460938 1081.207031 C 389.460938 1077.414062 386.382812 1074.335938 382.585938 1074.335938 C 378.796875 1074.335938 375.71875 1077.414062 375.71875 1081.207031 C 375.71875 1085.003906 378.796875 1088.082031 382.585938 1088.082031 C 386.382812 1088.082031 389.460938 1085.003906 389.460938 1081.207031 Z M 403.316406 1095.738281 C 405.339844 1095.738281 406.980469 1094.097656 406.980469 1092.066406 C 406.980469 1090.046875 405.339844 1088.402344 403.316406 1088.402344 C 401.289062 1088.402344 399.65625 1090.046875 399.65625 1092.066406 C 399.65625 1094.097656 401.289062 1095.738281 403.316406 1095.738281 Z M 503.28125 1020.761719 C 503.28125 1022.769531 504.902344 1024.394531 506.90625 1024.394531 C 508.90625 1024.394531 510.535156 1022.769531 510.535156 1020.761719 C 510.535156 1018.761719 508.90625 1017.136719 506.90625 1017.136719 C 504.902344 1017.136719 503.28125 1018.761719 503.28125 1020.761719 Z M 529.824219 1085.609375 C 533.644531 1085.609375 536.742188 1088.707031 536.742188 1092.535156 C 536.742188 1096.359375 533.644531 1099.457031 529.824219 1099.457031 C 526 1099.457031 522.902344 1096.359375 522.902344 1092.535156 C 522.902344 1088.707031 526 1085.609375 529.824219 1085.609375 " fill-opacity="1" fill-rule="nonzero"/></g></svg>