<svg xmlns="http://www.w3.org/2000/svg" xmlns:xlink="http://www.w3.org/1999/xlink" width="1400" zoomAndPan="magnify" viewBox="0 0 1050 149.999998" height="200" preserveAspectRatio="xMidYMid meet" version="1.0"><defs><g/></defs><g fill="#737373" fill-opacity="1"><g transform="translate(217.154947, 51.621107)"><g><path d="M 17.621094 -5.765625 C 13.597656 -5.765625 10.117188 -7.777344 9.898438 -12.183594 L 1.632812 -12.183594 C 1.6875 -3.15625 9.136719 0.871094 17.292969 0.871094 C 24.855469 0.871094 32.632812 -2.339844 32.632812 -11.039062 C 32.632812 -25.125 11.257812 -20.394531 11.257812 -26.976562 C 11.257812 -29.75 14.464844 -30.835938 16.75 -30.835938 C 20.828125 -30.835938 23.058594 -29.585938 23.496094 -25.722656 L 31.378906 -25.722656 C 31.109375 -34.152344 24.257812 -37.527344 16.640625 -37.527344 C 9.898438 -37.527344 2.828125 -33.9375 2.828125 -26.324219 C 2.828125 -12.671875 24.203125 -17.292969 24.203125 -10.117188 C 24.203125 -6.796875 20.175781 -5.765625 17.621094 -5.765625 Z M 17.621094 -5.765625 "/></g></g></g><g fill="#737373" fill-opacity="1"><g transform="translate(262.294894, 51.621107)"><g><path d="M 24.691406 -7.394531 L 11.421875 -7.394531 L 11.421875 -14.847656 L 24.148438 -14.847656 L 24.148438 -22.242188 L 11.421875 -22.242188 L 11.421875 -29.585938 L 24.691406 -29.585938 L 24.691406 -36.980469 L 3.261719 -36.980469 L 3.261719 0 L 24.691406 0 Z M 24.691406 -7.394531 "/></g></g></g><g fill="#737373" fill-opacity="1"><g transform="translate(301.12612, 51.621107)"><g><path d="M 3.261719 0 L 24.691406 0 L 24.691406 -7.394531 L 11.421875 -7.394531 L 11.421875 -36.980469 L 3.261719 -36.980469 Z M 3.261719 0 "/></g></g></g><g fill="#737373" fill-opacity="1"><g transform="translate(338.597717, 51.621107)"><g><path d="M 23.386719 -14.140625 L 14.03125 -14.140625 L 18.707031 -27.300781 Z M 37.199219 0 L 22.1875 -36.980469 L 15.28125 -36.980469 L 0.273438 0 L 9.027344 0 L 11.691406 -7.449219 L 25.777344 -7.449219 L 28.445312 0 Z M 37.199219 0 "/></g></g></g><g fill="#737373" fill-opacity="1"><g transform="translate(386.946398, 51.621107)"><g><path d="M 49.382812 0 L 42.203125 -36.980469 L 32.523438 -36.980469 L 24.855469 -11.039062 L 17.132812 -36.980469 L 7.449219 -36.980469 L 0.273438 0 L 9.246094 0 L 13.597656 -25.507812 L 20.828125 0 L 28.824219 0 L 36.058594 -25.507812 L 40.410156 0 Z M 49.382812 0 "/></g></g></g><g fill="#737373" fill-opacity="1"><g transform="translate(447.477427, 51.621107)"><g><path d="M 23.386719 -14.140625 L 14.03125 -14.140625 L 18.707031 -27.300781 Z M 37.199219 0 L 22.1875 -36.980469 L 15.28125 -36.980469 L 0.273438 0 L 9.027344 0 L 11.691406 -7.449219 L 25.777344 -7.449219 L 28.445312 0 Z M 37.199219 0 "/></g></g></g><g fill="#737373" fill-opacity="1"><g transform="translate(495.826118, 51.621107)"><g><path d="M 18.980469 -29.585938 L 29.53125 -29.585938 L 29.53125 -36.980469 L 0.273438 -36.980469 L 0.273438 -29.585938 L 10.824219 -29.585938 L 10.824219 0 L 18.980469 0 Z M 18.980469 -29.585938 "/></g></g></g><g fill="#737373" fill-opacity="1"><g transform="translate(536.50645, 51.621107)"><g/></g></g><g fill="#737373" fill-opacity="1"><g transform="translate(560.979931, 51.621107)"><g><path d="M 11.3125 -7.503906 L 11.3125 -29.421875 L 13.757812 -29.421875 C 20.066406 -29.421875 24.308594 -24.636719 24.308594 -18.492188 C 24.308594 -12.34375 20.015625 -7.503906 13.757812 -7.503906 Z M 3.261719 -36.980469 L 3.261719 0 L 14.25 0 C 24.746094 0 32.632812 -8.050781 32.632812 -18.492188 C 32.632812 -28.933594 24.691406 -36.980469 14.25 -36.980469 Z M 3.261719 -36.980469 "/></g></g></g><g fill="#737373" fill-opacity="1"><g transform="translate(606.391812, 51.621107)"><g><path d="M 23.386719 -14.140625 L 14.03125 -14.140625 L 18.707031 -27.300781 Z M 37.199219 0 L 22.1875 -36.980469 L 15.28125 -36.980469 L 0.273438 0 L 9.027344 0 L 11.691406 -7.449219 L 25.777344 -7.449219 L 28.445312 0 Z M 37.199219 0 "/></g></g></g><g fill="#737373" fill-opacity="1"><g transform="translate(654.740503, 51.621107)"><g><path d="M 18.980469 -29.585938 L 29.53125 -29.585938 L 29.53125 -36.980469 L 0.273438 -36.980469 L 0.273438 -29.585938 L 10.824219 -29.585938 L 10.824219 0 L 18.980469 0 Z M 18.980469 -29.585938 "/></g></g></g><g fill="#737373" fill-opacity="1"><g transform="translate(695.420835, 51.621107)"><g><path d="M 23.386719 -14.140625 L 14.03125 -14.140625 L 18.707031 -27.300781 Z M 37.199219 0 L 22.1875 -36.980469 L 15.28125 -36.980469 L 0.273438 0 L 9.027344 0 L 11.691406 -7.449219 L 25.777344 -7.449219 L 28.445312 0 Z M 37.199219 0 "/></g></g></g><g fill="#737373" fill-opacity="1"><g transform="translate(743.769526, 51.621107)"><g><path d="M 32.304688 0 L 32.304688 -36.980469 L 24.148438 -36.980469 L 24.148438 -13.921875 L 11.421875 -36.980469 L 3.261719 -36.980469 L 3.261719 0 L 11.421875 0 L 11.421875 -23.058594 L 24.148438 0 Z M 32.304688 0 "/></g></g></g><g fill="#737373" fill-opacity="1"><g transform="translate(790.214708, 51.621107)"><g><path d="M 21.753906 -29.910156 C 25.34375 -29.910156 29.042969 -28.445312 30.835938 -24.527344 L 39.808594 -24.527344 C 37.253906 -32.195312 29.910156 -37.527344 21.753906 -37.527344 C 11.3125 -37.527344 2.71875 -28.933594 2.71875 -18.492188 C 2.71875 -8.050781 11.3125 0.542969 21.753906 0.542969 C 32.304688 0.542969 40.734375 -7.996094 40.734375 -18.492188 L 40.734375 -19.742188 L 22.515625 -19.742188 L 22.515625 -13.597656 L 31.925781 -13.597656 C 29.910156 -7.996094 25.34375 -6.851562 21.753906 -6.851562 C 15.878906 -6.851562 10.984375 -12.128906 10.984375 -18.382812 C 10.984375 -24.636719 15.878906 -29.910156 21.753906 -29.910156 Z M 21.753906 -29.910156 "/></g></g></g><g fill="#737373" fill-opacity="1"><g transform="translate(46.116356, 106.242982)"><g><path d="M 12.839844 -6.644531 C 12.839844 -5.347656 12.386719 -4.199219 11.480469 -3.261719 C 10.574219 -2.296875 9.457031 -1.8125 8.15625 -1.8125 C 6.828125 -1.8125 5.710938 -2.296875 4.804688 -3.261719 C 3.898438 -4.199219 3.472656 -5.347656 3.472656 -6.644531 C 3.472656 -7.914062 3.898438 -9.0625 4.804688 -10.03125 C 5.710938 -10.996094 6.828125 -11.480469 8.15625 -11.480469 C 9.457031 -11.480469 10.574219 -10.996094 11.480469 -10.03125 C 12.386719 -9.0625 12.839844 -7.914062 12.839844 -6.644531 Z M 14.953125 0 L 14.953125 -22.65625 L 12.839844 -22.65625 L 12.839844 -10.996094 C 12.71875 -11.175781 12.566406 -11.328125 12.445312 -11.480469 C 11.175781 -12.871094 9.636719 -13.59375 7.824219 -13.59375 C 5.980469 -13.59375 4.441406 -12.871094 3.171875 -11.480469 C 1.964844 -10.089844 1.359375 -8.488281 1.359375 -6.644531 C 1.359375 -4.773438 1.964844 -3.171875 3.171875 -1.8125 C 4.441406 -0.394531 5.980469 0.300781 7.824219 0.300781 C 9.636719 0.300781 11.175781 -0.394531 12.445312 -1.8125 C 12.566406 -1.933594 12.71875 -2.085938 12.839844 -2.265625 L 12.839844 0 Z M 14.953125 0 "/></g></g></g><g fill="#737373" fill-opacity="1"><g transform="translate(69.372722, 106.242982)"><g><path d="M 4.410156 -17.882812 C 4.140625 -18.125 3.804688 -18.277344 3.445312 -18.277344 C 3.082031 -18.277344 2.75 -18.125 2.507812 -17.882812 C 2.234375 -17.613281 2.113281 -17.28125 2.113281 -16.917969 C 2.113281 -16.554688 2.234375 -16.222656 2.507812 -15.980469 C 2.75 -15.710938 3.082031 -15.589844 3.445312 -15.589844 C 3.804688 -15.589844 4.140625 -15.710938 4.410156 -15.980469 C 4.652344 -16.222656 4.804688 -16.554688 4.804688 -16.917969 C 4.804688 -17.28125 4.652344 -17.613281 4.410156 -17.882812 Z M 4.53125 0 L 4.53125 -13.292969 L 2.417969 -13.292969 L 2.417969 0 Z M 4.53125 0 "/></g></g></g><g fill="#737373" fill-opacity="1"><g transform="translate(82.331168, 106.242982)"><g/></g></g><g fill="#737373" fill-opacity="1"><g transform="translate(96.527784, 106.242982)"><g><path d="M 4.378906 0 L 4.378906 -22.65625 L 2.265625 -22.65625 L 2.265625 0 Z M 4.378906 0 "/></g></g></g><g fill="#737373" fill-opacity="1"><g transform="translate(109.214445, 106.242982)"><g><path d="M 12.839844 -6.644531 C 12.839844 -5.347656 12.386719 -4.199219 11.480469 -3.261719 C 10.574219 -2.296875 9.457031 -1.8125 8.15625 -1.8125 C 6.828125 -1.8125 5.710938 -2.296875 4.804688 -3.261719 C 3.898438 -4.199219 3.472656 -5.347656 3.472656 -6.644531 C 3.472656 -7.914062 3.898438 -9.0625 4.804688 -10.03125 C 5.710938 -10.996094 6.828125 -11.480469 8.15625 -11.480469 C 9.457031 -11.480469 10.574219 -10.996094 11.480469 -10.03125 C 12.386719 -9.0625 12.839844 -7.914062 12.839844 -6.644531 Z M 14.953125 0 L 14.953125 -13.292969 L 12.839844 -13.292969 L 12.839844 -10.996094 C 12.71875 -11.175781 12.566406 -11.328125 12.445312 -11.480469 C 11.175781 -12.871094 9.636719 -13.59375 7.824219 -13.59375 C 5.980469 -13.59375 4.441406 -12.871094 3.171875 -11.480469 C 1.964844 -10.089844 1.359375 -8.488281 1.359375 -6.644531 C 1.359375 -4.773438 1.964844 -3.171875 3.171875 -1.8125 C 4.441406 -0.394531 5.980469 0.300781 7.824219 0.300781 C 9.636719 0.300781 11.175781 -0.394531 12.445312 -1.8125 C 12.566406 -1.933594 12.71875 -2.085938 12.839844 -2.265625 L 12.839844 0 Z M 14.953125 0 "/></g></g></g><g fill="#737373" fill-opacity="1"><g transform="translate(132.470813, 106.242982)"><g><path d="M 19.121094 -0.0585938 L 21.238281 -0.0585938 L 21.238281 -8.367188 C 21.238281 -9.847656 20.84375 -11.085938 20.121094 -12.054688 C 19.757812 -12.539062 19.273438 -12.898438 18.730469 -13.203125 C 18.15625 -13.503906 17.402344 -13.65625 16.496094 -13.65625 C 15.558594 -13.65625 14.742188 -13.382812 14.046875 -12.898438 C 13.414062 -12.417969 12.898438 -11.84375 12.476562 -11.117188 C 12.324219 -11.449219 12.144531 -11.75 11.933594 -12.054688 C 11.570312 -12.539062 11.085938 -12.898438 10.542969 -13.203125 C 9.96875 -13.503906 9.214844 -13.65625 8.308594 -13.65625 C 7.371094 -13.65625 6.554688 -13.382812 5.859375 -12.898438 C 5.257812 -12.445312 4.773438 -11.902344 4.378906 -11.207031 L 4.378906 -13.351562 L 2.265625 -13.351562 L 2.265625 -0.0585938 L 4.378906 -0.0585938 L 4.378906 -6.859375 C 4.472656 -7.914062 4.742188 -8.851562 5.195312 -9.605469 C 5.5 -10.152344 5.953125 -10.632812 6.496094 -10.996094 C 7.039062 -11.359375 7.613281 -11.539062 8.246094 -11.539062 C 8.851562 -11.539062 9.335938 -11.417969 9.636719 -11.238281 C 10.484375 -10.695312 10.9375 -9.726562 10.9375 -8.367188 L 10.9375 -0.0585938 L 13.050781 -0.0585938 L 13.050781 -8.367188 C 13.050781 -8.519531 13.019531 -8.699219 13.019531 -8.851562 C 13.109375 -9.125 13.230469 -9.363281 13.382812 -9.605469 C 13.683594 -10.152344 14.136719 -10.632812 14.683594 -10.996094 C 15.226562 -11.359375 15.800781 -11.539062 16.433594 -11.539062 C 17.039062 -11.539062 17.523438 -11.417969 17.824219 -11.238281 C 18.667969 -10.695312 19.121094 -9.726562 19.121094 -8.367188 Z M 19.121094 -0.0585938 "/></g></g></g><g fill="#737373" fill-opacity="1"><g transform="translate(161.555628, 106.242982)"><g><path d="M 12.839844 -6.644531 C 12.839844 -5.347656 12.386719 -4.199219 11.480469 -3.261719 C 10.574219 -2.296875 9.457031 -1.8125 8.15625 -1.8125 C 6.828125 -1.8125 5.710938 -2.296875 4.804688 -3.261719 C 3.898438 -4.199219 3.472656 -5.347656 3.472656 -6.644531 C 3.472656 -7.914062 3.898438 -9.0625 4.804688 -10.03125 C 5.710938 -10.996094 6.828125 -11.480469 8.15625 -11.480469 C 9.457031 -11.480469 10.574219 -10.996094 11.480469 -10.03125 C 12.386719 -9.0625 12.839844 -7.914062 12.839844 -6.644531 Z M 14.953125 0 L 14.953125 -13.292969 L 12.839844 -13.292969 L 12.839844 -10.996094 C 12.71875 -11.175781 12.566406 -11.328125 12.445312 -11.480469 C 11.175781 -12.871094 9.636719 -13.59375 7.824219 -13.59375 C 5.980469 -13.59375 4.441406 -12.871094 3.171875 -11.480469 C 1.964844 -10.089844 1.359375 -8.488281 1.359375 -6.644531 C 1.359375 -4.773438 1.964844 -3.171875 3.171875 -1.8125 C 4.441406 -0.394531 5.980469 0.300781 7.824219 0.300781 C 9.636719 0.300781 11.175781 -0.394531 12.445312 -1.8125 C 12.566406 -1.933594 12.71875 -2.085938 12.839844 -2.265625 L 12.839844 0 Z M 14.953125 0 "/></g></g></g><g fill="#737373" fill-opacity="1"><g transform="translate(184.811989, 106.242982)"><g><path d="M 11.449219 0 L 13.5625 0 L 13.5625 -8.308594 C 13.5625 -9.847656 13.140625 -11.085938 12.355469 -12.023438 C 11.933594 -12.507812 11.449219 -12.871094 10.875 -13.140625 C 10.269531 -13.414062 9.515625 -13.5625 8.578125 -13.5625 C 7.613281 -13.5625 6.796875 -13.292969 6.070312 -12.808594 C 5.378906 -12.355469 4.804688 -11.75 4.378906 -10.996094 L 4.378906 -13.292969 L 2.265625 -13.292969 L 2.265625 0 L 4.378906 0 L 4.378906 -5.558594 C 4.378906 -7.25 4.683594 -8.578125 5.316406 -9.578125 C 5.679688 -10.121094 6.132812 -10.574219 6.707031 -10.9375 C 7.25 -11.269531 8.003906 -11.449219 8.910156 -11.449219 C 9.816406 -11.449219 10.453125 -11.117188 10.84375 -10.511719 C 11.238281 -9.910156 11.449219 -9.152344 11.449219 -8.308594 Z M 11.449219 0 "/></g></g></g><g fill="#737373" fill-opacity="1"><g transform="translate(206.226196, 106.242982)"><g/></g></g><g fill="#737373" fill-opacity="1"><g transform="translate(220.422808, 106.242982)"><g><path d="M 4.167969 -1.871094 C 3.65625 -2.234375 3.261719 -2.839844 3.050781 -3.714844 L 0.816406 -3.714844 C 1.269531 -0.964844 3.019531 0.394531 6.101562 0.394531 C 6.828125 0.394531 7.492188 0.332031 8.125 0.152344 C 8.761719 -0.03125 9.304688 -0.273438 9.816406 -0.605469 C 10.84375 -1.300781 11.359375 -2.355469 11.359375 -3.777344 C 11.359375 -5.226562 10.695312 -6.253906 9.304688 -6.917969 C 8.730469 -7.191406 8.097656 -7.402344 7.402344 -7.550781 C 6.738281 -7.703125 6.101562 -7.886719 5.527344 -8.066406 C 4.925781 -8.246094 4.441406 -8.488281 4.046875 -8.761719 C 3.65625 -9.03125 3.445312 -9.457031 3.445312 -10.058594 C 3.445312 -10.664062 3.6875 -11.117188 4.167969 -11.390625 C 4.652344 -11.691406 5.226562 -11.84375 5.859375 -11.84375 C 6.523438 -11.84375 7.097656 -11.691406 7.550781 -11.449219 C 8.003906 -11.207031 8.367188 -10.722656 8.578125 -10 L 10.84375 -10 C 10.574219 -11.328125 10 -12.265625 9.152344 -12.777344 C 8.277344 -13.324219 7.21875 -13.59375 5.921875 -13.59375 C 4.652344 -13.59375 3.535156 -13.230469 2.597656 -12.566406 C 1.691406 -11.871094 1.207031 -10.875 1.207031 -9.546875 C 1.207031 -8.910156 1.390625 -8.339844 1.722656 -7.855469 C 2.085938 -7.339844 2.597656 -6.949219 3.261719 -6.644531 C 3.867188 -6.375 4.5 -6.164062 5.164062 -5.980469 C 5.832031 -5.832031 6.464844 -5.648438 7.070312 -5.46875 C 8.429688 -5.015625 9.125 -4.351562 9.125 -3.503906 C 9.125 -2.054688 8.15625 -1.359375 6.222656 -1.359375 C 5.40625 -1.359375 4.710938 -1.511719 4.167969 -1.871094 Z M 4.167969 -1.871094 "/></g></g></g><g fill="#737373" fill-opacity="1"><g transform="translate(238.605718, 106.242982)"><g><path d="M 4.410156 -17.882812 C 4.140625 -18.125 3.804688 -18.277344 3.445312 -18.277344 C 3.082031 -18.277344 2.75 -18.125 2.507812 -17.882812 C 2.234375 -17.613281 2.113281 -17.28125 2.113281 -16.917969 C 2.113281 -16.554688 2.234375 -16.222656 2.507812 -15.980469 C 2.75 -15.710938 3.082031 -15.589844 3.445312 -15.589844 C 3.804688 -15.589844 4.140625 -15.710938 4.410156 -15.980469 C 4.652344 -16.222656 4.804688 -16.554688 4.804688 -16.917969 C 4.804688 -17.28125 4.652344 -17.613281 4.410156 -17.882812 Z M 4.53125 0 L 4.53125 -13.292969 L 2.417969 -13.292969 L 2.417969 0 Z M 4.53125 0 "/></g></g></g><g fill="#737373" fill-opacity="1"><g transform="translate(251.56416, 106.242982)"><g><path d="M 4.167969 -1.871094 C 3.65625 -2.234375 3.261719 -2.839844 3.050781 -3.714844 L 0.816406 -3.714844 C 1.269531 -0.964844 3.019531 0.394531 6.101562 0.394531 C 6.828125 0.394531 7.492188 0.332031 8.125 0.152344 C 8.761719 -0.03125 9.304688 -0.273438 9.816406 -0.605469 C 10.84375 -1.300781 11.359375 -2.355469 11.359375 -3.777344 C 11.359375 -5.226562 10.695312 -6.253906 9.304688 -6.917969 C 8.730469 -7.191406 8.097656 -7.402344 7.402344 -7.550781 C 6.738281 -7.703125 6.101562 -7.886719 5.527344 -8.066406 C 4.925781 -8.246094 4.441406 -8.488281 4.046875 -8.761719 C 3.65625 -9.03125 3.445312 -9.457031 3.445312 -10.058594 C 3.445312 -10.664062 3.6875 -11.117188 4.167969 -11.390625 C 4.652344 -11.691406 5.226562 -11.84375 5.859375 -11.84375 C 6.523438 -11.84375 7.097656 -11.691406 7.550781 -11.449219 C 8.003906 -11.207031 8.367188 -10.722656 8.578125 -10 L 10.84375 -10 C 10.574219 -11.328125 10 -12.265625 9.152344 -12.777344 C 8.277344 -13.324219 7.21875 -13.59375 5.921875 -13.59375 C 4.652344 -13.59375 3.535156 -13.230469 2.597656 -12.566406 C 1.691406 -11.871094 1.207031 -10.875 1.207031 -9.546875 C 1.207031 -8.910156 1.390625 -8.339844 1.722656 -7.855469 C 2.085938 -7.339844 2.597656 -6.949219 3.261719 -6.644531 C 3.867188 -6.375 4.5 -6.164062 5.164062 -5.980469 C 5.832031 -5.832031 6.464844 -5.648438 7.070312 -5.46875 C 8.429688 -5.015625 9.125 -4.351562 9.125 -3.503906 C 9.125 -2.054688 8.15625 -1.359375 6.222656 -1.359375 C 5.40625 -1.359375 4.710938 -1.511719 4.167969 -1.871094 Z M 4.167969 -1.871094 "/></g></g></g><g fill="#737373" fill-opacity="1"><g transform="translate(269.747059, 106.242982)"><g><path d="M 0.605469 -11.328125 L 3.925781 -11.328125 L 3.925781 0 L 6.042969 0 L 6.042969 -11.328125 L 9.335938 -11.328125 L 9.335938 -13.292969 L 6.042969 -13.292969 L 6.042969 -18.457031 L 3.925781 -18.457031 L 3.925781 -13.292969 L 0.605469 -13.292969 Z M 0.605469 -11.328125 "/></g></g></g><g fill="#737373" fill-opacity="1"><g transform="translate(285.725436, 106.242982)"><g><path d="M 15.257812 -6.949219 C 15.257812 -8.761719 14.53125 -10.332031 13.140625 -11.691406 C 11.78125 -12.992188 10.152344 -13.65625 8.308594 -13.65625 C 6.375 -13.65625 4.742188 -12.960938 3.382812 -11.601562 C 2.023438 -10.242188 1.359375 -8.609375 1.359375 -6.707031 C 1.359375 -4.773438 2.023438 -3.140625 3.382812 -1.8125 C 4.019531 -1.179688 4.742188 -0.695312 5.589844 -0.332031 C 6.433594 0.03125 7.433594 0.210938 8.609375 0.210938 C 9.789062 0.210938 10.9375 -0.152344 12.085938 -0.875 C 13.230469 -1.601562 14.078125 -2.628906 14.652344 -3.898438 L 12.234375 -3.898438 C 11.75 -3.261719 11.175781 -2.78125 10.484375 -2.417969 C 9.789062 -2.054688 9.0625 -1.902344 8.308594 -1.902344 C 7.160156 -1.902344 6.132812 -2.265625 5.226562 -3.019531 C 4.320312 -3.746094 3.746094 -4.683594 3.566406 -5.832031 L 15.257812 -5.832031 Z M 13.019531 -7.644531 L 3.59375 -7.644531 C 3.714844 -8.1875 3.925781 -8.699219 4.230469 -9.183594 C 5.195312 -10.753906 6.554688 -11.539062 8.308594 -11.539062 C 9.425781 -11.539062 10.421875 -11.175781 11.296875 -10.453125 C 12.203125 -9.699219 12.75 -8.761719 13.019531 -7.644531 Z M 13.019531 -7.644531 "/></g></g></g><g fill="#737373" fill-opacity="1"><g transform="translate(308.226831, 106.242982)"><g><path d="M 19.121094 -0.0585938 L 21.238281 -0.0585938 L 21.238281 -8.367188 C 21.238281 -9.847656 20.84375 -11.085938 20.121094 -12.054688 C 19.757812 -12.539062 19.273438 -12.898438 18.730469 -13.203125 C 18.15625 -13.503906 17.402344 -13.65625 16.496094 -13.65625 C 15.558594 -13.65625 14.742188 -13.382812 14.046875 -12.898438 C 13.414062 -12.417969 12.898438 -11.84375 12.476562 -11.117188 C 12.324219 -11.449219 12.144531 -11.75 11.933594 -12.054688 C 11.570312 -12.539062 11.085938 -12.898438 10.542969 -13.203125 C 9.96875 -13.503906 9.214844 -13.65625 8.308594 -13.65625 C 7.371094 -13.65625 6.554688 -13.382812 5.859375 -12.898438 C 5.257812 -12.445312 4.773438 -11.902344 4.378906 -11.207031 L 4.378906 -13.351562 L 2.265625 -13.351562 L 2.265625 -0.0585938 L 4.378906 -0.0585938 L 4.378906 -6.859375 C 4.472656 -7.914062 4.742188 -8.851562 5.195312 -9.605469 C 5.5 -10.152344 5.953125 -10.632812 6.496094 -10.996094 C 7.039062 -11.359375 7.613281 -11.539062 8.246094 -11.539062 C 8.851562 -11.539062 9.335938 -11.417969 9.636719 -11.238281 C 10.484375 -10.695312 10.9375 -9.726562 10.9375 -8.367188 L 10.9375 -0.0585938 L 13.050781 -0.0585938 L 13.050781 -8.367188 C 13.050781 -8.519531 13.019531 -8.699219 13.019531 -8.851562 C 13.109375 -9.125 13.230469 -9.363281 13.382812 -9.605469 C 13.683594 -10.152344 14.136719 -10.632812 14.683594 -10.996094 C 15.226562 -11.359375 15.800781 -11.539062 16.433594 -11.539062 C 17.039062 -11.539062 17.523438 -11.417969 17.824219 -11.238281 C 18.667969 -10.695312 19.121094 -9.726562 19.121094 -8.367188 Z M 19.121094 -0.0585938 "/></g></g></g><g fill="#737373" fill-opacity="1"><g transform="translate(337.311646, 106.242982)"><g/></g></g><g fill="#737373" fill-opacity="1"><g transform="translate(351.50827, 106.242982)"><g><path d="M 4.410156 -17.882812 C 4.140625 -18.125 3.804688 -18.277344 3.445312 -18.277344 C 3.082031 -18.277344 2.75 -18.125 2.507812 -17.882812 C 2.234375 -17.613281 2.113281 -17.28125 2.113281 -16.917969 C 2.113281 -16.554688 2.234375 -16.222656 2.507812 -15.980469 C 2.75 -15.710938 3.082031 -15.589844 3.445312 -15.589844 C 3.804688 -15.589844 4.140625 -15.710938 4.410156 -15.980469 C 4.652344 -16.222656 4.804688 -16.554688 4.804688 -16.917969 C 4.804688 -17.28125 4.652344 -17.613281 4.410156 -17.882812 Z M 4.53125 0 L 4.53125 -13.292969 L 2.417969 -13.292969 L 2.417969 0 Z M 4.53125 0 "/></g></g></g><g fill="#737373" fill-opacity="1"><g transform="translate(364.466712, 106.242982)"><g><path d="M 11.449219 0 L 13.5625 0 L 13.5625 -8.308594 C 13.5625 -9.847656 13.140625 -11.085938 12.355469 -12.023438 C 11.933594 -12.507812 11.449219 -12.871094 10.875 -13.140625 C 10.269531 -13.414062 9.515625 -13.5625 8.578125 -13.5625 C 7.613281 -13.5625 6.796875 -13.292969 6.070312 -12.808594 C 5.378906 -12.355469 4.804688 -11.75 4.378906 -10.996094 L 4.378906 -13.292969 L 2.265625 -13.292969 L 2.265625 0 L 4.378906 0 L 4.378906 -5.558594 C 4.378906 -7.25 4.683594 -8.578125 5.316406 -9.578125 C 5.679688 -10.121094 6.132812 -10.574219 6.707031 -10.9375 C 7.25 -11.269531 8.003906 -11.449219 8.910156 -11.449219 C 9.816406 -11.449219 10.453125 -11.117188 10.84375 -10.511719 C 11.238281 -9.910156 11.449219 -9.152344 11.449219 -8.308594 Z M 11.449219 0 "/></g></g></g><g fill="#737373" fill-opacity="1"><g transform="translate(385.880918, 106.242982)"><g><path d="M 9.394531 -20.695312 L 9.394531 -22.65625 L 7.886719 -22.65625 C 6.375 -22.65625 5.316406 -22.265625 4.683594 -21.539062 C 4.046875 -20.816406 3.746094 -19.757812 3.746094 -18.429688 L 3.746094 -13.292969 L 1.058594 -13.292969 L 1.058594 -11.328125 L 3.746094 -11.328125 L 3.746094 0 L 5.859375 0 L 5.859375 -11.328125 L 9.394531 -11.328125 L 9.394531 -13.292969 L 5.859375 -13.292969 L 5.859375 -19.03125 C 5.859375 -19.484375 5.953125 -19.878906 6.191406 -20.210938 C 6.40625 -20.511719 6.859375 -20.695312 7.582031 -20.695312 Z M 9.394531 -20.695312 "/></g></g></g><g fill="#737373" fill-opacity="1"><g transform="translate(402.221684, 106.242982)"><g><path d="M 13.140625 -6.707031 C 13.140625 -5.378906 12.65625 -4.257812 11.722656 -3.324219 C 10.753906 -2.355469 9.636719 -1.902344 8.308594 -1.902344 C 6.976562 -1.902344 5.832031 -2.355469 4.894531 -3.324219 C 3.925781 -4.257812 3.472656 -5.378906 3.472656 -6.707031 C 3.472656 -8.035156 3.925781 -9.152344 4.894531 -10.121094 C 5.832031 -11.058594 6.976562 -11.539062 8.308594 -11.539062 C 9.636719 -11.539062 10.753906 -11.058594 11.722656 -10.121094 C 12.65625 -9.152344 13.140625 -8.035156 13.140625 -6.707031 Z M 15.257812 -6.707031 C 15.257812 -8.609375 14.5625 -10.242188 13.203125 -11.601562 C 11.84375 -12.960938 10.210938 -13.65625 8.308594 -13.65625 C 6.375 -13.65625 4.742188 -12.960938 3.382812 -11.601562 C 2.023438 -10.242188 1.359375 -8.609375 1.359375 -6.707031 C 1.359375 -4.773438 2.023438 -3.140625 3.382812 -1.8125 C 4.742188 -0.453125 6.40625 0.210938 8.308594 0.210938 C 10.179688 0.210938 11.84375 -0.453125 13.203125 -1.8125 C 14.5625 -3.140625 15.257812 -4.773438 15.257812 -6.707031 Z M 15.257812 -6.707031 "/></g></g></g><g fill="#737373" fill-opacity="1"><g transform="translate(424.874072, 106.242982)"><g><path d="M 9.09375 -10.542969 L 9.09375 -13.292969 C 8.671875 -13.472656 8.21875 -13.5625 7.765625 -13.5625 C 6.253906 -13.5625 5.164062 -12.71875 4.472656 -11.085938 L 4.378906 -10.542969 L 4.378906 -13.292969 L 2.265625 -13.292969 L 2.265625 0 L 4.378906 0 L 4.378906 -6.644531 C 4.378906 -7.734375 4.621094 -8.699219 5.136719 -9.578125 C 5.378906 -10.03125 5.710938 -10.421875 6.101562 -10.722656 C 6.496094 -11.027344 6.976562 -11.207031 7.523438 -11.207031 C 8.066406 -11.207031 8.578125 -10.964844 9.09375 -10.542969 Z M 9.09375 -10.542969 "/></g></g></g><g fill="#737373" fill-opacity="1"><g transform="translate(440.308855, 106.242982)"><g><path d="M 19.121094 -0.0585938 L 21.238281 -0.0585938 L 21.238281 -8.367188 C 21.238281 -9.847656 20.84375 -11.085938 20.121094 -12.054688 C 19.757812 -12.539062 19.273438 -12.898438 18.730469 -13.203125 C 18.15625 -13.503906 17.402344 -13.65625 16.496094 -13.65625 C 15.558594 -13.65625 14.742188 -13.382812 14.046875 -12.898438 C 13.414062 -12.417969 12.898438 -11.84375 12.476562 -11.117188 C 12.324219 -11.449219 12.144531 -11.75 11.933594 -12.054688 C 11.570312 -12.539062 11.085938 -12.898438 10.542969 -13.203125 C 9.96875 -13.503906 9.214844 -13.65625 8.308594 -13.65625 C 7.371094 -13.65625 6.554688 -13.382812 5.859375 -12.898438 C 5.257812 -12.445312 4.773438 -11.902344 4.378906 -11.207031 L 4.378906 -13.351562 L 2.265625 -13.351562 L 2.265625 -0.0585938 L 4.378906 -0.0585938 L 4.378906 -6.859375 C 4.472656 -7.914062 4.742188 -8.851562 5.195312 -9.605469 C 5.5 -10.152344 5.953125 -10.632812 6.496094 -10.996094 C 7.039062 -11.359375 7.613281 -11.539062 8.246094 -11.539062 C 8.851562 -11.539062 9.335938 -11.417969 9.636719 -11.238281 C 10.484375 -10.695312 10.9375 -9.726562 10.9375 -8.367188 L 10.9375 -0.0585938 L 13.050781 -0.0585938 L 13.050781 -8.367188 C 13.050781 -8.519531 13.019531 -8.699219 13.019531 -8.851562 C 13.109375 -9.125 13.230469 -9.363281 13.382812 -9.605469 C 13.683594 -10.152344 14.136719 -10.632812 14.683594 -10.996094 C 15.226562 -11.359375 15.800781 -11.539062 16.433594 -11.539062 C 17.039062 -11.539062 17.523438 -11.417969 17.824219 -11.238281 C 18.667969 -10.695312 19.121094 -9.726562 19.121094 -8.367188 Z M 19.121094 -0.0585938 "/></g></g></g><g fill="#737373" fill-opacity="1"><g transform="translate(469.393647, 106.242982)"><g><path d="M 12.839844 -6.644531 C 12.839844 -5.347656 12.386719 -4.199219 11.480469 -3.261719 C 10.574219 -2.296875 9.457031 -1.8125 8.15625 -1.8125 C 6.828125 -1.8125 5.710938 -2.296875 4.804688 -3.261719 C 3.898438 -4.199219 3.472656 -5.347656 3.472656 -6.644531 C 3.472656 -7.914062 3.898438 -9.0625 4.804688 -10.03125 C 5.710938 -10.996094 6.828125 -11.480469 8.15625 -11.480469 C 9.457031 -11.480469 10.574219 -10.996094 11.480469 -10.03125 C 12.386719 -9.0625 12.839844 -7.914062 12.839844 -6.644531 Z M 14.953125 0 L 14.953125 -13.292969 L 12.839844 -13.292969 L 12.839844 -10.996094 C 12.71875 -11.175781 12.566406 -11.328125 12.445312 -11.480469 C 11.175781 -12.871094 9.636719 -13.59375 7.824219 -13.59375 C 5.980469 -13.59375 4.441406 -12.871094 3.171875 -11.480469 C 1.964844 -10.089844 1.359375 -8.488281 1.359375 -6.644531 C 1.359375 -4.773438 1.964844 -3.171875 3.171875 -1.8125 C 4.441406 -0.394531 5.980469 0.300781 7.824219 0.300781 C 9.636719 0.300781 11.175781 -0.394531 12.445312 -1.8125 C 12.566406 -1.933594 12.71875 -2.085938 12.839844 -2.265625 L 12.839844 0 Z M 14.953125 0 "/></g></g></g><g fill="#737373" fill-opacity="1"><g transform="translate(492.650008, 106.242982)"><g><path d="M 4.167969 -1.871094 C 3.65625 -2.234375 3.261719 -2.839844 3.050781 -3.714844 L 0.816406 -3.714844 C 1.269531 -0.964844 3.019531 0.394531 6.101562 0.394531 C 6.828125 0.394531 7.492188 0.332031 8.125 0.152344 C 8.761719 -0.03125 9.304688 -0.273438 9.816406 -0.605469 C 10.84375 -1.300781 11.359375 -2.355469 11.359375 -3.777344 C 11.359375 -5.226562 10.695312 -6.253906 9.304688 -6.917969 C 8.730469 -7.191406 8.097656 -7.402344 7.402344 -7.550781 C 6.738281 -7.703125 6.101562 -7.886719 5.527344 -8.066406 C 4.925781 -8.246094 4.441406 -8.488281 4.046875 -8.761719 C 3.65625 -9.03125 3.445312 -9.457031 3.445312 -10.058594 C 3.445312 -10.664062 3.6875 -11.117188 4.167969 -11.390625 C 4.652344 -11.691406 5.226562 -11.84375 5.859375 -11.84375 C 6.523438 -11.84375 7.097656 -11.691406 7.550781 -11.449219 C 8.003906 -11.207031 8.367188 -10.722656 8.578125 -10 L 10.84375 -10 C 10.574219 -11.328125 10 -12.265625 9.152344 -12.777344 C 8.277344 -13.324219 7.21875 -13.59375 5.921875 -13.59375 C 4.652344 -13.59375 3.535156 -13.230469 2.597656 -12.566406 C 1.691406 -11.871094 1.207031 -10.875 1.207031 -9.546875 C 1.207031 -8.910156 1.390625 -8.339844 1.722656 -7.855469 C 2.085938 -7.339844 2.597656 -6.949219 3.261719 -6.644531 C 3.867188 -6.375 4.5 -6.164062 5.164062 -5.980469 C 5.832031 -5.832031 6.464844 -5.648438 7.070312 -5.46875 C 8.429688 -5.015625 9.125 -4.351562 9.125 -3.503906 C 9.125 -2.054688 8.15625 -1.359375 6.222656 -1.359375 C 5.40625 -1.359375 4.710938 -1.511719 4.167969 -1.871094 Z M 4.167969 -1.871094 "/></g></g></g><g fill="#737373" fill-opacity="1"><g transform="translate(510.832929, 106.242982)"><g><path d="M 4.410156 -17.882812 C 4.140625 -18.125 3.804688 -18.277344 3.445312 -18.277344 C 3.082031 -18.277344 2.75 -18.125 2.507812 -17.882812 C 2.234375 -17.613281 2.113281 -17.28125 2.113281 -16.917969 C 2.113281 -16.554688 2.234375 -16.222656 2.507812 -15.980469 C 2.75 -15.710938 3.082031 -15.589844 3.445312 -15.589844 C 3.804688 -15.589844 4.140625 -15.710938 4.410156 -15.980469 C 4.652344 -16.222656 4.804688 -16.554688 4.804688 -16.917969 C 4.804688 -17.28125 4.652344 -17.613281 4.410156 -17.882812 Z M 4.53125 0 L 4.53125 -13.292969 L 2.417969 -13.292969 L 2.417969 0 Z M 4.53125 0 "/></g></g></g><g fill="#737373" fill-opacity="1"><g transform="translate(523.791394, 106.242982)"><g/></g></g><g fill="#737373" fill-opacity="1"><g transform="translate(537.988018, 106.242982)"><g><path d="M 4.410156 -17.882812 C 4.140625 -18.125 3.804688 -18.277344 3.445312 -18.277344 C 3.082031 -18.277344 2.75 -18.125 2.507812 -17.882812 C 2.234375 -17.613281 2.113281 -17.28125 2.113281 -16.917969 C 2.113281 -16.554688 2.234375 -16.222656 2.507812 -15.980469 C 2.75 -15.710938 3.082031 -15.589844 3.445312 -15.589844 C 3.804688 -15.589844 4.140625 -15.710938 4.410156 -15.980469 C 4.652344 -16.222656 4.804688 -16.554688 4.804688 -16.917969 C 4.804688 -17.28125 4.652344 -17.613281 4.410156 -17.882812 Z M 4.53125 0 L 4.53125 -13.292969 L 2.417969 -13.292969 L 2.417969 0 Z M 4.53125 0 "/></g></g></g><g fill="#737373" fill-opacity="1"><g transform="translate(550.946483, 106.242982)"><g><path d="M 11.449219 0 L 13.5625 0 L 13.5625 -8.308594 C 13.5625 -9.847656 13.140625 -11.085938 12.355469 -12.023438 C 11.933594 -12.507812 11.449219 -12.871094 10.875 -13.140625 C 10.269531 -13.414062 9.515625 -13.5625 8.578125 -13.5625 C 7.613281 -13.5625 6.796875 -13.292969 6.070312 -12.808594 C 5.378906 -12.355469 4.804688 -11.75 4.378906 -10.996094 L 4.378906 -13.292969 L 2.265625 -13.292969 L 2.265625 0 L 4.378906 0 L 4.378906 -5.558594 C 4.378906 -7.25 4.683594 -8.578125 5.316406 -9.578125 C 5.679688 -10.121094 6.132812 -10.574219 6.707031 -10.9375 C 7.25 -11.269531 8.003906 -11.449219 8.910156 -11.449219 C 9.816406 -11.449219 10.453125 -11.117188 10.84375 -10.511719 C 11.238281 -9.910156 11.449219 -9.152344 11.449219 -8.308594 Z M 11.449219 0 "/></g></g></g><g fill="#737373" fill-opacity="1"><g transform="translate(572.360712, 106.242982)"><g><path d="M 6.433594 1.269531 L 12.539062 -13.292969 L 10.242188 -13.292969 L 6.433594 -3.414062 L 2.597656 -13.292969 L 0.300781 -13.292969 Z M 6.433594 1.269531 "/></g></g></g><g fill="#737373" fill-opacity="1"><g transform="translate(591.238198, 106.242982)"><g><path d="M 15.257812 -6.949219 C 15.257812 -8.761719 14.53125 -10.332031 13.140625 -11.691406 C 11.78125 -12.992188 10.152344 -13.65625 8.308594 -13.65625 C 6.375 -13.65625 4.742188 -12.960938 3.382812 -11.601562 C 2.023438 -10.242188 1.359375 -8.609375 1.359375 -6.707031 C 1.359375 -4.773438 2.023438 -3.140625 3.382812 -1.8125 C 4.019531 -1.179688 4.742188 -0.695312 5.589844 -0.332031 C 6.433594 0.03125 7.433594 0.210938 8.609375 0.210938 C 9.789062 0.210938 10.9375 -0.152344 12.085938 -0.875 C 13.230469 -1.601562 14.078125 -2.628906 14.652344 -3.898438 L 12.234375 -3.898438 C 11.75 -3.261719 11.175781 -2.78125 10.484375 -2.417969 C 9.789062 -2.054688 9.0625 -1.902344 8.308594 -1.902344 C 7.160156 -1.902344 6.132812 -2.265625 5.226562 -3.019531 C 4.320312 -3.746094 3.746094 -4.683594 3.566406 -5.832031 L 15.257812 -5.832031 Z M 13.019531 -7.644531 L 3.59375 -7.644531 C 3.714844 -8.1875 3.925781 -8.699219 4.230469 -9.183594 C 5.195312 -10.753906 6.554688 -11.539062 8.308594 -11.539062 C 9.425781 -11.539062 10.421875 -11.175781 11.296875 -10.453125 C 12.203125 -9.699219 12.75 -8.761719 13.019531 -7.644531 Z M 13.019531 -7.644531 "/></g></g></g><g fill="#737373" fill-opacity="1"><g transform="translate(613.73957, 106.242982)"><g><path d="M 11.449219 0 L 13.5625 0 L 13.5625 -8.308594 C 13.5625 -9.847656 13.140625 -11.085938 12.355469 -12.023438 C 11.933594 -12.507812 11.449219 -12.871094 10.875 -13.140625 C 10.269531 -13.414062 9.515625 -13.5625 8.578125 -13.5625 C 7.613281 -13.5625 6.796875 -13.292969 6.070312 -12.808594 C 5.378906 -12.355469 4.804688 -11.75 4.378906 -10.996094 L 4.378906 -13.292969 L 2.265625 -13.292969 L 2.265625 0 L 4.378906 0 L 4.378906 -5.558594 C 4.378906 -7.25 4.683594 -8.578125 5.316406 -9.578125 C 5.679688 -10.121094 6.132812 -10.574219 6.707031 -10.9375 C 7.25 -11.269531 8.003906 -11.449219 8.910156 -11.449219 C 9.816406 -11.449219 10.453125 -11.117188 10.84375 -10.511719 C 11.238281 -9.910156 11.449219 -9.152344 11.449219 -8.308594 Z M 11.449219 0 "/></g></g></g><g fill="#737373" fill-opacity="1"><g transform="translate(635.153799, 106.242982)"><g><path d="M 0.605469 -11.328125 L 3.925781 -11.328125 L 3.925781 0 L 6.042969 0 L 6.042969 -11.328125 L 9.335938 -11.328125 L 9.335938 -13.292969 L 6.042969 -13.292969 L 6.042969 -18.457031 L 3.925781 -18.457031 L 3.925781 -13.292969 L 0.605469 -13.292969 Z M 0.605469 -11.328125 "/></g></g></g><g fill="#737373" fill-opacity="1"><g transform="translate(651.132176, 106.242982)"><g><path d="M 12.839844 -6.644531 C 12.839844 -5.347656 12.386719 -4.199219 11.480469 -3.261719 C 10.574219 -2.296875 9.457031 -1.8125 8.15625 -1.8125 C 6.828125 -1.8125 5.710938 -2.296875 4.804688 -3.261719 C 3.898438 -4.199219 3.472656 -5.347656 3.472656 -6.644531 C 3.472656 -7.914062 3.898438 -9.0625 4.804688 -10.03125 C 5.710938 -10.996094 6.828125 -11.480469 8.15625 -11.480469 C 9.457031 -11.480469 10.574219 -10.996094 11.480469 -10.03125 C 12.386719 -9.0625 12.839844 -7.914062 12.839844 -6.644531 Z M 14.953125 0 L 14.953125 -13.292969 L 12.839844 -13.292969 L 12.839844 -10.996094 C 12.71875 -11.175781 12.566406 -11.328125 12.445312 -11.480469 C 11.175781 -12.871094 9.636719 -13.59375 7.824219 -13.59375 C 5.980469 -13.59375 4.441406 -12.871094 3.171875 -11.480469 C 1.964844 -10.089844 1.359375 -8.488281 1.359375 -6.644531 C 1.359375 -4.773438 1.964844 -3.171875 3.171875 -1.8125 C 4.441406 -0.394531 5.980469 0.300781 7.824219 0.300781 C 9.636719 0.300781 11.175781 -0.394531 12.445312 -1.8125 C 12.566406 -1.933594 12.71875 -2.085938 12.839844 -2.265625 L 12.839844 0 Z M 14.953125 0 "/></g></g></g><g fill="#737373" fill-opacity="1"><g transform="translate(674.388537, 106.242982)"><g><path d="M 9.09375 -10.542969 L 9.09375 -13.292969 C 8.671875 -13.472656 8.21875 -13.5625 7.765625 -13.5625 C 6.253906 -13.5625 5.164062 -12.71875 4.472656 -11.085938 L 4.378906 -10.542969 L 4.378906 -13.292969 L 2.265625 -13.292969 L 2.265625 0 L 4.378906 0 L 4.378906 -6.644531 C 4.378906 -7.734375 4.621094 -8.699219 5.136719 -9.578125 C 5.378906 -10.03125 5.710938 -10.421875 6.101562 -10.722656 C 6.496094 -11.027344 6.976562 -11.207031 7.523438 -11.207031 C 8.066406 -11.207031 8.578125 -10.964844 9.09375 -10.542969 Z M 9.09375 -10.542969 "/></g></g></g><g fill="#737373" fill-opacity="1"><g transform="translate(689.823321, 106.242982)"><g><path d="M 4.410156 -17.882812 C 4.140625 -18.125 3.804688 -18.277344 3.445312 -18.277344 C 3.082031 -18.277344 2.75 -18.125 2.507812 -17.882812 C 2.234375 -17.613281 2.113281 -17.28125 2.113281 -16.917969 C 2.113281 -16.554688 2.234375 -16.222656 2.507812 -15.980469 C 2.75 -15.710938 3.082031 -15.589844 3.445312 -15.589844 C 3.804688 -15.589844 4.140625 -15.710938 4.410156 -15.980469 C 4.652344 -16.222656 4.804688 -16.554688 4.804688 -16.917969 C 4.804688 -17.28125 4.652344 -17.613281 4.410156 -17.882812 Z M 4.53125 0 L 4.53125 -13.292969 L 2.417969 -13.292969 L 2.417969 0 Z M 4.53125 0 "/></g></g></g><g fill="#737373" fill-opacity="1"><g transform="translate(702.781785, 106.242982)"><g><path d="M 4.167969 -1.871094 C 3.65625 -2.234375 3.261719 -2.839844 3.050781 -3.714844 L 0.816406 -3.714844 C 1.269531 -0.964844 3.019531 0.394531 6.101562 0.394531 C 6.828125 0.394531 7.492188 0.332031 8.125 0.152344 C 8.761719 -0.03125 9.304688 -0.273438 9.816406 -0.605469 C 10.84375 -1.300781 11.359375 -2.355469 11.359375 -3.777344 C 11.359375 -5.226562 10.695312 -6.253906 9.304688 -6.917969 C 8.730469 -7.191406 8.097656 -7.402344 7.402344 -7.550781 C 6.738281 -7.703125 6.101562 -7.886719 5.527344 -8.066406 C 4.925781 -8.246094 4.441406 -8.488281 4.046875 -8.761719 C 3.65625 -9.03125 3.445312 -9.457031 3.445312 -10.058594 C 3.445312 -10.664062 3.6875 -11.117188 4.167969 -11.390625 C 4.652344 -11.691406 5.226562 -11.84375 5.859375 -11.84375 C 6.523438 -11.84375 7.097656 -11.691406 7.550781 -11.449219 C 8.003906 -11.207031 8.367188 -10.722656 8.578125 -10 L 10.84375 -10 C 10.574219 -11.328125 10 -12.265625 9.152344 -12.777344 C 8.277344 -13.324219 7.21875 -13.59375 5.921875 -13.59375 C 4.652344 -13.59375 3.535156 -13.230469 2.597656 -12.566406 C 1.691406 -11.871094 1.207031 -10.875 1.207031 -9.546875 C 1.207031 -8.910156 1.390625 -8.339844 1.722656 -7.855469 C 2.085938 -7.339844 2.597656 -6.949219 3.261719 -6.644531 C 3.867188 -6.375 4.5 -6.164062 5.164062 -5.980469 C 5.832031 -5.832031 6.464844 -5.648438 7.070312 -5.46875 C 8.429688 -5.015625 9.125 -4.351562 9.125 -3.503906 C 9.125 -2.054688 8.15625 -1.359375 6.222656 -1.359375 C 5.40625 -1.359375 4.710938 -1.511719 4.167969 -1.871094 Z M 4.167969 -1.871094 "/></g></g></g><g fill="#737373" fill-opacity="1"><g transform="translate(720.964706, 106.242982)"><g><path d="M 12.839844 -6.644531 C 12.839844 -5.347656 12.386719 -4.199219 11.480469 -3.261719 C 10.574219 -2.296875 9.457031 -1.8125 8.15625 -1.8125 C 6.828125 -1.8125 5.710938 -2.296875 4.804688 -3.261719 C 3.898438 -4.199219 3.472656 -5.347656 3.472656 -6.644531 C 3.472656 -7.914062 3.898438 -9.0625 4.804688 -10.03125 C 5.710938 -10.996094 6.828125 -11.480469 8.15625 -11.480469 C 9.457031 -11.480469 10.574219 -10.996094 11.480469 -10.03125 C 12.386719 -9.0625 12.839844 -7.914062 12.839844 -6.644531 Z M 14.953125 0 L 14.953125 -13.292969 L 12.839844 -13.292969 L 12.839844 -10.996094 C 12.71875 -11.175781 12.566406 -11.328125 12.445312 -11.480469 C 11.175781 -12.871094 9.636719 -13.59375 7.824219 -13.59375 C 5.980469 -13.59375 4.441406 -12.871094 3.171875 -11.480469 C 1.964844 -10.089844 1.359375 -8.488281 1.359375 -6.644531 C 1.359375 -4.773438 1.964844 -3.171875 3.171875 -1.8125 C 4.441406 -0.394531 5.980469 0.300781 7.824219 0.300781 C 9.636719 0.300781 11.175781 -0.394531 12.445312 -1.8125 C 12.566406 -1.933594 12.71875 -2.085938 12.839844 -2.265625 L 12.839844 0 Z M 14.953125 0 "/></g></g></g><g fill="#737373" fill-opacity="1"><g transform="translate(744.221068, 106.242982)"><g><path d="M 4.167969 -1.871094 C 3.65625 -2.234375 3.261719 -2.839844 3.050781 -3.714844 L 0.816406 -3.714844 C 1.269531 -0.964844 3.019531 0.394531 6.101562 0.394531 C 6.828125 0.394531 7.492188 0.332031 8.125 0.152344 C 8.761719 -0.03125 9.304688 -0.273438 9.816406 -0.605469 C 10.84375 -1.300781 11.359375 -2.355469 11.359375 -3.777344 C 11.359375 -5.226562 10.695312 -6.253906 9.304688 -6.917969 C 8.730469 -7.191406 8.097656 -7.402344 7.402344 -7.550781 C 6.738281 -7.703125 6.101562 -7.886719 5.527344 -8.066406 C 4.925781 -8.246094 4.441406 -8.488281 4.046875 -8.761719 C 3.65625 -9.03125 3.445312 -9.457031 3.445312 -10.058594 C 3.445312 -10.664062 3.6875 -11.117188 4.167969 -11.390625 C 4.652344 -11.691406 5.226562 -11.84375 5.859375 -11.84375 C 6.523438 -11.84375 7.097656 -11.691406 7.550781 -11.449219 C 8.003906 -11.207031 8.367188 -10.722656 8.578125 -10 L 10.84375 -10 C 10.574219 -11.328125 10 -12.265625 9.152344 -12.777344 C 8.277344 -13.324219 7.21875 -13.59375 5.921875 -13.59375 C 4.652344 -13.59375 3.535156 -13.230469 2.597656 -12.566406 C 1.691406 -11.871094 1.207031 -10.875 1.207031 -9.546875 C 1.207031 -8.910156 1.390625 -8.339844 1.722656 -7.855469 C 2.085938 -7.339844 2.597656 -6.949219 3.261719 -6.644531 C 3.867188 -6.375 4.5 -6.164062 5.164062 -5.980469 C 5.832031 -5.832031 6.464844 -5.648438 7.070312 -5.46875 C 8.429688 -5.015625 9.125 -4.351562 9.125 -3.503906 C 9.125 -2.054688 8.15625 -1.359375 6.222656 -1.359375 C 5.40625 -1.359375 4.710938 -1.511719 4.167969 -1.871094 Z M 4.167969 -1.871094 "/></g></g></g><g fill="#737373" fill-opacity="1"><g transform="translate(762.403989, 106.242982)"><g><path d="M 4.410156 -17.882812 C 4.140625 -18.125 3.804688 -18.277344 3.445312 -18.277344 C 3.082031 -18.277344 2.75 -18.125 2.507812 -17.882812 C 2.234375 -17.613281 2.113281 -17.28125 2.113281 -16.917969 C 2.113281 -16.554688 2.234375 -16.222656 2.507812 -15.980469 C 2.75 -15.710938 3.082031 -15.589844 3.445312 -15.589844 C 3.804688 -15.589844 4.140625 -15.710938 4.410156 -15.980469 C 4.652344 -16.222656 4.804688 -16.554688 4.804688 -16.917969 C 4.804688 -17.28125 4.652344 -17.613281 4.410156 -17.882812 Z M 4.53125 0 L 4.53125 -13.292969 L 2.417969 -13.292969 L 2.417969 0 Z M 4.53125 0 "/></g></g></g><g fill="#737373" fill-opacity="1"><g transform="translate(775.362454, 106.242982)"><g/></g></g><g fill="#737373" fill-opacity="1"><g transform="translate(789.559077, 106.242982)"><g><path d="M 12.839844 -6.644531 C 12.839844 -5.347656 12.386719 -4.199219 11.480469 -3.261719 C 10.574219 -2.296875 9.457031 -1.8125 8.15625 -1.8125 C 6.828125 -1.8125 5.710938 -2.296875 4.804688 -3.261719 C 3.898438 -4.199219 3.472656 -5.347656 3.472656 -6.644531 C 3.472656 -7.914062 3.898438 -9.0625 4.804688 -10.03125 C 5.710938 -10.996094 6.828125 -11.480469 8.15625 -11.480469 C 9.457031 -11.480469 10.574219 -10.996094 11.480469 -10.03125 C 12.386719 -9.0625 12.839844 -7.914062 12.839844 -6.644531 Z M 14.953125 0 L 14.953125 -22.65625 L 12.839844 -22.65625 L 12.839844 -10.996094 C 12.71875 -11.175781 12.566406 -11.328125 12.445312 -11.480469 C 11.175781 -12.871094 9.636719 -13.59375 7.824219 -13.59375 C 5.980469 -13.59375 4.441406 -12.871094 3.171875 -11.480469 C 1.964844 -10.089844 1.359375 -8.488281 1.359375 -6.644531 C 1.359375 -4.773438 1.964844 -3.171875 3.171875 -1.8125 C 4.441406 -0.394531 5.980469 0.300781 7.824219 0.300781 C 9.636719 0.300781 11.175781 -0.394531 12.445312 -1.8125 C 12.566406 -1.933594 12.71875 -2.085938 12.839844 -2.265625 L 12.839844 0 Z M 14.953125 0 "/></g></g></g><g fill="#737373" fill-opacity="1"><g transform="translate(812.815439, 106.242982)"><g><path d="M 12.839844 -6.644531 C 12.839844 -5.347656 12.386719 -4.199219 11.480469 -3.261719 C 10.574219 -2.296875 9.457031 -1.8125 8.15625 -1.8125 C 6.828125 -1.8125 5.710938 -2.296875 4.804688 -3.261719 C 3.898438 -4.199219 3.472656 -5.347656 3.472656 -6.644531 C 3.472656 -7.914062 3.898438 -9.0625 4.804688 -10.03125 C 5.710938 -10.996094 6.828125 -11.480469 8.15625 -11.480469 C 9.457031 -11.480469 10.574219 -10.996094 11.480469 -10.03125 C 12.386719 -9.0625 12.839844 -7.914062 12.839844 -6.644531 Z M 14.953125 0 L 14.953125 -13.292969 L 12.839844 -13.292969 L 12.839844 -10.996094 C 12.71875 -11.175781 12.566406 -11.328125 12.445312 -11.480469 C 11.175781 -12.871094 9.636719 -13.59375 7.824219 -13.59375 C 5.980469 -13.59375 4.441406 -12.871094 3.171875 -11.480469 C 1.964844 -10.089844 1.359375 -8.488281 1.359375 -6.644531 C 1.359375 -4.773438 1.964844 -3.171875 3.171875 -1.8125 C 4.441406 -0.394531 5.980469 0.300781 7.824219 0.300781 C 9.636719 0.300781 11.175781 -0.394531 12.445312 -1.8125 C 12.566406 -1.933594 12.71875 -2.085938 12.839844 -2.265625 L 12.839844 0 Z M 14.953125 0 "/></g></g></g><g fill="#737373" fill-opacity="1"><g transform="translate(836.071847, 106.242982)"><g><path d="M 11.449219 0 L 13.5625 0 L 13.5625 -8.308594 C 13.5625 -9.847656 13.140625 -11.085938 12.355469 -12.023438 C 11.933594 -12.507812 11.449219 -12.871094 10.875 -13.140625 C 10.269531 -13.414062 9.515625 -13.5625 8.578125 -13.5625 C 7.613281 -13.5625 6.796875 -13.292969 6.070312 -12.808594 C 5.378906 -12.355469 4.804688 -11.75 4.378906 -10.996094 L 4.378906 -13.292969 L 2.265625 -13.292969 L 2.265625 0 L 4.378906 0 L 4.378906 -5.558594 C 4.378906 -7.25 4.683594 -8.578125 5.316406 -9.578125 C 5.679688 -10.121094 6.132812 -10.574219 6.707031 -10.9375 C 7.25 -11.269531 8.003906 -11.449219 8.910156 -11.449219 C 9.816406 -11.449219 10.453125 -11.117188 10.84375 -10.511719 C 11.238281 -9.910156 11.449219 -9.152344 11.449219 -8.308594 Z M 11.449219 0 "/></g></g></g><g fill="#737373" fill-opacity="1"><g transform="translate(857.48603, 106.242982)"><g/></g></g><g fill="#737373" fill-opacity="1"><g transform="translate(871.682654, 106.242982)"><g><path d="M 13.140625 -6.707031 C 13.140625 -5.378906 12.65625 -4.257812 11.722656 -3.324219 C 10.753906 -2.355469 9.636719 -1.902344 8.308594 -1.902344 C 6.976562 -1.902344 5.832031 -2.355469 4.894531 -3.324219 C 3.925781 -4.257812 3.472656 -5.378906 3.472656 -6.707031 C 3.472656 -8.035156 3.925781 -9.152344 4.894531 -10.121094 C 5.832031 -11.058594 6.976562 -11.539062 8.308594 -11.539062 C 9.636719 -11.539062 10.753906 -11.058594 11.722656 -10.121094 C 12.65625 -9.152344 13.140625 -8.035156 13.140625 -6.707031 Z M 15.257812 -6.707031 C 15.257812 -8.609375 14.5625 -10.242188 13.203125 -11.601562 C 11.84375 -12.960938 10.210938 -13.65625 8.308594 -13.65625 C 6.375 -13.65625 4.742188 -12.960938 3.382812 -11.601562 C 2.023438 -10.242188 1.359375 -8.609375 1.359375 -6.707031 C 1.359375 -4.773438 2.023438 -3.140625 3.382812 -1.8125 C 4.742188 -0.453125 6.40625 0.210938 8.308594 0.210938 C 10.179688 0.210938 11.84375 -0.453125 13.203125 -1.8125 C 14.5625 -3.140625 15.257812 -4.773438 15.257812 -6.707031 Z M 15.257812 -6.707031 "/></g></g></g><g fill="#737373" fill-opacity="1"><g transform="translate(894.334996, 106.242982)"><g><path d="M 4.378906 7.550781 L 4.378906 -2.265625 C 4.472656 -2.085938 4.621094 -1.933594 4.742188 -1.8125 C 6.011719 -0.394531 7.550781 0.300781 9.394531 0.300781 C 11.207031 0.300781 12.75 -0.394531 14.015625 -1.8125 C 15.226562 -3.171875 15.859375 -4.773438 15.859375 -6.644531 C 15.859375 -8.488281 15.226562 -10.089844 14.015625 -11.480469 C 12.75 -12.871094 11.207031 -13.59375 9.394531 -13.59375 C 7.550781 -13.59375 6.011719 -12.871094 4.742188 -11.480469 C 4.621094 -11.328125 4.472656 -11.175781 4.378906 -10.996094 L 4.378906 -13.292969 L 2.265625 -13.292969 L 2.265625 7.550781 Z M 13.746094 -6.644531 C 13.746094 -5.347656 13.292969 -4.199219 12.386719 -3.261719 C 11.480469 -2.296875 10.363281 -1.8125 9.0625 -1.8125 C 7.734375 -1.8125 6.617188 -2.296875 5.710938 -3.261719 C 4.804688 -4.199219 4.378906 -5.347656 4.378906 -6.644531 C 4.378906 -7.914062 4.804688 -9.0625 5.710938 -10.03125 C 6.617188 -10.996094 7.734375 -11.480469 9.0625 -11.480469 C 10.363281 -11.480469 11.480469 -10.996094 12.386719 -10.03125 C 13.292969 -9.0625 13.746094 -7.914062 13.746094 -6.644531 Z M 13.746094 -6.644531 "/></g></g></g><g fill="#737373" fill-opacity="1"><g transform="translate(917.591404, 106.242982)"><g><path d="M 15.257812 -6.949219 C 15.257812 -8.761719 14.53125 -10.332031 13.140625 -11.691406 C 11.78125 -12.992188 10.152344 -13.65625 8.308594 -13.65625 C 6.375 -13.65625 4.742188 -12.960938 3.382812 -11.601562 C 2.023438 -10.242188 1.359375 -8.609375 1.359375 -6.707031 C 1.359375 -4.773438 2.023438 -3.140625 3.382812 -1.8125 C 4.019531 -1.179688 4.742188 -0.695312 5.589844 -0.332031 C 6.433594 0.03125 7.433594 0.210938 8.609375 0.210938 C 9.789062 0.210938 10.9375 -0.152344 12.085938 -0.875 C 13.230469 -1.601562 14.078125 -2.628906 14.652344 -3.898438 L 12.234375 -3.898438 C 11.75 -3.261719 11.175781 -2.78125 10.484375 -2.417969 C 9.789062 -2.054688 9.0625 -1.902344 8.308594 -1.902344 C 7.160156 -1.902344 6.132812 -2.265625 5.226562 -3.019531 C 4.320312 -3.746094 3.746094 -4.683594 3.566406 -5.832031 L 15.257812 -5.832031 Z M 13.019531 -7.644531 L 3.59375 -7.644531 C 3.714844 -8.1875 3.925781 -8.699219 4.230469 -9.183594 C 5.195312 -10.753906 6.554688 -11.539062 8.308594 -11.539062 C 9.425781 -11.539062 10.421875 -11.175781 11.296875 -10.453125 C 12.203125 -9.699219 12.75 -8.761719 13.019531 -7.644531 Z M 13.019531 -7.644531 "/></g></g></g><g fill="#737373" fill-opacity="1"><g transform="translate(940.092775, 106.242982)"><g><path d="M 9.09375 -10.542969 L 9.09375 -13.292969 C 8.671875 -13.472656 8.21875 -13.5625 7.765625 -13.5625 C 6.253906 -13.5625 5.164062 -12.71875 4.472656 -11.085938 L 4.378906 -10.542969 L 4.378906 -13.292969 L 2.265625 -13.292969 L 2.265625 0 L 4.378906 0 L 4.378906 -6.644531 C 4.378906 -7.734375 4.621094 -8.699219 5.136719 -9.578125 C 5.378906 -10.03125 5.710938 -10.421875 6.101562 -10.722656 C 6.496094 -11.027344 6.976562 -11.207031 7.523438 -11.207031 C 8.066406 -11.207031 8.578125 -10.964844 9.09375 -10.542969 Z M 9.09375 -10.542969 "/></g></g></g><g fill="#737373" fill-opacity="1"><g transform="translate(955.527559, 106.242982)"><g><path d="M 12.839844 -6.644531 C 12.839844 -5.347656 12.386719 -4.199219 11.480469 -3.261719 C 10.574219 -2.296875 9.457031 -1.8125 8.15625 -1.8125 C 6.828125 -1.8125 5.710938 -2.296875 4.804688 -3.261719 C 3.898438 -4.199219 3.472656 -5.347656 3.472656 -6.644531 C 3.472656 -7.914062 3.898438 -9.0625 4.804688 -10.03125 C 5.710938 -10.996094 6.828125 -11.480469 8.15625 -11.480469 C 9.457031 -11.480469 10.574219 -10.996094 11.480469 -10.03125 C 12.386719 -9.0625 12.839844 -7.914062 12.839844 -6.644531 Z M 14.953125 0 L 14.953125 -13.292969 L 12.839844 -13.292969 L 12.839844 -10.996094 C 12.71875 -11.175781 12.566406 -11.328125 12.445312 -11.480469 C 11.175781 -12.871094 9.636719 -13.59375 7.824219 -13.59375 C 5.980469 -13.59375 4.441406 -12.871094 3.171875 -11.480469 C 1.964844 -10.089844 1.359375 -8.488281 1.359375 -6.644531 C 1.359375 -4.773438 1.964844 -3.171875 3.171875 -1.8125 C 4.441406 -0.394531 5.980469 0.300781 7.824219 0.300781 C 9.636719 0.300781 11.175781 -0.394531 12.445312 -1.8125 C 12.566406 -1.933594 12.71875 -2.085938 12.839844 -2.265625 L 12.839844 0 Z M 14.953125 0 "/></g></g></g><g fill="#737373" fill-opacity="1"><g transform="translate(978.783966, 106.242982)"><g><path d="M 4.167969 -1.871094 C 3.65625 -2.234375 3.261719 -2.839844 3.050781 -3.714844 L 0.816406 -3.714844 C 1.269531 -0.964844 3.019531 0.394531 6.101562 0.394531 C 6.828125 0.394531 7.492188 0.332031 8.125 0.152344 C 8.761719 -0.03125 9.304688 -0.273438 9.816406 -0.605469 C 10.84375 -1.300781 11.359375 -2.355469 11.359375 -3.777344 C 11.359375 -5.226562 10.695312 -6.253906 9.304688 -6.917969 C 8.730469 -7.191406 8.097656 -7.402344 7.402344 -7.550781 C 6.738281 -7.703125 6.101562 -7.886719 5.527344 -8.066406 C 4.925781 -8.246094 4.441406 -8.488281 4.046875 -8.761719 C 3.65625 -9.03125 3.445312 -9.457031 3.445312 -10.058594 C 3.445312 -10.664062 3.6875 -11.117188 4.167969 -11.390625 C 4.652344 -11.691406 5.226562 -11.84375 5.859375 -11.84375 C 6.523438 -11.84375 7.097656 -11.691406 7.550781 -11.449219 C 8.003906 -11.207031 8.367188 -10.722656 8.578125 -10 L 10.84375 -10 C 10.574219 -11.328125 10 -12.265625 9.152344 -12.777344 C 8.277344 -13.324219 7.21875 -13.59375 5.921875 -13.59375 C 4.652344 -13.59375 3.535156 -13.230469 2.597656 -12.566406 C 1.691406 -11.871094 1.207031 -10.875 1.207031 -9.546875 C 1.207031 -8.910156 1.390625 -8.339844 1.722656 -7.855469 C 2.085938 -7.339844 2.597656 -6.949219 3.261719 -6.644531 C 3.867188 -6.375 4.5 -6.164062 5.164062 -5.980469 C 5.832031 -5.832031 6.464844 -5.648438 7.070312 -5.46875 C 8.429688 -5.015625 9.125 -4.351562 9.125 -3.503906 C 9.125 -2.054688 8.15625 -1.359375 6.222656 -1.359375 C 5.40625 -1.359375 4.710938 -1.511719 4.167969 -1.871094 Z M 4.167969 -1.871094 "/></g></g></g><g fill="#737373" fill-opacity="1"><g transform="translate(996.966887, 106.242982)"><g><path d="M 4.410156 -17.882812 C 4.140625 -18.125 3.804688 -18.277344 3.445312 -18.277344 C 3.082031 -18.277344 2.75 -18.125 2.507812 -17.882812 C 2.234375 -17.613281 2.113281 -17.28125 2.113281 -16.917969 C 2.113281 -16.554688 2.234375 -16.222656 2.507812 -15.980469 C 2.75 -15.710938 3.082031 -15.589844 3.445312 -15.589844 C 3.804688 -15.589844 4.140625 -15.710938 4.410156 -15.980469 C 4.652344 -16.222656 4.804688 -16.554688 4.804688 -16.917969 C 4.804688 -17.28125 4.652344 -17.613281 4.410156 -17.882812 Z M 4.53125 0 L 4.53125 -13.292969 L 2.417969 -13.292969 L 2.417969 0 Z M 4.53125 0 "/></g></g></g><g fill="#737373" fill-opacity="1"><g transform="translate(370.866337, 142.24298)"><g><path d="M 12.839844 -6.644531 C 12.839844 -5.347656 12.386719 -4.199219 11.480469 -3.261719 C 10.574219 -2.296875 9.457031 -1.8125 8.15625 -1.8125 C 6.828125 -1.8125 5.710938 -2.296875 4.804688 -3.261719 C 3.898438 -4.199219 3.472656 -5.347656 3.472656 -6.644531 C 3.472656 -7.914062 3.898438 -9.0625 4.804688 -10.03125 C 5.710938 -10.996094 6.828125 -11.480469 8.15625 -11.480469 C 9.457031 -11.480469 10.574219 -10.996094 11.480469 -10.03125 C 12.386719 -9.0625 12.839844 -7.914062 12.839844 -6.644531 Z M 14.953125 0 L 14.953125 -13.292969 L 12.839844 -13.292969 L 12.839844 -10.996094 C 12.71875 -11.175781 12.566406 -11.328125 12.445312 -11.480469 C 11.175781 -12.871094 9.636719 -13.59375 7.824219 -13.59375 C 5.980469 -13.59375 4.441406 -12.871094 3.171875 -11.480469 C 1.964844 -10.089844 1.359375 -8.488281 1.359375 -6.644531 C 1.359375 -4.773438 1.964844 -3.171875 3.171875 -1.8125 C 4.441406 -0.394531 5.980469 0.300781 7.824219 0.300781 C 9.636719 0.300781 11.175781 -0.394531 12.445312 -1.8125 C 12.566406 -1.933594 12.71875 -2.085938 12.839844 -2.265625 L 12.839844 0 Z M 14.953125 0 "/></g></g></g><g fill="#737373" fill-opacity="1"><g transform="translate(394.122703, 142.24298)"><g><path d="M 4.167969 -1.871094 C 3.65625 -2.234375 3.261719 -2.839844 3.050781 -3.714844 L 0.816406 -3.714844 C 1.269531 -0.964844 3.019531 0.394531 6.101562 0.394531 C 6.828125 0.394531 7.492188 0.332031 8.125 0.152344 C 8.761719 -0.03125 9.304688 -0.273438 9.816406 -0.605469 C 10.84375 -1.300781 11.359375 -2.355469 11.359375 -3.777344 C 11.359375 -5.226562 10.695312 -6.253906 9.304688 -6.917969 C 8.730469 -7.191406 8.097656 -7.402344 7.402344 -7.550781 C 6.738281 -7.703125 6.101562 -7.886719 5.527344 -8.066406 C 4.925781 -8.246094 4.441406 -8.488281 4.046875 -8.761719 C 3.65625 -9.03125 3.445312 -9.457031 3.445312 -10.058594 C 3.445312 -10.664062 3.6875 -11.117188 4.167969 -11.390625 C 4.652344 -11.691406 5.226562 -11.84375 5.859375 -11.84375 C 6.523438 -11.84375 7.097656 -11.691406 7.550781 -11.449219 C 8.003906 -11.207031 8.367188 -10.722656 8.578125 -10 L 10.84375 -10 C 10.574219 -11.328125 10 -12.265625 9.152344 -12.777344 C 8.277344 -13.324219 7.21875 -13.59375 5.921875 -13.59375 C 4.652344 -13.59375 3.535156 -13.230469 2.597656 -12.566406 C 1.691406 -11.871094 1.207031 -10.875 1.207031 -9.546875 C 1.207031 -8.910156 1.390625 -8.339844 1.722656 -7.855469 C 2.085938 -7.339844 2.597656 -6.949219 3.261719 -6.644531 C 3.867188 -6.375 4.5 -6.164062 5.164062 -5.980469 C 5.832031 -5.832031 6.464844 -5.648438 7.070312 -5.46875 C 8.429688 -5.015625 9.125 -4.351562 9.125 -3.503906 C 9.125 -2.054688 8.15625 -1.359375 6.222656 -1.359375 C 5.40625 -1.359375 4.710938 -1.511719 4.167969 -1.871094 Z M 4.167969 -1.871094 "/></g></g></g><g fill="#737373" fill-opacity="1"><g transform="translate(412.305606, 142.24298)"><g><path d="M 15.257812 -6.949219 C 15.257812 -8.761719 14.53125 -10.332031 13.140625 -11.691406 C 11.78125 -12.992188 10.152344 -13.65625 8.308594 -13.65625 C 6.375 -13.65625 4.742188 -12.960938 3.382812 -11.601562 C 2.023438 -10.242188 1.359375 -8.609375 1.359375 -6.707031 C 1.359375 -4.773438 2.023438 -3.140625 3.382812 -1.8125 C 4.019531 -1.179688 4.742188 -0.695312 5.589844 -0.332031 C 6.433594 0.03125 7.433594 0.210938 8.609375 0.210938 C 9.789062 0.210938 10.9375 -0.152344 12.085938 -0.875 C 13.230469 -1.601562 14.078125 -2.628906 14.652344 -3.898438 L 12.234375 -3.898438 C 11.75 -3.261719 11.175781 -2.78125 10.484375 -2.417969 C 9.789062 -2.054688 9.0625 -1.902344 8.308594 -1.902344 C 7.160156 -1.902344 6.132812 -2.265625 5.226562 -3.019531 C 4.320312 -3.746094 3.746094 -4.683594 3.566406 -5.832031 L 15.257812 -5.832031 Z M 13.019531 -7.644531 L 3.59375 -7.644531 C 3.714844 -8.1875 3.925781 -8.699219 4.230469 -9.183594 C 5.195312 -10.753906 6.554688 -11.539062 8.308594 -11.539062 C 9.425781 -11.539062 10.421875 -11.175781 11.296875 -10.453125 C 12.203125 -9.699219 12.75 -8.761719 13.019531 -7.644531 Z M 13.019531 -7.644531 "/></g></g></g><g fill="#737373" fill-opacity="1"><g transform="translate(434.806992, 142.24298)"><g><path d="M 0.605469 -11.328125 L 3.925781 -11.328125 L 3.925781 0 L 6.042969 0 L 6.042969 -11.328125 L 9.335938 -11.328125 L 9.335938 -13.292969 L 6.042969 -13.292969 L 6.042969 -18.457031 L 3.925781 -18.457031 L 3.925781 -13.292969 L 0.605469 -13.292969 Z M 0.605469 -11.328125 "/></g></g></g><g fill="#737373" fill-opacity="1"><g transform="translate(450.785364, 142.24298)"><g/></g></g><g fill="#737373" fill-opacity="1"><g transform="translate(464.981982, 142.24298)"><g><path d="M 4.378906 0 L 4.378906 -9.183594 L 13.714844 -9.183594 L 13.714844 0 L 15.828125 0 L 15.828125 -20.542969 L 13.714844 -20.542969 L 13.714844 -11.296875 L 4.378906 -11.296875 L 4.378906 -20.542969 L 2.265625 -20.542969 L 2.265625 0 Z M 4.378906 0 "/></g></g></g><g fill="#737373" fill-opacity="1"><g transform="translate(489.114125, 142.24298)"><g><path d="M 13.140625 -6.707031 C 13.140625 -5.378906 12.65625 -4.257812 11.722656 -3.324219 C 10.753906 -2.355469 9.636719 -1.902344 8.308594 -1.902344 C 6.976562 -1.902344 5.832031 -2.355469 4.894531 -3.324219 C 3.925781 -4.257812 3.472656 -5.378906 3.472656 -6.707031 C 3.472656 -8.035156 3.925781 -9.152344 4.894531 -10.121094 C 5.832031 -11.058594 6.976562 -11.539062 8.308594 -11.539062 C 9.636719 -11.539062 10.753906 -11.058594 11.722656 -10.121094 C 12.65625 -9.152344 13.140625 -8.035156 13.140625 -6.707031 Z M 15.257812 -6.707031 C 15.257812 -8.609375 14.5625 -10.242188 13.203125 -11.601562 C 11.84375 -12.960938 10.210938 -13.65625 8.308594 -13.65625 C 6.375 -13.65625 4.742188 -12.960938 3.382812 -11.601562 C 2.023438 -10.242188 1.359375 -8.609375 1.359375 -6.707031 C 1.359375 -4.773438 2.023438 -3.140625 3.382812 -1.8125 C 4.742188 -0.453125 6.40625 0.210938 8.308594 0.210938 C 10.179688 0.210938 11.84375 -0.453125 13.203125 -1.8125 C 14.5625 -3.140625 15.257812 -4.773438 15.257812 -6.707031 Z M 15.257812 -6.707031 "/></g></g></g><g fill="#737373" fill-opacity="1"><g transform="translate(511.766502, 142.24298)"><g><path d="M 0.605469 -11.328125 L 3.925781 -11.328125 L 3.925781 0 L 6.042969 0 L 6.042969 -11.328125 L 9.335938 -11.328125 L 9.335938 -13.292969 L 6.042969 -13.292969 L 6.042969 -18.457031 L 3.925781 -18.457031 L 3.925781 -13.292969 L 0.605469 -13.292969 Z M 0.605469 -11.328125 "/></g></g></g><g fill="#737373" fill-opacity="1"><g transform="translate(527.744868, 142.24298)"><g><path d="M 15.257812 -6.949219 C 15.257812 -8.761719 14.53125 -10.332031 13.140625 -11.691406 C 11.78125 -12.992188 10.152344 -13.65625 8.308594 -13.65625 C 6.375 -13.65625 4.742188 -12.960938 3.382812 -11.601562 C 2.023438 -10.242188 1.359375 -8.609375 1.359375 -6.707031 C 1.359375 -4.773438 2.023438 -3.140625 3.382812 -1.8125 C 4.019531 -1.179688 4.742188 -0.695312 5.589844 -0.332031 C 6.433594 0.03125 7.433594 0.210938 8.609375 0.210938 C 9.789062 0.210938 10.9375 -0.152344 12.085938 -0.875 C 13.230469 -1.601562 14.078125 -2.628906 14.652344 -3.898438 L 12.234375 -3.898438 C 11.75 -3.261719 11.175781 -2.78125 10.484375 -2.417969 C 9.789062 -2.054688 9.0625 -1.902344 8.308594 -1.902344 C 7.160156 -1.902344 6.132812 -2.265625 5.226562 -3.019531 C 4.320312 -3.746094 3.746094 -4.683594 3.566406 -5.832031 L 15.257812 -5.832031 Z M 13.019531 -7.644531 L 3.59375 -7.644531 C 3.714844 -8.1875 3.925781 -8.699219 4.230469 -9.183594 C 5.195312 -10.753906 6.554688 -11.539062 8.308594 -11.539062 C 9.425781 -11.539062 10.421875 -11.175781 11.296875 -10.453125 C 12.203125 -9.699219 12.75 -8.761719 13.019531 -7.644531 Z M 13.019531 -7.644531 "/></g></g></g><g fill="#737373" fill-opacity="1"><g transform="translate(550.246251, 142.24298)"><g><path d="M 4.378906 0 L 4.378906 -22.65625 L 2.265625 -22.65625 L 2.265625 0 Z M 4.378906 0 "/></g></g></g><g fill="#737373" fill-opacity="1"><g transform="translate(562.932908, 142.24298)"><g/></g></g><g fill="#737373" fill-opacity="1"><g transform="translate(577.129532, 142.24298)"><g><path d="M 5.589844 -7.550781 L 9.335938 -17.007812 L 13.050781 -7.550781 Z M 18.335938 0 L 9.335938 -21.960938 L 0.300781 0 L 2.597656 0 L 4.804688 -5.589844 L 13.835938 -5.589844 L 16.042969 0 Z M 18.335938 0 "/></g></g></g><g fill="#737373" fill-opacity="1"><g transform="translate(601.805258, 142.24298)"><g><path d="M 11.449219 0 L 13.5625 0 L 13.5625 -8.308594 C 13.5625 -9.847656 13.140625 -11.085938 12.355469 -12.023438 C 11.933594 -12.507812 11.449219 -12.871094 10.875 -13.140625 C 10.269531 -13.414062 9.515625 -13.5625 8.578125 -13.5625 C 7.613281 -13.5625 6.796875 -13.292969 6.070312 -12.808594 C 5.378906 -12.355469 4.804688 -11.75 4.378906 -10.996094 L 4.378906 -13.292969 L 2.265625 -13.292969 L 2.265625 0 L 4.378906 0 L 4.378906 -5.558594 C 4.378906 -7.25 4.683594 -8.578125 5.316406 -9.578125 C 5.679688 -10.121094 6.132812 -10.574219 6.707031 -10.9375 C 7.25 -11.269531 8.003906 -11.449219 8.910156 -11.449219 C 9.816406 -11.449219 10.453125 -11.117188 10.84375 -10.511719 C 11.238281 -9.910156 11.449219 -9.152344 11.449219 -8.308594 Z M 11.449219 0 "/></g></g></g><g fill="#737373" fill-opacity="1"><g transform="translate(623.219464, 142.24298)"><g><path d="M 12.839844 -6.644531 C 12.839844 -5.347656 12.386719 -4.199219 11.480469 -3.261719 C 10.574219 -2.296875 9.457031 -1.8125 8.15625 -1.8125 C 6.828125 -1.8125 5.710938 -2.296875 4.804688 -3.261719 C 3.898438 -4.199219 3.472656 -5.347656 3.472656 -6.644531 C 3.472656 -7.914062 3.898438 -9.0625 4.804688 -10.03125 C 5.710938 -10.996094 6.828125 -11.480469 8.15625 -11.480469 C 9.457031 -11.480469 10.574219 -10.996094 11.480469 -10.03125 C 12.386719 -9.0625 12.839844 -7.914062 12.839844 -6.644531 Z M 14.953125 0 L 14.953125 -13.292969 L 12.839844 -13.292969 L 12.839844 -10.996094 C 12.71875 -11.175781 12.566406 -11.328125 12.445312 -11.480469 C 11.175781 -12.871094 9.636719 -13.59375 7.824219 -13.59375 C 5.980469 -13.59375 4.441406 -12.871094 3.171875 -11.480469 C 1.964844 -10.089844 1.359375 -8.488281 1.359375 -6.644531 C 1.359375 -4.773438 1.964844 -3.171875 3.171875 -1.8125 C 4.441406 -0.394531 5.980469 0.300781 7.824219 0.300781 C 9.636719 0.300781 11.175781 -0.394531 12.445312 -1.8125 C 12.566406 -1.933594 12.71875 -2.085938 12.839844 -2.265625 L 12.839844 0 Z M 14.953125 0 "/></g></g></g><g fill="#737373" fill-opacity="1"><g transform="translate(646.475826, 142.24298)"><g><path d="M 9.09375 -10.542969 L 9.09375 -13.292969 C 8.671875 -13.472656 8.21875 -13.5625 7.765625 -13.5625 C 6.253906 -13.5625 5.164062 -12.71875 4.472656 -11.085938 L 4.378906 -10.542969 L 4.378906 -13.292969 L 2.265625 -13.292969 L 2.265625 0 L 4.378906 0 L 4.378906 -6.644531 C 4.378906 -7.734375 4.621094 -8.699219 5.136719 -9.578125 C 5.378906 -10.03125 5.710938 -10.421875 6.101562 -10.722656 C 6.496094 -11.027344 6.976562 -11.207031 7.523438 -11.207031 C 8.066406 -11.207031 8.578125 -10.964844 9.09375 -10.542969 Z M 9.09375 -10.542969 "/></g></g></g><g fill="#737373" fill-opacity="1"><g transform="translate(661.910609, 142.24298)"><g><path d="M 12.839844 -6.644531 C 12.839844 -5.347656 12.386719 -4.199219 11.480469 -3.261719 C 10.574219 -2.296875 9.457031 -1.8125 8.15625 -1.8125 C 6.828125 -1.8125 5.710938 -2.296875 4.804688 -3.261719 C 3.898438 -4.199219 3.472656 -5.347656 3.472656 -6.644531 C 3.472656 -7.914062 3.898438 -9.0625 4.804688 -10.03125 C 5.710938 -10.996094 6.828125 -11.480469 8.15625 -11.480469 C 9.457031 -11.480469 10.574219 -10.996094 11.480469 -10.03125 C 12.386719 -9.0625 12.839844 -7.914062 12.839844 -6.644531 Z M 14.953125 0 L 14.953125 -13.292969 L 12.839844 -13.292969 L 12.839844 -10.996094 C 12.71875 -11.175781 12.566406 -11.328125 12.445312 -11.480469 C 11.175781 -12.871094 9.636719 -13.59375 7.824219 -13.59375 C 5.980469 -13.59375 4.441406 -12.871094 3.171875 -11.480469 C 1.964844 -10.089844 1.359375 -8.488281 1.359375 -6.644531 C 1.359375 -4.773438 1.964844 -3.171875 3.171875 -1.8125 C 4.441406 -0.394531 5.980469 0.300781 7.824219 0.300781 C 9.636719 0.300781 11.175781 -0.394531 12.445312 -1.8125 C 12.566406 -1.933594 12.71875 -2.085938 12.839844 -2.265625 L 12.839844 0 Z M 14.953125 0 "/></g></g></g></svg>